<?xml version="1.0" encoding="UTF-8"?>
<svg width="120" height="100" viewBox="0 0 120 100" xmlns="http://www.w3.org/2000/svg">
  <!-- Book -->
  <g transform="translate(10, 10)">
    <!-- Book cover -->
    <path d="M10,0 L90,0 C95.5228,0 100,4.47715 100,10 L100,70 C100,75.5228 95.5228,80 90,80 L10,80 C4.47715,80 0,75.5228 0,70 L0,10 C0,4.47715 4.47715,0 10,0 Z" fill="#E57373"/>
    
    <!-- Book spine -->
    <path d="M0,10 L0,70 C0,75.5228 4.47715,80 10,80 L10,0 C4.47715,0 0,4.47715 0,10 Z" fill="#C62828"/>
    
    <!-- Book pages -->
    <path d="M15,5 L85,5 C90.5228,5 95,9.47715 95,15 L95,65 C95,70.5228 90.5228,75 85,75 L15,75 C9.47715,75 5,70.5228 5,65 L5,15 C5,9.47715 9.47715,5 15,5 Z" fill="#FFFFFF"/>
    
    <!-- Book lines -->
    <line x1="20" y1="20" x2="80" y2="20" stroke="#EEEEEE" stroke-width="2"/>
    <line x1="20" y1="30" x2="80" y2="30" stroke="#EEEEEE" stroke-width="2"/>
    <line x1="20" y1="40" x2="80" y2="40" stroke="#EEEEEE" stroke-width="2"/>
    <line x1="20" y1="50" x2="60" y2="50" stroke="#EEEEEE" stroke-width="2"/>
    <line x1="20" y1="60" x2="70" y2="60" stroke="#EEEEEE" stroke-width="2"/>
  </g>
  
  <!-- Open book on top -->
  <g transform="translate(0, 0)">
    <!-- Left page -->
    <path d="M10,10 L50,5 L50,35 L10,40 Z" fill="#F5F5F5" stroke="#BDBDBD" stroke-width="1"/>
    
    <!-- Right page -->
    <path d="M50,5 L90,10 L90,40 L50,35 Z" fill="#F5F5F5" stroke="#BDBDBD" stroke-width="1"/>
    
    <!-- Left page lines -->
    <line x1="15" y1="15" x2="45" y2="12" stroke="#EEEEEE" stroke-width="1"/>
    <line x1="15" y1="20" x2="45" y2="17" stroke="#EEEEEE" stroke-width="1"/>
    <line x1="15" y1="25" x2="45" y2="22" stroke="#EEEEEE" stroke-width="1"/>
    <line x1="15" y1="30" x2="45" y2="27" stroke="#EEEEEE" stroke-width="1"/>
    
    <!-- Right page lines -->
    <line x1="55" y1="12" x2="85" y2="15" stroke="#EEEEEE" stroke-width="1"/>
    <line x1="55" y1="17" x2="85" y2="20" stroke="#EEEEEE" stroke-width="1"/>
    <line x1="55" y1="22" x2="85" y2="25" stroke="#EEEEEE" stroke-width="1"/>
    <line x1="55" y1="27" x2="85" y2="30" stroke="#EEEEEE" stroke-width="1"/>
  </g>
</svg>