  0
SECTION
  2
HEADER
  9
$ACADVER
  1
AC1032
  9
$ACADMAINTVER
 90
      228
  9
$DWGCODEPAGE
  3
ANSI_1252
  9
$REQUIREDVERSIONS
160
                 0
  9
$INSBASE
 10
0.0
 20
0.0
 30
0.0
  9
$EXTMIN
 10
1.000000000000000E+20
 20
1.000000000000000E+20
 30
1.000000000000000E+20
  9
$EXTMAX
 10
-1.000000000000000E+20
 20
-1.000000000000000E+20
 30
-1.000000000000000E+20
  9
$LIMMIN
 10
0.0
 20
0.0
  9
$LIMMAX
 10
12.0
 20
9.0
  9
$ORTHOMODE
 70
     0
  9
$REGENMODE
 70
     1
  9
$FILLMODE
 70
     1
  9
$QTEXTMODE
 70
     0
  9
$MIRRTEXT
 70
     0
  9
$LTSCALE
 40
1.0
  9
$ATTMODE
 70
     1
  9
$TEXTSIZE
 40
0.2
  9
$TRACEWID
 40
0.05
  9
$TEXTSTYLE
  7
Standard
  9
$CLAYER
  8
0
  9
$CELTYPE
  6
ByLayer
  9
$CECOLOR
 62
   256
  9
$CELTSCALE
 40
1.0
  9
$DISPSILH
 70
     0
  9
$DIMSCALE
 40
1.0
  9
$DIMASZ
 40
0.18
  9
$DIMEXO
 40
0.0625
  9
$DIMDLI
 40
0.38
  9
$DIMRND
 40
0.0
  9
$DIMDLE
 40
0.0
  9
$DIMEXE
 40
0.18
  9
$DIMTP
 40
0.0
  9
$DIMTM
 40
0.0
  9
$DIMTXT
 40
0.18
  9
$DIMCEN
 40
0.09
  9
$DIMTSZ
 40
0.0
  9
$DIMTOL
 70
     0
  9
$DIMLIM
 70
     0
  9
$DIMTIH
 70
     1
  9
$DIMTOH
 70
     1
  9
$DIMSE1
 70
     0
  9
$DIMSE2
 70
     0
  9
$DIMTAD
 70
     0
  9
$DIMZIN
 70
     0
  9
$DIMBLK
  1

  9
$DIMASO
 70
     1
  9
$DIMSHO
 70
     1
  9
$DIMPOST
  1

  9
$DIMAPOST
  1

  9
$DIMALT
 70
     0
  9
$DIMALTD
 70
     2
  9
$DIMALTF
 40
25.4
  9
$DIMLFAC
 40
1.0
  9
$DIMTOFL
 70
     0
  9
$DIMTVP
 40
0.0
  9
$DIMTIX
 70
     0
  9
$DIMSOXD
 70
     0
  9
$DIMSAH
 70
     0
  9
$DIMBLK1
  1

  9
$DIMBLK2
  1

  9
$DIMSTYLE
  2
Standard
  9
$DIMCLRD
 70
     0
  9
$DIMCLRE
 70
     0
  9
$DIMCLRT
 70
     0
  9
$DIMTFAC
 40
1.0
  9
$DIMGAP
 40
0.09
  9
$DIMJUST
 70
     0
  9
$DIMSD1
 70
     0
  9
$DIMSD2
 70
     0
  9
$DIMTOLJ
 70
     1
  9
$DIMTZIN
 70
     0
  9
$DIMALTZ
 70
     0
  9
$DIMALTTZ
 70
     0
  9
$DIMUPT
 70
     0
  9
$DIMDEC
 70
     4
  9
$DIMTDEC
 70
     4
  9
$DIMALTU
 70
     2
  9
$DIMALTTD
 70
     2
  9
$DIMTXSTY
  7
Standard
  9
$DIMAUNIT
 70
     0
  9
$DIMADEC
 70
     0
  9
$DIMALTRND
 40
0.0
  9
$DIMAZIN
 70
     0
  9
$DIMDSEP
 70
    46
  9
$DIMATFIT
 70
     3
  9
$DIMFRAC
 70
     0
  9
$DIMLDRBLK
  1

  9
$DIMLUNIT
 70
     2
  9
$DIMLWD
 70
    -2
  9
$DIMLWE
 70
    -2
  9
$DIMTMOVE
 70
     0
  9
$DIMFXL
 40
1.0
  9
$DIMFXLON
 70
     0
  9
$DIMJOGANG
 40
0.7853981633974483
  9
$DIMTFILL
 70
     0
  9
$DIMTFILLCLR
 70
     0
  9
$DIMARCSYM
 70
     0
  9
$DIMLTYPE
  6

  9
$DIMLTEX1
  6

  9
$DIMLTEX2
  6

  9
$DIMTXTDIRECTION
 70
     0
  9
$LUNITS
 70
     2
  9
$LUPREC
 70
     4
  9
$SKETCHINC
 40
0.1
  9
$FILLETRAD
 40
0.0
  9
$AUNITS
 70
     0
  9
$AUPREC
 70
     0
  9
$MENU
  1
.
  9
$ELEVATION
 40
0.0
  9
$PELEVATION
 40
0.0
  9
$THICKNESS
 40
0.0
  9
$LIMCHECK
 70
     0
  9
$CHAMFERA
 40
0.0
  9
$CHAMFERB
 40
0.0
  9
$CHAMFERC
 40
0.0
  9
$CHAMFERD
 40
0.0
  9
$SKPOLY
 70
     0
  9
$TDCREATE
 40
2460623.637928241
  9
$TDUCREATE
 40
2460623.408761574
  9
$TDUPDATE
 40
2460623.637928241
  9
$TDUUPDATE
 40
2460623.408761574
  9
$TDINDWG
 40
0.0000000000
  9
$TDUSRTIMER
 40
0.0000000000
  9
$USRTIMER
 70
     1
  9
$ANGBASE
 50
0.0
  9
$ANGDIR
 70
     0
  9
$PDMODE
 70
     0
  9
$PDSIZE
 40
0.0
  9
$PLINEWID
 40
0.0
  9
$SPLFRAME
 70
     0
  9
$SPLINETYPE
 70
     6
  9
$SPLINESEGS
 70
     8
  9
$HANDSEED
  5
D8
  9
$SURFTAB1
 70
     6
  9
$SURFTAB2
 70
     6
  9
$SURFTYPE
 70
     6
  9
$SURFU
 70
     6
  9
$SURFV
 70
     6
  9
$UCSBASE
  2

  9
$UCSNAME
  2

  9
$UCSORG
 10
0.0
 20
0.0
 30
0.0
  9
$UCSXDIR
 10
1.0
 20
0.0
 30
0.0
  9
$UCSYDIR
 10
0.0
 20
1.0
 30
0.0
  9
$UCSORTHOREF
  2

  9
$UCSORTHOVIEW
 70
     0
  9
$UCSORGTOP
 10
0.0
 20
0.0
 30
0.0
  9
$UCSORGBOTTOM
 10
0.0
 20
0.0
 30
0.0
  9
$UCSORGLEFT
 10
0.0
 20
0.0
 30
0.0
  9
$UCSORGRIGHT
 10
0.0
 20
0.0
 30
0.0
  9
$UCSORGFRONT
 10
0.0
 20
0.0
 30
0.0
  9
$UCSORGBACK
 10
0.0
 20
0.0
 30
0.0
  9
$PUCSBASE
  2

  9
$PUCSNAME
  2

  9
$PUCSORG
 10
0.0
 20
0.0
 30
0.0
  9
$PUCSXDIR
 10
1.0
 20
0.0
 30
0.0
  9
$PUCSYDIR
 10
0.0
 20
1.0
 30
0.0
  9
$PUCSORTHOREF
  2

  9
$PUCSORTHOVIEW
 70
     0
  9
$PUCSORGTOP
 10
0.0
 20
0.0
 30
0.0
  9
$PUCSORGBOTTOM
 10
0.0
 20
0.0
 30
0.0
  9
$PUCSORGLEFT
 10
0.0
 20
0.0
 30
0.0
  9
$PUCSORGRIGHT
 10
0.0
 20
0.0
 30
0.0
  9
$PUCSORGFRONT
 10
0.0
 20
0.0
 30
0.0
  9
$PUCSORGBACK
 10
0.0
 20
0.0
 30
0.0
  9
$USERI1
 70
     0
  9
$USERI2
 70
     0
  9
$USERI3
 70
     0
  9
$USERI4
 70
     0
  9
$USERI5
 70
     0
  9
$USERR1
 40
0.0
  9
$USERR2
 40
0.0
  9
$USERR3
 40
0.0
  9
$USERR4
 40
0.0
  9
$USERR5
 40
0.0
  9
$WORLDVIEW
 70
     1
  9
$SHADEDGE
 70
     3
  9
$SHADEDIF
 70
    70
  9
$TILEMODE
 70
     1
  9
$MAXACTVP
 70
    64
  9
$PINSBASE
 10
0.0
 20
0.0
 30
0.0
  9
$PLIMCHECK
 70
     0
  9
$PEXTMIN
 10
1.000000000000000E+20
 20
1.000000000000000E+20
 30
1.000000000000000E+20
  9
$PEXTMAX
 10
-1.000000000000000E+20
 20
-1.000000000000000E+20
 30
-1.000000000000000E+20
  9
$PLIMMIN
 10
0.0
 20
0.0
  9
$PLIMMAX
 10
12.0
 20
9.0
  9
$UNITMODE
 70
     0
  9
$VISRETAIN
 70
     1
  9
$PLINEGEN
 70
     0
  9
$PSLTSCALE
 70
     1
  9
$TREEDEPTH
 70
  3020
  9
$CMLSTYLE
  2
Standard
  9
$CMLJUST
 70
     0
  9
$CMLSCALE
 40
1.0
  9
$PROXYGRAPHICS
 70
     1
  9
$MEASUREMENT
 70
     0
  9
$CELWEIGHT
370
    -1
  9
$ENDCAPS
280
     0
  9
$JOINSTYLE
280
     0
  9
$LWDISPLAY
290
     1
  9
$INSUNITS
 70
     0
  9
$HYPERLINKBASE
  1

  9
$STYLESHEET
  1

  9
$XEDIT
290
     1
  9
$CEPSNTYPE
380
     0
  9
$PSTYLEMODE
290
     1
  9
$FINGERPRINTGUID
  2
{6C8594B2-C8D1-DD4B-B9BC-996EA66A3AFA}
  9
$VERSIONGUID
  2
{762C3B01-FDA9-5F40-9FE9-6DE4C29974C3}
  9
$EXTNAMES
290
     1
  9
$PSVPSCALE
 40
0.0
  9
$OLESTARTUP
290
     0
  9
$SORTENTS
280
   127
  9
$INDEXCTL
280
     0
  9
$HIDETEXT
280
     1
  9
$XCLIPFRAME
280
     2
  9
$HALOGAP
280
     0
  9
$OBSCOLOR
 70
   257
  9
$OBSLTYPE
280
     0
  9
$INTERSECTIONDISPLAY
280
     0
  9
$INTERSECTIONCOLOR
 70
   257
  9
$DIMASSOC
280
     2
  9
$PROJECTNAME
  1

  9
$CAMERADISPLAY
290
     0
  9
$LENSLENGTH
 40
50.0
  9
$CAMERAHEIGHT
 40
0.0
  9
$STEPSPERSEC
 40
2.0
  9
$STEPSIZE
 40
6.0
  9
$3DDWFPREC
 40
2.0
  9
$PSOLWIDTH
 40
0.25
  9
$PSOLHEIGHT
 40
4.0
  9
$LOFTANG1
 40
1.570796326794896
  9
$LOFTANG2
 40
1.570796326794896
  9
$LOFTMAG1
 40
0.0
  9
$LOFTMAG2
 40
0.0
  9
$LOFTPARAM
 70
     7
  9
$LOFTNORMALS
280
     1
  9
$LATITUDE
 40
37.795
  9
$LONGITUDE
 40
-122.394
  9
$NORTHDIRECTION
 40
0.0
  9
$TIMEZONE
 70
 -8000
  9
$LIGHTGLYPHDISPLAY
280
     1
  9
$TILEMODELIGHTSYNCH
280
     1
  9
$CMATERIAL
347
11
  9
$SOLIDHIST
280
     0
  9
$SHOWHIST
280
     1
  9
$DWFFRAME
280
     2
  9
$DGNFRAME
280
     0
  9
$REALWORLDSCALE
290
     1
  9
$INTERFERECOLOR
 62
     1
  9
$INTERFEREOBJVS
345
33
  9
$INTERFEREVPVS
346
30
  9
$CSHADOW
280
     0
  9
$SHADOWPLANELOCATION
 40
0.0
  0
ENDSEC
  0
SECTION
  2
CLASSES
  0
CLASS
  1
ACDBDICTIONARYWDFLT
  2
AcDbDictionaryWithDefault
  3
ObjectDBX Classes
 90
        0
 91
        1
280
     0
281
     0
  0
CLASS
  1
MATERIAL
  2
AcDbMaterial
  3
ObjectDBX Classes
 90
     1153
 91
        3
280
     0
281
     0
  0
CLASS
  1
VISUALSTYLE
  2
AcDbVisualStyle
  3
ObjectDBX Classes
 90
     4095
 91
       24
280
     0
281
     0
  0
CLASS
  1
SCALE
  2
AcDbScale
  3
ObjectDBX Classes
 90
     1153
 91
       17
280
     0
281
     0
  0
CLASS
  1
TABLESTYLE
  2
AcDbTableStyle
  3
ObjectDBX Classes
 90
     4095
 91
        1
280
     0
281
     0
  0
CLASS
  1
MLEADERSTYLE
  2
AcDbMLeaderStyle
  3
ACDB_MLEADERSTYLE_CLASS
 90
     4095
 91
        1
280
     0
281
     0
  0
CLASS
  1
ACDBSECTIONVIEWSTYLE
  2
AcDbSectionViewStyle
  3
ObjectDBX Classes
 90
     1025
 91
        1
280
     0
281
     0
  0
CLASS
  1
ACDBDETAILVIEWSTYLE
  2
AcDbDetailViewStyle
  3
ObjectDBX Classes
 90
     1025
 91
        1
280
     0
281
     0
  0
CLASS
  1
DICTIONARYVAR
  2
AcDbDictionaryVar
  3
ObjectDBX Classes
 90
        0
 91
        5
280
     0
281
     0
  0
CLASS
  1
CELLSTYLEMAP
  2
AcDbCellStyleMap
  3
ObjectDBX Classes
 90
     1152
 91
        1
280
     0
281
     0
  0
ENDSEC
  0
SECTION
  2
TABLES
  0
TABLE
  2
VPORT
  5
8
330
0
100
AcDbSymbolTable
 70
     1
  0
VPORT
  5
57
330
8
100
AcDbSymbolTableRecord
100
AcDbViewportTableRecord
  2
*Active
 70
     0
 10
0.0
 20
0.0
 11
1.0
 21
1.0
 12
0.0
 22
0.0
 13
0.0
 23
0.0
 14
1.0
 24
1.0
 15
0.0
 25
0.0
 16
0.0
 26
0.0
 36
1.0
 17
683.0
 27
-781.5
 37
0.0
 40
1594.26
 41
0.873960332693538
 42
50.0
 43
0.0
 44
0.0
 50
0.0
 51
0.0
 71
     0
 72
   100
 73
     1
 74
     1
 75
     0
 76
     0
 77
     0
 78
     0
281
     0
 65
     1
110
0.0
120
0.0
130
0.0
111
1.0
121
0.0
131
0.0
112
0.0
122
1.0
132
0.0
 79
     0
146
0.0
 60
     3
 61
     5
292
     1
282
     1
141
0.0
142
0.0
 63
   250
421
  3355443
  0
ENDTAB
  0
TABLE
  2
LTYPE
  5
5
330
0
100
AcDbSymbolTable
 70
     1
  0
LTYPE
  5
5B
330
5
100
AcDbSymbolTableRecord
100
AcDbLinetypeTableRecord
  2
ByBlock
 70
     0
  3

 72
    65
 73
     0
 40
0.0
  0
LTYPE
  5
5C
330
5
100
AcDbSymbolTableRecord
100
AcDbLinetypeTableRecord
  2
ByLayer
 70
     0
  3

 72
    65
 73
     0
 40
0.0
  0
LTYPE
  5
5D
330
5
100
AcDbSymbolTableRecord
100
AcDbLinetypeTableRecord
  2
Continuous
 70
     0
  3
Solid line
 72
    65
 73
     0
 40
0.0
  0
ENDTAB
  0
TABLE
  2
LAYER
  5
2
330
0
100
AcDbSymbolTable
 70
     4
  0
LAYER
  5
54
330
2
100
AcDbSymbolTableRecord
100
AcDbLayerTableRecord
  2
0
 70
     0
 62
     7
  6
Continuous
370
    -3
390
F
347
21
348
0
  0
LAYER
  5
78
330
2
100
AcDbSymbolTableRecord
100
AcDbLayerTableRecord
  2
Background
 70
     4
 62
     7
  6
Continuous
370
     0
390
F
347
21
348
0
  0
LAYER
  5
7C
330
2
100
AcDbSymbolTableRecord
100
AcDbLayerTableRecord
  2
Tie Illustration
 70
     4
 62
     7
  6
Continuous
370
     0
390
F
347
21
348
0
  0
LAYER
  5
A3
330
2
100
AcDbSymbolTableRecord
100
AcDbLayerTableRecord
  2
TEXT
 70
     4
 62
     7
  6
Continuous
370
     0
390
F
347
21
348
0
  0
ENDTAB
  0
TABLE
  2
STYLE
  5
3
330
0
100
AcDbSymbolTable
 70
     2
  0
STYLE
  5
55
330
3
100
AcDbSymbolTableRecord
100
AcDbTextStyleTableRecord
  2
Standard
 70
     0
 40
0.0
 41
1.0
 50
0.0
 71
     0
 42
0.2
  3
txt
  4

  0
STYLE
  5
5A
330
3
100
AcDbSymbolTableRecord
100
AcDbTextStyleTableRecord
  2
Annotative
 70
     0
 40
0.0
 41
1.0
 50
0.0
 71
     0
 42
0.2
  3
txt
  4

1001
AcadAnnotative
1000
AnnotativeData
1002
{
1070
     1
1070
     1
1002
}
  0
ENDTAB
  0
TABLE
  2
VIEW
  5
6
330
0
100
AcDbSymbolTable
 70
     0
  0
ENDTAB
  0
TABLE
  2
UCS
  5
7
330
0
100
AcDbSymbolTable
 70
     0
  0
ENDTAB
  0
TABLE
  2
APPID
  5
9
330
0
100
AcDbSymbolTable
 70
     2
  0
APPID
  5
56
330
9
100
AcDbSymbolTableRecord
100
AcDbRegAppTableRecord
  2
ACAD
 70
     0
  0
APPID
  5
5E
330
9
100
AcDbSymbolTableRecord
100
AcDbRegAppTableRecord
  2
AcadAnnotative
 70
     0
  0
ENDTAB
  0
TABLE
  2
DIMSTYLE
  5
A
330
0
100
AcDbSymbolTable
 70
     2
100
AcDbDimStyleTable
 71
     0
  0
DIMSTYLE
105
58
330
A
100
AcDbSymbolTableRecord
100
AcDbDimStyleTableRecord
  2
Standard
 70
     0
340
55
  0
DIMSTYLE
105
59
330
A
100
AcDbSymbolTableRecord
100
AcDbDimStyleTableRecord
  2
Annotative
 70
     0
340
55
1001
AcadAnnotative
1000
AnnotativeData
1002
{
1070
     1
1070
     1
1002
}
  0
ENDTAB
  0
TABLE
  2
BLOCK_RECORD
  5
1
330
0
100
AcDbSymbolTable
 70
     1
  0
BLOCK_RECORD
  5
70
330
1
100
AcDbSymbolTableRecord
100
AcDbBlockTableRecord
  2
*Model_Space
340
73
 70
     0
280
     1
281
     0
  0
BLOCK_RECORD
  5
6C
330
1
100
AcDbSymbolTableRecord
100
AcDbBlockTableRecord
  2
*Paper_Space
340
6F
 70
     0
280
     1
281
     0
  0
BLOCK_RECORD
  5
74
330
1
100
AcDbSymbolTableRecord
100
AcDbBlockTableRecord
  2
*Paper_Space0
340
77
 70
     0
280
     1
281
     0
  0
ENDTAB
  0
ENDSEC
  0
SECTION
  2
BLOCKS
  0
BLOCK
  5
71
330
70
100
AcDbEntity
  8
0
100
AcDbBlockBegin
  2
*Model_Space
 70
     0
 10
0.0
 20
0.0
 30
0.0
  3
*Model_Space
  1

  0
ENDBLK
  5
72
330
70
100
AcDbEntity
  8
0
100
AcDbBlockEnd
  0
BLOCK
  5
6D
330
6C
100
AcDbEntity
 67
     1
  8
0
100
AcDbBlockBegin
  2
*Paper_Space
 70
     0
 10
0.0
 20
0.0
 30
0.0
  3
*Paper_Space
  1

  0
ENDBLK
  5
6E
330
6C
100
AcDbEntity
 67
     1
  8
0
100
AcDbBlockEnd
  0
BLOCK
  5
75
330
74
100
AcDbEntity
 67
     1
  8
0
100
AcDbBlockBegin
  2
*Paper_Space0
 70
     0
 10
0.0
 20
0.0
 30
0.0
  3
*Paper_Space0
  1

  0
ENDBLK
  5
76
330
74
100
AcDbEntity
 67
     1
  8
0
100
AcDbBlockEnd
  0
ENDSEC
  0
SECTION
  2
ENTITIES
  0
LWPOLYLINE
  5
79
330
70
100
AcDbEntity
  8
Background
100
AcDbPolyline
 90
        4
 70
     1
 43
0.0
 10
1366.0
 20
-768.0
 10
0.0
 20
-768.0
 10
0.0
 20
0.0
 10
1366.0
 20
0.0
  0
LWPOLYLINE
  5
7A
330
70
100
AcDbEntity
  8
Background
100
AcDbPolyline
 90
        4
 70
     1
 43
0.0
 10
1366.0
 20
-1563.0
 10
0.0
 20
-1563.0
 10
0.0
 20
-795.0
 10
1366.0
 20
-795.0
  0
HATCH
  5
7B
330
70
100
AcDbEntity
  8
Background
 62
    18
420
        0
440
 33554687
100
AcDbHatch
 10
0.0
 20
0.0
 30
0.0
210
0.0
220
0.0
230
1.0
  2
SOLID
 70
     1
 71
     1
 91
        1
 92
        1
 93
        4
 72
     1
 10
1366.0
 20
-1563.0
 11
0.0
 21
-1563.0
 72
     1
 10
0.0
 20
-1563.0
 11
0.0
 21
-795.0
 72
     1
 10
0.0
 20
-795.0
 11
1366.0
 21
-795.0
 72
     1
 10
1366.0
 20
-795.0
 11
1366.0
 21
-1563.0
 97
        1
330
7A
 75
     2
 76
     1
 98
        1
 10
0.0
 20
0.0
450
        0
451
        0
460
0.0
461
0.0
452
        0
462
0.0
453
        0
470

  0
SPLINE
  5
7D
330
70
100
AcDbEntity
  8
Tie Illustration
100
AcDbSpline
210
0.0
220
0.0
230
1.0
 70
     9
 71
     3
 72
    26
 73
    22
 74
     0
 42
0.0000000001
 43
0.0000000001
 40
0.0
 40
0.0
 40
0.0
 40
0.0
 40
1.0
 40
1.0
 40
1.0
 40
2.0
 40
2.0
 40
2.0
 40
3.0
 40
3.0
 40
3.0
 40
4.0
 40
4.0
 40
4.0
 40
5.0
 40
5.0
 40
5.0
 40
6.0
 40
6.0
 40
6.0
 40
7.0
 40
7.0
 40
7.0
 40
7.0
 10
628.9180908203125
 20
-301.5648498535156
 30
0.0
 10
624.6555175781249
 20
-301.5648498535156
 30
0.0
 10
620.3929443359375
 20
-301.5648498535156
 30
0.0
 10
616.1302490234374
 20
-301.5648498535156
 30
0.0
 10
613.7937622070312
 20
-306.898193359375
 30
0.0
 10
611.4573364257812
 20
-312.2315063476563
 30
0.0
 10
609.120849609375
 20
-317.5648498535156
 30
0.0
 10
609.120849609375
 20
-346.2315063476562
 30
0.0
 10
609.120849609375
 20
-374.898193359375
 30
0.0
 10
609.120849609375
 20
-403.5648498535156
 30
0.0
 10
613.9394531249999
 20
-408.5648498535156
 30
0.0
 10
618.758056640625
 20
-413.5648498535156
 30
0.0
 10
623.5767211914062
 20
-418.5648498535156
 30
0.0
 10
628.0510864257812
 20
-413.5648498535156
 30
0.0
 10
632.5255737304687
 20
-408.5648498535156
 30
0.0
 10
637.0
 20
-403.5648498535156
 30
0.0
 10
636.6558227539062
 20
-374.898193359375
 30
0.0
 10
636.3115844726562
 20
-346.2315063476562
 30
0.0
 10
635.9674682617187
 20
-317.5648498535156
 30
0.0
 10
633.6176147460937
 20
-312.2315063476563
 30
0.0
 10
631.2678833007812
 20
-306.898193359375
 30
0.0
 10
628.9180908203125
 20
-301.5648498535156
 30
0.0
  0
HATCH
  5
7E
330
70
100
AcDbEntity
  8
Tie Illustration
 62
   250
420
  1118480
440
 33554687
100
AcDbHatch
 10
0.0
 20
0.0
 30
0.0
210
0.0
220
0.0
230
1.0
  2
SOLID
 70
     1
 71
     1
 91
        1
 92
        1
 93
        1
 72
     4
 94
        3
 73
     0
 74
     0
 95
       26
 96
       22
 40
0.0
 40
0.0
 40
0.0
 40
0.0
 40
1.0
 40
1.0
 40
1.0
 40
2.0
 40
2.0
 40
2.0
 40
3.0
 40
3.0
 40
3.0
 40
4.0
 40
4.0
 40
4.0
 40
5.0
 40
5.0
 40
5.0
 40
6.0
 40
6.0
 40
6.0
 40
7.0
 40
7.0
 40
7.0
 40
7.0
 10
628.9180908203125
 20
-301.5648498535156
 10
624.6555175781249
 20
-301.5648498535156
 10
620.3929443359375
 20
-301.5648498535156
 10
616.1302490234374
 20
-301.5648498535156
 10
613.7937622070312
 20
-306.898193359375
 10
611.4573364257812
 20
-312.2315063476563
 10
609.120849609375
 20
-317.5648498535156
 10
609.120849609375
 20
-346.2315063476562
 10
609.120849609375
 20
-374.898193359375
 10
609.120849609375
 20
-403.5648498535156
 10
613.9394531249999
 20
-408.5648498535156
 10
618.758056640625
 20
-413.5648498535156
 10
623.5767211914062
 20
-418.5648498535156
 10
628.0510864257812
 20
-413.5648498535156
 10
632.5255737304687
 20
-408.5648498535156
 10
637.0
 20
-403.5648498535156
 10
636.6558227539062
 20
-374.898193359375
 10
636.3115844726562
 20
-346.2315063476562
 10
635.9674682617187
 20
-317.5648498535156
 10
633.6176147460937
 20
-312.2315063476563
 10
631.2678833007812
 20
-306.898193359375
 10
628.9180908203125
 20
-301.5648498535156
 97
        0
 97
        1
330
7D
 75
     2
 76
     1
 98
        1
 10
0.0
 20
0.0
450
        0
451
        0
460
0.0
461
0.0
452
        0
462
0.0
453
        0
470

  0
SPLINE
  5
7F
330
70
100
AcDbEntity
  8
Tie Illustration
100
AcDbSpline
210
0.0
220
0.0
230
1.0
 70
     9
 71
     3
 72
    17
 73
    13
 74
     0
 42
0.0000000001
 43
0.0000000001
 40
0.0
 40
0.0
 40
0.0
 40
0.0
 40
1.0
 40
1.0
 40
1.0
 40
2.0
 40
2.0
 40
2.0
 40
3.0
 40
3.0
 40
3.0
 40
4.0
 40
4.0
 40
4.0
 40
4.0
 10
636.0
 20
-322.0
 30
0.0
 10
627.3333129882812
 20
-325.3333435058594
 30
0.0
 10
618.6666870117187
 20
-328.6666564941406
 30
0.0
 10
610.0
 20
-332.0
 30
0.0
 10
610.0
 20
-327.6666564941406
 30
0.0
 10
610.0
 20
-323.3333435058594
 30
0.0
 10
610.0
 20
-319.0
 30
0.0
 10
617.3333129882812
 20
-316.0
 30
0.0
 10
624.6666870117187
 20
-313.0
 30
0.0
 10
632.0
 20
-310.0
 30
0.0
 10
633.3333129882812
 20
-314.0
 30
0.0
 10
634.6666870117187
 20
-318.0
 30
0.0
 10
636.0
 20
-322.0
 30
0.0
  0
HATCH
  5
80
330
70
100
AcDbEntity
  8
Tie Illustration
 62
     2
420
 16769838
440
 33554687
100
AcDbHatch
 10
0.0
 20
0.0
 30
0.0
210
0.0
220
0.0
230
1.0
  2
SOLID
 70
     1
 71
     1
 91
        1
 92
        1
 93
        1
 72
     4
 94
        3
 73
     0
 74
     0
 95
       17
 96
       13
 40
0.0
 40
0.0
 40
0.0
 40
0.0
 40
1.0
 40
1.0
 40
1.0
 40
2.0
 40
2.0
 40
2.0
 40
3.0
 40
3.0
 40
3.0
 40
4.0
 40
4.0
 40
4.0
 40
4.0
 10
636.0
 20
-322.0
 10
627.3333129882812
 20
-325.3333435058594
 10
618.6666870117187
 20
-328.6666564941406
 10
610.0
 20
-332.0
 10
610.0
 20
-327.6666564941406
 10
610.0
 20
-323.3333435058594
 10
610.0
 20
-319.0
 10
617.3333129882812
 20
-316.0
 10
624.6666870117187
 20
-313.0
 10
632.0
 20
-310.0
 10
633.3333129882812
 20
-314.0
 10
634.6666870117187
 20
-318.0
 10
636.0
 20
-322.0
 97
        0
 97
        1
330
7F
 75
     2
 76
     1
 98
        1
 10
0.0
 20
0.0
450
        0
451
        0
460
0.0
461
0.0
452
        0
462
0.0
453
        0
470

  0
SPLINE
  5
81
330
70
100
AcDbEntity
  8
Tie Illustration
100
AcDbSpline
210
0.0
220
0.0
230
1.0
 70
     9
 71
     3
 72
    17
 73
    13
 74
     0
 42
0.0000000001
 43
0.0000000001
 40
0.0
 40
0.0
 40
0.0
 40
0.0
 40
1.0
 40
1.0
 40
1.0
 40
2.0
 40
2.0
 40
2.0
 40
3.0
 40
3.0
 40
3.0
 40
4.0
 40
4.0
 40
4.0
 40
4.0
 10
635.0
 20
-348.0
 30
0.0
 10
626.0
 20
-351.3262329101562
 30
0.0
 10
617.0
 20
-354.6524963378906
 30
0.0
 10
608.0
 20
-357.9787292480469
 30
0.0
 10
608.0
 20
-353.6453857421875
 30
0.0
 10
608.0
 20
-349.3120727539062
 30
0.0
 10
608.0
 20
-344.9787292480469
 30
0.0
 10
616.6666870117187
 20
-341.3191528320313
 30
0.0
 10
625.3333129882812
 20
-337.6595764160156
 30
0.0
 10
634.0
 20
-334.0
 30
0.0
 10
634.3333129882812
 20
-338.6666564941406
 30
0.0
 10
634.6666870117187
 20
-343.3333435058594
 30
0.0
 10
635.0
 20
-348.0
 30
0.0
  0
HATCH
  5
82
330
70
100
AcDbEntity
  8
Tie Illustration
 62
     2
420
 16769838
440
 33554687
100
AcDbHatch
 10
0.0
 20
0.0
 30
0.0
210
0.0
220
0.0
230
1.0
  2
SOLID
 70
     1
 71
     1
 91
        1
 92
        1
 93
        1
 72
     4
 94
        3
 73
     0
 74
     0
 95
       17
 96
       13
 40
0.0
 40
0.0
 40
0.0
 40
0.0
 40
1.0
 40
1.0
 40
1.0
 40
2.0
 40
2.0
 40
2.0
 40
3.0
 40
3.0
 40
3.0
 40
4.0
 40
4.0
 40
4.0
 40
4.0
 10
635.0
 20
-348.0
 10
626.0
 20
-351.3262329101562
 10
617.0
 20
-354.6524963378906
 10
608.0
 20
-357.9787292480469
 10
608.0
 20
-353.6453857421875
 10
608.0
 20
-349.3120727539062
 10
608.0
 20
-344.9787292480469
 10
616.6666870117187
 20
-341.3191528320313
 10
625.3333129882812
 20
-337.6595764160156
 10
634.0
 20
-334.0
 10
634.3333129882812
 20
-338.6666564941406
 10
634.6666870117187
 20
-343.3333435058594
 10
635.0
 20
-348.0
 97
        0
 97
        1
330
81
 75
     2
 76
     1
 98
        1
 10
0.0
 20
0.0
450
        0
451
        0
460
0.0
461
0.0
452
        0
462
0.0
453
        0
470

  0
SPLINE
  5
83
330
70
100
AcDbEntity
  8
Tie Illustration
100
AcDbSpline
210
0.0
220
0.0
230
1.0
 70
     9
 71
     3
 72
    17
 73
    13
 74
     0
 42
0.0000000001
 43
0.0000000001
 40
0.0
 40
0.0
 40
0.0
 40
0.0
 40
1.0
 40
1.0
 40
1.0
 40
2.0
 40
2.0
 40
2.0
 40
3.0
 40
3.0
 40
3.0
 40
4.0
 40
4.0
 40
4.0
 40
4.0
 10
636.0
 20
-373.0744651632067
 30
0.0
 10
627.0
 20
-376.400698073363
 30
0.0
 10
618.0
 20
-379.7269615010973
 30
0.0
 10
609.0
 20
-383.0531944112536
 30
0.0
 10
609.0
 20
-378.7198509053942
 30
0.0
 10
609.0
 20
-374.386537917113
 30
0.0
 10
609.0
 20
-370.0531944112536
 30
0.0
 10
617.6666870117188
 20
-366.393617995238
 30
0.0
 10
626.3333129882812
 20
-362.7340415792223
 30
0.0
 10
635.0
 20
-359.0744651632067
 30
0.0
 10
635.3333129882813
 20
-363.7411216573473
 30
0.0
 10
635.6666870117187
 20
-368.4078086690661
 30
0.0
 10
636.0
 20
-373.0744651632067
 30
0.0
  0
HATCH
  5
84
330
70
100
AcDbEntity
  8
Tie Illustration
 62
     2
420
 16769838
440
 33554687
100
AcDbHatch
 10
0.0
 20
0.0
 30
0.0
210
0.0
220
0.0
230
1.0
  2
SOLID
 70
     1
 71
     1
 91
        1
 92
        1
 93
        1
 72
     4
 94
        3
 73
     0
 74
     0
 95
       17
 96
       13
 40
0.0
 40
0.0
 40
0.0
 40
0.0
 40
1.0
 40
1.0
 40
1.0
 40
2.0
 40
2.0
 40
2.0
 40
3.0
 40
3.0
 40
3.0
 40
4.0
 40
4.0
 40
4.0
 40
4.0
 10
636.0
 20
-373.0744651632067
 10
627.0
 20
-376.400698073363
 10
618.0
 20
-379.7269615010973
 10
609.0
 20
-383.0531944112536
 10
609.0
 20
-378.7198509053942
 10
609.0
 20
-374.386537917113
 10
609.0
 20
-370.0531944112536
 10
617.6666870117188
 20
-366.393617995238
 10
626.3333129882812
 20
-362.7340415792223
 10
635.0
 20
-359.0744651632067
 10
635.3333129882813
 20
-363.7411216573473
 10
635.6666870117187
 20
-368.4078086690661
 10
636.0
 20
-373.0744651632067
 97
        0
 97
        1
330
83
 75
     2
 76
     1
 98
        1
 10
0.0
 20
0.0
450
        0
451
        0
460
0.0
461
0.0
452
        0
462
0.0
453
        0
470

  0
SPLINE
  5
85
330
70
100
AcDbEntity
  8
Tie Illustration
100
AcDbSpline
210
0.0
220
0.0
230
1.0
 70
     9
 71
     3
 72
    20
 73
    16
 74
     0
 42
0.0000000001
 43
0.0000000001
 40
0.0
 40
0.0
 40
0.0
 40
0.0
 40
1.0
 40
1.0
 40
1.0
 40
2.0
 40
2.0
 40
2.0
 40
3.0
 40
3.0
 40
3.0
 40
4.0
 40
4.0
 40
4.0
 40
5.0
 40
5.0
 40
5.0
 40
5.0
 10
637.0
 20
-398.0
 30
0.0
 10
629.3333129882812
 20
-401.6666564941406
 30
0.0
 10
621.6666870117187
 20
-405.3333435058593
 30
0.0
 10
614.0
 20
-409.0
 30
0.0
 10
612.6666870117187
 20
-407.3333435058593
 30
0.0
 10
611.3333129882812
 20
-405.6666564941406
 30
0.0
 10
610.0
 20
-404.0
 30
0.0
 10
610.0
 20
-401.3333435058593
 30
0.0
 10
610.0
 20
-398.6666564941406
 30
0.0
 10
610.0
 20
-396.0
 30
0.0
 10
619.0
 20
-392.358154296875
 30
0.0
 10
628.0
 20
-388.71630859375
 30
0.0
 10
637.0
 20
-385.074462890625
 30
0.0
 10
637.0
 20
-389.3829650878906
 30
0.0
 10
637.0
 20
-393.6914978027344
 30
0.0
 10
637.0
 20
-398.0
 30
0.0
  0
HATCH
  5
86
330
70
100
AcDbEntity
  8
Tie Illustration
 62
     2
420
 16769838
440
 33554687
100
AcDbHatch
 10
0.0
 20
0.0
 30
0.0
210
0.0
220
0.0
230
1.0
  2
SOLID
 70
     1
 71
     1
 91
        1
 92
        1
 93
        1
 72
     4
 94
        3
 73
     0
 74
     0
 95
       20
 96
       16
 40
0.0
 40
0.0
 40
0.0
 40
0.0
 40
1.0
 40
1.0
 40
1.0
 40
2.0
 40
2.0
 40
2.0
 40
3.0
 40
3.0
 40
3.0
 40
4.0
 40
4.0
 40
4.0
 40
5.0
 40
5.0
 40
5.0
 40
5.0
 10
637.0
 20
-398.0
 10
629.3333129882812
 20
-401.6666564941406
 10
621.6666870117187
 20
-405.3333435058593
 10
614.0
 20
-409.0
 10
612.6666870117187
 20
-407.3333435058593
 10
611.3333129882812
 20
-405.6666564941406
 10
610.0
 20
-404.0
 10
610.0
 20
-401.3333435058593
 10
610.0
 20
-398.6666564941406
 10
610.0
 20
-396.0
 10
619.0
 20
-392.358154296875
 10
628.0
 20
-388.71630859375
 10
637.0
 20
-385.074462890625
 10
637.0
 20
-389.3829650878906
 10
637.0
 20
-393.6914978027344
 10
637.0
 20
-398.0
 97
        0
 97
        1
330
85
 75
     2
 76
     1
 98
        1
 10
0.0
 20
0.0
450
        0
451
        0
460
0.0
461
0.0
452
        0
462
0.0
453
        0
470

  0
SPLINE
  5
87
330
70
100
AcDbEntity
  8
Tie Illustration
100
AcDbSpline
210
0.0
220
0.0
230
1.0
 70
     9
 71
     3
 72
    17
 73
    13
 74
     0
 42
0.0000000001
 43
0.0000000001
 40
0.0
 40
0.0
 40
0.0
 40
0.0
 40
1.0
 40
1.0
 40
1.0
 40
2.0
 40
2.0
 40
2.0
 40
3.0
 40
3.0
 40
3.0
 40
4.0
 40
4.0
 40
4.0
 40
4.0
 10
629.3936170212764
 20
-298.0
 30
0.0
 10
625.3936170212764
 20
-298.0
 30
0.0
 10
621.3936170212764
 20
-298.0
 30
0.0
 10
617.3936170212764
 20
-298.0
 30
0.0
 10
614.3936170212764
 20
-290.6666564941406
 30
0.0
 10
611.3936170212764
 20
-283.3333435058594
 30
0.0
 10
608.3936170212764
 20
-276.0
 30
0.0
 10
618.0603040329952
 20
-276.0
 30
0.0
 10
627.7269300095577
 20
-276.0
 30
0.0
 10
637.3936170212764
 20
-276.0
 30
0.0
 10
634.7269300095576
 20
-283.3333435058594
 30
0.0
 10
632.0603040329952
 20
-290.6666564941406
 30
0.0
 10
629.3936170212764
 20
-298.0
 30
0.0
  0
HATCH
  5
88
330
70
100
AcDbEntity
  8
Tie Illustration
 62
   250
420
  1118480
440
 33554687
100
AcDbHatch
 10
0.0
 20
0.0
 30
0.0
210
0.0
220
0.0
230
1.0
  2
SOLID
 70
     1
 71
     1
 91
        1
 92
        1
 93
        1
 72
     4
 94
        3
 73
     0
 74
     0
 95
       17
 96
       13
 40
0.0
 40
0.0
 40
0.0
 40
0.0
 40
1.0
 40
1.0
 40
1.0
 40
2.0
 40
2.0
 40
2.0
 40
3.0
 40
3.0
 40
3.0
 40
4.0
 40
4.0
 40
4.0
 40
4.0
 10
629.3936170212764
 20
-298.0
 10
625.3936170212764
 20
-298.0
 10
621.3936170212764
 20
-298.0
 10
617.3936170212764
 20
-298.0
 10
614.3936170212764
 20
-290.6666564941406
 10
611.3936170212764
 20
-283.3333435058594
 10
608.3936170212764
 20
-276.0
 10
618.0603040329952
 20
-276.0
 10
627.7269300095577
 20
-276.0
 10
637.3936170212764
 20
-276.0
 10
634.7269300095576
 20
-283.3333435058594
 10
632.0603040329952
 20
-290.6666564941406
 10
629.3936170212764
 20
-298.0
 97
        0
 97
        1
330
87
 75
     2
 76
     1
 98
        1
 10
0.0
 20
0.0
450
        0
451
        0
460
0.0
461
0.0
452
        0
462
0.0
453
        0
470

  0
SPLINE
  5
89
330
70
100
AcDbEntity
  8
Tie Illustration
100
AcDbSpline
210
0.0
220
0.0
230
1.0
 70
     9
 71
     3
 72
    20
 73
    16
 74
     0
 42
0.0000000001
 43
0.0000000001
 40
0.0
 40
0.0
 40
0.0
 40
0.0
 40
1.0
 40
1.0
 40
1.0
 40
2.0
 40
2.0
 40
2.0
 40
3.0
 40
3.0
 40
3.0
 40
4.0
 40
4.0
 40
4.0
 40
5.0
 40
5.0
 40
5.0
 40
5.0
 10
610.2978723404248
 20
-286.0
 30
0.0
 10
615.2827356216748
 20
-283.3333435058594
 30
0.0
 10
620.2675378677686
 20
-280.6666564941406
 30
0.0
 10
625.2524011490186
 20
-278.0
 30
0.0
 10
628.9342248794874
 20
-278.0
 30
0.0
 10
632.6160486099561
 20
-278.0
 30
0.0
 10
636.2978723404248
 20
-278.0
 30
0.0
 10
634.9645593521436
 20
-280.6666564941406
 30
0.0
 10
633.6311853287061
 20
-283.3333435058594
 30
0.0
 10
632.2978723404248
 20
-286.0
 30
0.0
 10
626.2978723404248
 20
-289.3333435058594
 30
0.0
 10
620.2978723404249
 20
-292.6666564941406
 30
0.0
 10
614.2978723404248
 20
-296.0
 30
0.0
 10
612.9645593521436
 20
-292.6666564941406
 30
0.0
 10
611.6311853287061
 20
-289.3333435058594
 30
0.0
 10
610.2978723404248
 20
-286.0
 30
0.0
  0
HATCH
  5
8A
330
70
100
AcDbEntity
  8
Tie Illustration
 62
     2
420
 16769838
440
 33554687
100
AcDbHatch
 10
0.0
 20
0.0
 30
0.0
210
0.0
220
0.0
230
1.0
  2
SOLID
 70
     1
 71
     1
 91
        1
 92
        1
 93
        1
 72
     4
 94
        3
 73
     0
 74
     0
 95
       20
 96
       16
 40
0.0
 40
0.0
 40
0.0
 40
0.0
 40
1.0
 40
1.0
 40
1.0
 40
2.0
 40
2.0
 40
2.0
 40
3.0
 40
3.0
 40
3.0
 40
4.0
 40
4.0
 40
4.0
 40
5.0
 40
5.0
 40
5.0
 40
5.0
 10
610.2978723404248
 20
-286.0
 10
615.2827356216748
 20
-283.3333435058594
 10
620.2675378677686
 20
-280.6666564941406
 10
625.2524011490186
 20
-278.0
 10
628.9342248794874
 20
-278.0
 10
632.6160486099561
 20
-278.0
 10
636.2978723404248
 20
-278.0
 10
634.9645593521436
 20
-280.6666564941406
 10
633.6311853287061
 20
-283.3333435058594
 10
632.2978723404248
 20
-286.0
 10
626.2978723404248
 20
-289.3333435058594
 10
620.2978723404249
 20
-292.6666564941406
 10
614.2978723404248
 20
-296.0
 10
612.9645593521436
 20
-292.6666564941406
 10
611.6311853287061
 20
-289.3333435058594
 10
610.2978723404248
 20
-286.0
 97
        0
 97
        1
330
89
 75
     2
 76
     1
 98
        1
 10
0.0
 20
0.0
450
        0
451
        0
460
0.0
461
0.0
452
        0
462
0.0
453
        0
470

  0
SPLINE
  5
8B
330
70
100
AcDbEntity
  8
Tie Illustration
 62
    18
420
        0
370
   106
100
AcDbSpline
210
0.0
220
0.0
230
1.0
 70
     9
 71
     3
 72
    17
 73
    13
 74
     0
 42
0.0000000001
 43
0.0000000001
 40
0.0
 40
0.0
 40
0.0
 40
0.0
 40
1.0
 40
1.0
 40
1.0
 40
2.0
 40
2.0
 40
2.0
 40
3.0
 40
3.0
 40
3.0
 40
4.0
 40
4.0
 40
4.0
 40
4.0
 10
628.8442443158128
 20
-297.8414404174
 30
0.0
 10
624.8442443158128
 20
-297.8414404174
 30
0.0
 10
620.8442443158128
 20
-297.8414404174
 30
0.0
 10
616.8442443158128
 20
-297.8414404174
 30
0.0
 10
613.8442443158128
 20
-290.5080969115406
 30
0.0
 10
610.8442443158128
 20
-283.1747839232594
 30
0.0
 10
607.8442443158128
 20
-275.8414404174
 30
0.0
 10
617.5109313275315
 20
-275.8414404174
 30
0.0
 10
627.177557304094
 20
-275.8414404174
 30
0.0
 10
636.8442443158128
 20
-275.8414404174
 30
0.0
 10
634.1775573040941
 20
-283.1747839232594
 30
0.0
 10
631.5109313275315
 20
-290.5080969115406
 30
0.0
 10
628.8442443158128
 20
-297.8414404174
 30
0.0
  0
SPLINE
  5
8C
330
70
100
AcDbEntity
  8
Tie Illustration
 62
    18
420
        0
370
   106
100
AcDbSpline
210
0.0
220
0.0
230
1.0
 70
     9
 71
     3
 72
    26
 73
    22
 74
     0
 42
0.0000000001
 43
0.0000000001
 40
0.0
 40
0.0
 40
0.0
 40
0.0
 40
1.0
 40
1.0
 40
1.0
 40
2.0
 40
2.0
 40
2.0
 40
3.0
 40
3.0
 40
3.0
 40
4.0
 40
4.0
 40
4.0
 40
5.0
 40
5.0
 40
5.0
 40
6.0
 40
6.0
 40
6.0
 40
7.0
 40
7.0
 40
7.0
 40
7.0
 10
628.8442443158128
 20
-300.8414404174
 30
0.0
 10
624.8442443158128
 20
-300.8414404174
 30
0.0
 10
620.8442443158128
 20
-300.8414404174
 30
0.0
 10
616.8442443158128
 20
-300.8414404174
 30
0.0
 10
614.5109313275315
 20
-306.1747839232594
 30
0.0
 10
612.1775573040941
 20
-311.5080969115406
 30
0.0
 10
609.8442443158128
 20
-316.8414404174
 30
0.0
 10
609.8442443158128
 20
-345.5080969115406
 30
0.0
 10
609.8442443158128
 20
-374.1747839232594
 30
0.0
 10
609.8442443158128
 20
-402.8414404173999
 30
0.0
 10
614.5109313275315
 20
-407.8414404174
 30
0.0
 10
619.177557304094
 20
-412.8414404174
 30
0.0
 10
623.8442443158128
 20
-417.8414404174
 30
0.0
 10
628.177557304094
 20
-412.8414404174
 30
0.0
 10
632.5109313275316
 20
-407.8414404174
 30
0.0
 10
636.8442443158128
 20
-402.8414404173999
 30
0.0
 10
636.5109313275316
 20
-374.1747839232594
 30
0.0
 10
636.177557304094
 20
-345.5080969115406
 30
0.0
 10
635.8442443158128
 20
-316.8414404174
 30
0.0
 10
633.5109313275316
 20
-311.5080969115406
 30
0.0
 10
631.177557304094
 20
-306.1747839232594
 30
0.0
 10
628.8442443158128
 20
-300.8414404174
 30
0.0
  0
SPLINE
  5
8D
330
70
100
AcDbEntity
  8
Tie Illustration
100
AcDbSpline
210
0.0
220
0.0
230
1.0
 70
     9
 71
     3
 72
    17
 73
    13
 74
     0
 42
0.0000000001
 43
0.0000000001
 40
0.0
 40
0.0
 40
0.0
 40
0.0
 40
1.0
 40
1.0
 40
1.0
 40
2.0
 40
2.0
 40
2.0
 40
3.0
 40
3.0
 40
3.0
 40
4.0
 40
4.0
 40
4.0
 40
4.0
 10
633.1617649100226
 20
-1092.522291481229
 30
0.0
 10
629.1617649100226
 20
-1092.522291481229
 30
0.0
 10
625.1617649100226
 20
-1092.522291481229
 30
0.0
 10
621.1617649100226
 20
-1092.522291481229
 30
0.0
 10
618.1617649100235
 20
-1085.18894797537
 30
0.0
 10
615.1617649100235
 20
-1077.855634987089
 30
0.0
 10
612.1617649100235
 20
-1070.522291481229
 30
0.0
 10
621.8284519217413
 20
-1070.522291481229
 30
0.0
 10
631.4950778983038
 20
-1070.522291481229
 30
0.0
 10
641.1617649100226
 20
-1070.522291481229
 30
0.0
 10
638.4950778983038
 20
-1077.855634987089
 30
0.0
 10
635.8284519217413
 20
-1085.18894797537
 30
0.0
 10
633.1617649100226
 20
-1092.522291481229
 30
0.0
  0
HATCH
  5
8E
330
70
100
AcDbEntity
  8
Tie Illustration
 62
   250
420
  1118480
440
 33554687
100
AcDbHatch
 10
0.0
 20
0.0
 30
0.0
210
0.0
220
0.0
230
1.0
  2
SOLID
 70
     1
 71
     1
 91
        1
 92
        1
 93
        1
 72
     4
 94
        3
 73
     0
 74
     0
 95
       17
 96
       13
 40
0.0
 40
0.0
 40
0.0
 40
0.0
 40
1.0
 40
1.0
 40
1.0
 40
2.0
 40
2.0
 40
2.0
 40
3.0
 40
3.0
 40
3.0
 40
4.0
 40
4.0
 40
4.0
 40
4.0
 10
633.1617649100226
 20
-1092.522291481229
 10
629.1617649100226
 20
-1092.522291481229
 10
625.1617649100226
 20
-1092.522291481229
 10
621.1617649100226
 20
-1092.522291481229
 10
618.1617649100235
 20
-1085.18894797537
 10
615.1617649100235
 20
-1077.855634987089
 10
612.1617649100235
 20
-1070.522291481229
 10
621.8284519217413
 20
-1070.522291481229
 10
631.4950778983038
 20
-1070.522291481229
 10
641.1617649100226
 20
-1070.522291481229
 10
638.4950778983038
 20
-1077.855634987089
 10
635.8284519217413
 20
-1085.18894797537
 10
633.1617649100226
 20
-1092.522291481229
 97
        0
 97
        1
330
8D
 75
     2
 76
     1
 98
        1
 10
0.0
 20
0.0
450
        0
451
        0
460
0.0
461
0.0
452
        0
462
0.0
453
        0
470

  0
SPLINE
  5
8F
330
70
100
AcDbEntity
  8
Tie Illustration
100
AcDbSpline
210
0.0
220
0.0
230
1.0
 70
     9
 71
     3
 72
    26
 73
    22
 74
     0
 42
0.0000000001
 43
0.0000000001
 40
0.0
 40
0.0
 40
0.0
 40
0.0
 40
1.0
 40
1.0
 40
1.0
 40
2.0
 40
2.0
 40
2.0
 40
3.0
 40
3.0
 40
3.0
 40
4.0
 40
4.0
 40
4.0
 40
5.0
 40
5.0
 40
5.0
 40
6.0
 40
6.0
 40
6.0
 40
7.0
 40
7.0
 40
7.0
 40
7.0
 10
632.9590389257682
 20
-1094.587136153946
 30
0.0
 10
628.6964456512359
 20
-1094.587136153946
 30
0.0
 10
624.4338523767037
 20
-1094.587136153946
 30
0.0
 10
620.1711960796201
 20
-1094.587136153946
 30
0.0
 10
617.8346980155701
 20
-1099.920479659806
 30
0.0
 10
615.4982629740725
 20
-1105.253792648087
 30
0.0
 10
613.1617649100235
 20
-1110.587136153946
 30
0.0
 10
613.1617649100235
 20
-1139.253792648087
 30
0.0
 10
613.1617649100235
 20
-1167.920479659806
 30
0.0
 10
613.1617649100235
 20
-1196.587136153946
 30
0.0
 10
617.980406153998
 20
-1201.587136153946
 30
0.0
 10
622.7989843754222
 20
-1206.587136153946
 30
0.0
 10
627.6176256193975
 20
-1211.587136153946
 30
0.0
 10
632.0920376885915
 20
-1206.587136153946
 30
0.0
 10
636.5665127803367
 20
-1201.587136153946
 30
0.0
 10
641.0409248495307
 20
-1196.587136153946
 30
0.0
 10
640.6967586973005
 20
-1167.920479659806
 30
0.0
 10
640.352529522519
 20
-1139.253792648087
 30
0.0
 10
640.0083633702888
 20
-1110.587136153946
 30
0.0
 10
637.6585675479327
 20
-1105.253792648087
 30
0.0
 10
635.3088347481243
 20
-1099.920479659806
 30
0.0
 10
632.9590389257682
 20
-1094.587136153946
 30
0.0
  0
HATCH
  5
90
330
70
100
AcDbEntity
  8
Tie Illustration
 62
   250
420
  1118480
440
 33554687
100
AcDbHatch
 10
0.0
 20
0.0
 30
0.0
210
0.0
220
0.0
230
1.0
  2
SOLID
 70
     1
 71
     1
 91
        1
 92
        1
 93
        1
 72
     4
 94
        3
 73
     0
 74
     0
 95
       26
 96
       22
 40
0.0
 40
0.0
 40
0.0
 40
0.0
 40
1.0
 40
1.0
 40
1.0
 40
2.0
 40
2.0
 40
2.0
 40
3.0
 40
3.0
 40
3.0
 40
4.0
 40
4.0
 40
4.0
 40
5.0
 40
5.0
 40
5.0
 40
6.0
 40
6.0
 40
6.0
 40
7.0
 40
7.0
 40
7.0
 40
7.0
 10
632.9590389257682
 20
-1094.587136153946
 10
628.6964456512359
 20
-1094.587136153946
 10
624.4338523767037
 20
-1094.587136153946
 10
620.1711960796201
 20
-1094.587136153946
 10
617.8346980155701
 20
-1099.920479659806
 10
615.4982629740725
 20
-1105.253792648087
 10
613.1617649100235
 20
-1110.587136153946
 10
613.1617649100235
 20
-1139.253792648087
 10
613.1617649100235
 20
-1167.920479659806
 10
613.1617649100235
 20
-1196.587136153946
 10
617.980406153998
 20
-1201.587136153946
 10
622.7989843754222
 20
-1206.587136153946
 10
627.6176256193975
 20
-1211.587136153946
 10
632.0920376885915
 20
-1206.587136153946
 10
636.5665127803367
 20
-1201.587136153946
 10
641.0409248495307
 20
-1196.587136153946
 10
640.6967586973005
 20
-1167.920479659806
 10
640.352529522519
 20
-1139.253792648087
 10
640.0083633702888
 20
-1110.587136153946
 10
637.6585675479327
 20
-1105.253792648087
 10
635.3088347481243
 20
-1099.920479659806
 10
632.9590389257682
 20
-1094.587136153946
 97
        0
 97
        1
330
8F
 75
     2
 76
     1
 98
        1
 10
0.0
 20
0.0
450
        0
451
        0
460
0.0
461
0.0
452
        0
462
0.0
453
        0
470

  0
SPLINE
  5
91
330
70
100
AcDbEntity
  8
Tie Illustration
100
AcDbSpline
210
0.0
220
0.0
230
1.0
 70
     9
 71
     3
 72
    17
 73
    13
 74
     0
 42
0.0000000001
 43
0.0000000001
 40
0.0
 40
0.0
 40
0.0
 40
0.0
 40
1.0
 40
1.0
 40
1.0
 40
2.0
 40
2.0
 40
2.0
 40
3.0
 40
3.0
 40
3.0
 40
4.0
 40
4.0
 40
4.0
 40
4.0
 10
640.0409248495307
 20
-1115.022291481229
 30
0.0
 10
631.3742378378119
 20
-1118.355634987088
 30
0.0
 10
622.7076118612494
 20
-1121.68894797537
 30
0.0
 10
614.0409248495298
 20
-1125.022291481229
 30
0.0
 10
614.0409248495298
 20
-1120.68894797537
 30
0.0
 10
614.0409248495298
 20
-1116.355634987089
 30
0.0
 10
614.0409248495298
 20
-1112.022291481229
 30
0.0
 10
621.3742378378119
 20
-1109.022291481229
 30
0.0
 10
628.7076118612494
 20
-1106.022291481229
 30
0.0
 10
636.0409248495307
 20
-1103.022291481229
 30
0.0
 10
637.3742378378119
 20
-1107.022291481229
 30
0.0
 10
638.7076118612494
 20
-1111.022291481229
 30
0.0
 10
640.0409248495307
 20
-1115.022291481229
 30
0.0
  0
HATCH
  5
92
330
70
100
AcDbEntity
  8
Tie Illustration
 62
     2
420
 16769838
440
 33554687
100
AcDbHatch
 10
0.0
 20
0.0
 30
0.0
210
0.0
220
0.0
230
1.0
  2
SOLID
 70
     1
 71
     1
 91
        1
 92
        1
 93
        1
 72
     4
 94
        3
 73
     0
 74
     0
 95
       17
 96
       13
 40
0.0
 40
0.0
 40
0.0
 40
0.0
 40
1.0
 40
1.0
 40
1.0
 40
2.0
 40
2.0
 40
2.0
 40
3.0
 40
3.0
 40
3.0
 40
4.0
 40
4.0
 40
4.0
 40
4.0
 10
640.0409248495307
 20
-1115.022291481229
 10
631.3742378378119
 20
-1118.355634987088
 10
622.7076118612494
 20
-1121.68894797537
 10
614.0409248495298
 20
-1125.022291481229
 10
614.0409248495298
 20
-1120.68894797537
 10
614.0409248495298
 20
-1116.355634987089
 10
614.0409248495298
 20
-1112.022291481229
 10
621.3742378378119
 20
-1109.022291481229
 10
628.7076118612494
 20
-1106.022291481229
 10
636.0409248495307
 20
-1103.022291481229
 10
637.3742378378119
 20
-1107.022291481229
 10
638.7076118612494
 20
-1111.022291481229
 10
640.0409248495307
 20
-1115.022291481229
 97
        0
 97
        1
330
91
 75
     2
 76
     1
 98
        1
 10
0.0
 20
0.0
450
        0
451
        0
460
0.0
461
0.0
452
        0
462
0.0
453
        0
470

  0
SPLINE
  5
93
330
70
100
AcDbEntity
  8
Tie Illustration
100
AcDbSpline
210
0.0
220
0.0
230
1.0
 70
     9
 71
     3
 72
    17
 73
    13
 74
     0
 42
0.0000000001
 43
0.0000000001
 40
0.0
 40
0.0
 40
0.0
 40
0.0
 40
1.0
 40
1.0
 40
1.0
 40
2.0
 40
2.0
 40
2.0
 40
3.0
 40
3.0
 40
3.0
 40
4.0
 40
4.0
 40
4.0
 40
4.0
 10
639.0409248495307
 20
-1141.022291481229
 30
0.0
 10
630.0409248495307
 20
-1144.348524391385
 30
0.0
 10
621.0409248495307
 20
-1147.67478781912
 30
0.0
 10
612.0409248495298
 20
-1151.001020729276
 30
0.0
 10
612.0409248495298
 20
-1146.667677223417
 30
0.0
 10
612.0409248495298
 20
-1142.334364235135
 30
0.0
 10
612.0409248495298
 20
-1138.001020729276
 30
0.0
 10
620.7076118612494
 20
-1134.34144431326
 30
0.0
 10
629.3742378378119
 20
-1130.681867897245
 30
0.0
 10
638.0409248495307
 20
-1127.022291481229
 30
0.0
 10
638.3742378378119
 20
-1131.68894797537
 30
0.0
 10
638.7076118612494
 20
-1136.355634987088
 30
0.0
 10
639.0409248495307
 20
-1141.022291481229
 30
0.0
  0
HATCH
  5
94
330
70
100
AcDbEntity
  8
Tie Illustration
 62
     2
420
 16769838
440
 33554687
100
AcDbHatch
 10
0.0
 20
0.0
 30
0.0
210
0.0
220
0.0
230
1.0
  2
SOLID
 70
     1
 71
     1
 91
        1
 92
        1
 93
        1
 72
     4
 94
        3
 73
     0
 74
     0
 95
       17
 96
       13
 40
0.0
 40
0.0
 40
0.0
 40
0.0
 40
1.0
 40
1.0
 40
1.0
 40
2.0
 40
2.0
 40
2.0
 40
3.0
 40
3.0
 40
3.0
 40
4.0
 40
4.0
 40
4.0
 40
4.0
 10
639.0409248495307
 20
-1141.022291481229
 10
630.0409248495307
 20
-1144.348524391385
 10
621.0409248495307
 20
-1147.67478781912
 10
612.0409248495298
 20
-1151.001020729276
 10
612.0409248495298
 20
-1146.667677223417
 10
612.0409248495298
 20
-1142.334364235135
 10
612.0409248495298
 20
-1138.001020729276
 10
620.7076118612494
 20
-1134.34144431326
 10
629.3742378378119
 20
-1130.681867897245
 10
638.0409248495307
 20
-1127.022291481229
 10
638.3742378378119
 20
-1131.68894797537
 10
638.7076118612494
 20
-1136.355634987088
 10
639.0409248495307
 20
-1141.022291481229
 97
        0
 97
        1
330
93
 75
     2
 76
     1
 98
        1
 10
0.0
 20
0.0
450
        0
451
        0
460
0.0
461
0.0
452
        0
462
0.0
453
        0
470

  0
SPLINE
  5
95
330
70
100
AcDbEntity
  8
Tie Illustration
100
AcDbSpline
210
0.0
220
0.0
230
1.0
 70
     9
 71
     3
 72
    17
 73
    13
 74
     0
 42
0.0000000001
 43
0.0000000001
 40
0.0
 40
0.0
 40
0.0
 40
0.0
 40
1.0
 40
1.0
 40
1.0
 40
2.0
 40
2.0
 40
2.0
 40
3.0
 40
3.0
 40
3.0
 40
4.0
 40
4.0
 40
4.0
 40
4.0
 10
640.0409248495307
 20
-1166.096756644436
 30
0.0
 10
631.0409248495306
 20
-1169.422989554592
 30
0.0
 10
622.0409248495307
 20
-1172.749252982326
 30
0.0
 10
613.0409248495298
 20
-1176.075485892483
 30
0.0
 10
613.0409248495298
 20
-1171.742142386623
 30
0.0
 10
613.0409248495298
 20
-1167.408829398342
 30
0.0
 10
613.0409248495298
 20
-1163.075485892483
 30
0.0
 10
621.7076118612494
 20
-1159.415909476467
 30
0.0
 10
630.3742378378119
 20
-1155.756333060451
 30
0.0
 10
639.0409248495307
 20
-1152.096756644436
 30
0.0
 10
639.3742378378119
 20
-1156.763413138576
 30
0.0
 10
639.7076118612495
 20
-1161.430100150295
 30
0.0
 10
640.0409248495307
 20
-1166.096756644436
 30
0.0
  0
HATCH
  5
96
330
70
100
AcDbEntity
  8
Tie Illustration
 62
     2
420
 16769838
440
 33554687
100
AcDbHatch
 10
0.0
 20
0.0
 30
0.0
210
0.0
220
0.0
230
1.0
  2
SOLID
 70
     1
 71
     1
 91
        1
 92
        1
 93
        1
 72
     4
 94
        3
 73
     0
 74
     0
 95
       17
 96
       13
 40
0.0
 40
0.0
 40
0.0
 40
0.0
 40
1.0
 40
1.0
 40
1.0
 40
2.0
 40
2.0
 40
2.0
 40
3.0
 40
3.0
 40
3.0
 40
4.0
 40
4.0
 40
4.0
 40
4.0
 10
640.0409248495307
 20
-1166.096756644436
 10
631.0409248495306
 20
-1169.422989554592
 10
622.0409248495307
 20
-1172.749252982326
 10
613.0409248495298
 20
-1176.075485892483
 10
613.0409248495298
 20
-1171.742142386623
 10
613.0409248495298
 20
-1167.408829398342
 10
613.0409248495298
 20
-1163.075485892483
 10
621.7076118612494
 20
-1159.415909476467
 10
630.3742378378119
 20
-1155.756333060451
 10
639.0409248495307
 20
-1152.096756644436
 10
639.3742378378119
 20
-1156.763413138576
 10
639.7076118612495
 20
-1161.430100150295
 10
640.0409248495307
 20
-1166.096756644436
 97
        0
 97
        1
330
95
 75
     2
 76
     1
 98
        1
 10
0.0
 20
0.0
450
        0
451
        0
460
0.0
461
0.0
452
        0
462
0.0
453
        0
470

  0
SPLINE
  5
97
330
70
100
AcDbEntity
  8
Tie Illustration
100
AcDbSpline
210
0.0
220
0.0
230
1.0
 70
     9
 71
     3
 72
    20
 73
    16
 74
     0
 42
0.0000000001
 43
0.0000000001
 40
0.0
 40
0.0
 40
0.0
 40
0.0
 40
1.0
 40
1.0
 40
1.0
 40
2.0
 40
2.0
 40
2.0
 40
3.0
 40
3.0
 40
3.0
 40
4.0
 40
4.0
 40
4.0
 40
5.0
 40
5.0
 40
5.0
 40
5.0
 10
641.0409248495307
 20
-1191.022291481229
 30
0.0
 10
633.3742378378119
 20
-1194.68894797537
 30
0.0
 10
625.7076118612494
 20
-1198.355634987088
 30
0.0
 10
618.0409248495298
 20
-1202.022291481229
 30
0.0
 10
616.7076118612485
 20
-1200.355634987088
 30
0.0
 10
615.374237837811
 20
-1198.68894797537
 30
0.0
 10
614.0409248495298
 20
-1197.022291481229
 30
0.0
 10
614.0409248495298
 20
-1194.355634987088
 30
0.0
 10
614.0409248495298
 20
-1191.68894797537
 30
0.0
 10
614.0409248495298
 20
-1189.022291481229
 30
0.0
 10
623.0409248495306
 20
-1185.380445778104
 30
0.0
 10
632.0409248495307
 20
-1181.738600074979
 30
0.0
 10
641.0409248495307
 20
-1178.096754371854
 30
0.0
 10
641.0409248495307
 20
-1182.40525656912
 30
0.0
 10
641.0409248495307
 20
-1186.713789283963
 30
0.0
 10
641.0409248495307
 20
-1191.022291481229
 30
0.0
  0
HATCH
  5
98
330
70
100
AcDbEntity
  8
Tie Illustration
 62
     2
420
 16769838
440
 33554687
100
AcDbHatch
 10
0.0
 20
0.0
 30
0.0
210
0.0
220
0.0
230
1.0
  2
SOLID
 70
     1
 71
     1
 91
        1
 92
        1
 93
        1
 72
     4
 94
        3
 73
     0
 74
     0
 95
       20
 96
       16
 40
0.0
 40
0.0
 40
0.0
 40
0.0
 40
1.0
 40
1.0
 40
1.0
 40
2.0
 40
2.0
 40
2.0
 40
3.0
 40
3.0
 40
3.0
 40
4.0
 40
4.0
 40
4.0
 40
5.0
 40
5.0
 40
5.0
 40
5.0
 10
641.0409248495307
 20
-1191.022291481229
 10
633.3742378378119
 20
-1194.68894797537
 10
625.7076118612494
 20
-1198.355634987088
 10
618.0409248495298
 20
-1202.022291481229
 10
616.7076118612485
 20
-1200.355634987088
 10
615.374237837811
 20
-1198.68894797537
 10
614.0409248495298
 20
-1197.022291481229
 10
614.0409248495298
 20
-1194.355634987088
 10
614.0409248495298
 20
-1191.68894797537
 10
614.0409248495298
 20
-1189.022291481229
 10
623.0409248495306
 20
-1185.380445778104
 10
632.0409248495307
 20
-1181.738600074979
 10
641.0409248495307
 20
-1178.096754371854
 10
641.0409248495307
 20
-1182.40525656912
 10
641.0409248495307
 20
-1186.713789283963
 10
641.0409248495307
 20
-1191.022291481229
 97
        0
 97
        1
330
97
 75
     2
 76
     1
 98
        1
 10
0.0
 20
0.0
450
        0
451
        0
460
0.0
461
0.0
452
        0
462
0.0
453
        0
470

  0
SPLINE
  5
99
330
70
100
AcDbEntity
  8
Tie Illustration
100
AcDbSpline
210
0.0
220
0.0
230
1.0
 70
     9
 71
     3
 72
    20
 73
    16
 74
     0
 42
0.0000000001
 43
0.0000000001
 40
0.0
 40
0.0
 40
0.0
 40
0.0
 40
1.0
 40
1.0
 40
1.0
 40
2.0
 40
2.0
 40
2.0
 40
3.0
 40
3.0
 40
3.0
 40
4.0
 40
4.0
 40
4.0
 40
5.0
 40
5.0
 40
5.0
 40
5.0
 10
615.0409248495297
 20
-1077.022291481229
 30
0.0
 10
620.0257881307806
 20
-1074.355634987089
 30
0.0
 10
625.0105903768744
 20
-1071.68894797537
 30
0.0
 10
629.9954536581244
 20
-1069.022291481229
 30
0.0
 10
633.6772773885932
 20
-1069.022291481229
 30
0.0
 10
637.3591011190619
 20
-1069.022291481229
 30
0.0
 10
641.0409248495307
 20
-1069.022291481229
 30
0.0
 10
639.7076118612495
 20
-1071.68894797537
 30
0.0
 10
638.3742378378119
 20
-1074.355634987089
 30
0.0
 10
637.0409248495307
 20
-1077.022291481229
 30
0.0
 10
631.0409248495306
 20
-1080.355634987088
 30
0.0
 10
625.0409248495307
 20
-1083.68894797537
 30
0.0
 10
619.0409248495297
 20
-1087.022291481229
 30
0.0
 10
617.7076118612485
 20
-1083.68894797537
 30
0.0
 10
616.374237837811
 20
-1080.355634987088
 30
0.0
 10
615.0409248495297
 20
-1077.022291481229
 30
0.0
  0
HATCH
  5
9A
330
70
100
AcDbEntity
  8
Tie Illustration
 62
     2
420
 16769838
440
 33554687
100
AcDbHatch
 10
0.0
 20
0.0
 30
0.0
210
0.0
220
0.0
230
1.0
  2
SOLID
 70
     1
 71
     1
 91
        1
 92
        1
 93
        1
 72
     4
 94
        3
 73
     0
 74
     0
 95
       20
 96
       16
 40
0.0
 40
0.0
 40
0.0
 40
0.0
 40
1.0
 40
1.0
 40
1.0
 40
2.0
 40
2.0
 40
2.0
 40
3.0
 40
3.0
 40
3.0
 40
4.0
 40
4.0
 40
4.0
 40
5.0
 40
5.0
 40
5.0
 40
5.0
 10
615.0409248495297
 20
-1077.022291481229
 10
620.0257881307806
 20
-1074.355634987089
 10
625.0105903768744
 20
-1071.68894797537
 10
629.9954536581244
 20
-1069.022291481229
 10
633.6772773885932
 20
-1069.022291481229
 10
637.3591011190619
 20
-1069.022291481229
 10
641.0409248495307
 20
-1069.022291481229
 10
639.7076118612495
 20
-1071.68894797537
 10
638.3742378378119
 20
-1074.355634987089
 10
637.0409248495307
 20
-1077.022291481229
 10
631.0409248495306
 20
-1080.355634987088
 10
625.0409248495307
 20
-1083.68894797537
 10
619.0409248495297
 20
-1087.022291481229
 10
617.7076118612485
 20
-1083.68894797537
 10
616.374237837811
 20
-1080.355634987088
 10
615.0409248495297
 20
-1077.022291481229
 97
        0
 97
        1
330
99
 75
     2
 76
     1
 98
        1
 10
0.0
 20
0.0
450
        0
451
        0
460
0.0
461
0.0
452
        0
462
0.0
453
        0
470

  0
LWPOLYLINE
  5
9B
330
70
100
AcDbEntity
  8
Tie Illustration
100
AcDbPolyline
 90
        1
 70
     0
 43
0.0
 10
632.0409248495307
 20
-1103.022291481229
  0
HATCH
  5
9C
330
70
100
AcDbEntity
  8
Tie Illustration
 62
     2
420
 16769838
440
 33554687
100
AcDbHatch
 10
0.0
 20
0.0
 30
0.0
210
0.0
220
0.0
230
1.0
  2
SOLID
 70
     1
 71
     1
 91
        1
 92
        3
 72
     0
 73
     1
 93
        1
 10
632.0409248495307
 20
-1103.022291481229
 97
        0
 75
     2
 76
     1
 98
        1
 10
0.0
 20
0.0
450
        0
451
        0
460
0.0
461
0.0
452
        0
462
0.0
453
        0
470

  0
LWPOLYLINE
  5
9D
330
70
100
AcDbEntity
  8
Tie Illustration
100
AcDbPolyline
 90
        1
 70
     0
 43
0.0
 10
630.0409248495307
 20
-1097.022291481229
  0
HATCH
  5
9E
330
70
100
AcDbEntity
  8
Tie Illustration
 62
     2
420
 16769838
440
 33554687
100
AcDbHatch
 10
0.0
 20
0.0
 30
0.0
210
0.0
220
0.0
230
1.0
  2
SOLID
 70
     1
 71
     1
 91
        1
 92
        3
 72
     0
 73
     1
 93
        1
 10
630.0409248495307
 20
-1097.022291481229
 97
        0
 75
     2
 76
     1
 98
        1
 10
0.0
 20
0.0
450
        0
451
        0
460
0.0
461
0.0
452
        0
462
0.0
453
        0
470

  0
LWPOLYLINE
  5
9F
330
70
100
AcDbEntity
  8
Tie Illustration
100
AcDbPolyline
 90
        1
 70
     0
 43
0.0
 10
608.0409248495298
 20
-1194.022291481229
  0
HATCH
  5
A0
330
70
100
AcDbEntity
  8
Tie Illustration
 62
     2
420
 16769838
440
 33554687
100
AcDbHatch
 10
0.0
 20
0.0
 30
0.0
210
0.0
220
0.0
230
1.0
  2
SOLID
 70
     1
 71
     1
 91
        1
 92
        3
 72
     0
 73
     1
 93
        1
 10
608.0409248495298
 20
-1194.022291481229
 97
        0
 75
     2
 76
     1
 98
        1
 10
0.0
 20
0.0
450
        0
451
        0
460
0.0
461
0.0
452
        0
462
0.0
453
        0
470

  0
SPLINE
  5
A1
330
70
100
AcDbEntity
  8
Tie Illustration
 62
     7
420
 16777215
370
   106
100
AcDbSpline
210
0.0
220
0.0
230
1.0
 70
     9
 71
     3
 72
    17
 73
    13
 74
     0
 42
0.0000000001
 43
0.0000000001
 40
0.0
 40
0.0
 40
0.0
 40
0.0
 40
1.0
 40
1.0
 40
1.0
 40
2.0
 40
2.0
 40
2.0
 40
3.0
 40
3.0
 40
3.0
 40
4.0
 40
4.0
 40
4.0
 40
4.0
 10
632.5409248495307
 20
-1091.522291481229
 30
0.0
 10
628.5409248495307
 20
-1091.522291481229
 30
0.0
 10
624.5409248495307
 20
-1091.522291481229
 30
0.0
 10
620.5409248495307
 20
-1091.522291481229
 30
0.0
 10
617.5409248495298
 20
-1084.18894797537
 30
0.0
 10
614.5409248495298
 20
-1076.855634987089
 30
0.0
 10
611.5409248495297
 20
-1069.522291481229
 30
0.0
 10
621.2076118612494
 20
-1069.522291481229
 30
0.0
 10
630.8742378378119
 20
-1069.522291481229
 30
0.0
 10
640.5409248495307
 20
-1069.522291481229
 30
0.0
 10
637.8742378378119
 20
-1076.855634987089
 30
0.0
 10
635.2076118612494
 20
-1084.18894797537
 30
0.0
 10
632.5409248495307
 20
-1091.522291481229
 30
0.0
  0
SPLINE
  5
A2
330
70
100
AcDbEntity
  8
Tie Illustration
 62
     7
420
 16777215
370
   106
100
AcDbSpline
210
0.0
220
0.0
230
1.0
 70
     9
 71
     3
 72
    26
 73
    22
 74
     0
 42
0.0000000001
 43
0.0000000001
 40
0.0
 40
0.0
 40
0.0
 40
0.0
 40
1.0
 40
1.0
 40
1.0
 40
2.0
 40
2.0
 40
2.0
 40
3.0
 40
3.0
 40
3.0
 40
4.0
 40
4.0
 40
4.0
 40
5.0
 40
5.0
 40
5.0
 40
6.0
 40
6.0
 40
6.0
 40
7.0
 40
7.0
 40
7.0
 40
7.0
 10
632.7138984823432
 20
-1094.522291481229
 30
0.0
 10
628.5857246542182
 20
-1094.522291481229
 30
0.0
 10
624.4575508260932
 20
-1094.522291481229
 30
0.0
 10
620.329315962812
 20
-1094.522291481229
 30
0.0
 10
618.0664985799985
 20
-1099.855634987088
 30
0.0
 10
615.8037422323423
 20
-1105.18894797537
 30
0.0
 10
613.5409248495298
 20
-1110.522291481229
 30
0.0
 10
613.5409248495298
 20
-1139.18894797537
 30
0.0
 10
613.5409248495298
 20
-1167.855634987088
 30
0.0
 10
613.5409248495298
 20
-1196.522291481229
 30
0.0
 10
618.2076118612485
 20
-1201.522291481229
 30
0.0
 10
622.8742378378119
 20
-1206.522291481229
 30
0.0
 10
627.5409248495307
 20
-1211.522291481229
 30
0.0
 10
631.8742378378119
 20
-1206.522291481229
 30
0.0
 10
636.2076118612495
 20
-1201.522291481229
 30
0.0
 10
640.5409248495307
 20
-1196.522291481229
 30
0.0
 10
640.2076118612495
 20
-1167.855634987088
 30
0.0
 10
639.8742378378119
 20
-1139.18894797537
 30
0.0
 10
639.5409248495306
 20
-1110.522291481229
 30
0.0
 10
637.2652290487494
 20
-1105.18894797537
 30
0.0
 10
634.9895942831245
 20
-1099.855634987088
 30
0.0
 10
632.7138984823432
 20
-1094.522291481229
 30
0.0
  0
MTEXT
  5
A4
330
70
100
AcDbEntity
  8
TEXT
100
AcDbMText
 10
298.763671875
 20
-409.6953124999999
 30
0.0
 40
0.2
 41
0.0
 46
0.0
 71
     7
 72
     1
  1
\C18;\c0;\FGill Sans MT Bold|b1|i0|c1;\H138.136249;\W0.685790;T
 73
     1
 44
1.0
  0
SPLINE
  5
A5
330
70
100
AcDbEntity
  8
TEXT
100
AcDbSpline
210
0.0
220
0.0
230
1.0
 70
    11
 71
     3
 72
    41
 73
    37
 74
     0
 42
0.0000000001
 43
0.0000000001
 40
0.0
 40
0.0
 40
0.0
 40
0.0
 40
1.0
 40
1.0
 40
1.0
 40
2.0
 40
2.0
 40
2.0
 40
3.0
 40
3.0
 40
3.0
 40
4.0
 40
4.0
 40
4.0
 40
5.0
 40
5.0
 40
5.0
 40
6.0
 40
6.0
 40
6.0
 40
7.0
 40
7.0
 40
7.0
 40
8.0
 40
8.0
 40
8.0
 40
9.0
 40
9.0
 40
9.0
 40
10.0
 40
10.0
 40
10.0
 40
11.0
 40
11.0
 40
11.0
 40
12.0
 40
12.0
 40
12.0
 40
12.0
 10
391.3525390625
 20
-330.65087890625
 30
0.0
 10
391.3525390625
 20
-330.65087890625
 30
0.0
 10
436.328125
 20
-330.65087890625
 30
0.0
 10
436.328125
 20
-330.65087890625
 30
0.0
 10
436.328125
 20
-330.65087890625
 30
0.0
 10
436.328125
 20
-340.75927734375
 30
0.0
 10
436.328125
 20
-340.75927734375
 30
0.0
 10
436.328125
 20
-340.75927734375
 30
0.0
 10
402.7099609375
 20
-340.75927734375
 30
0.0
 10
402.7099609375
 20
-340.75927734375
 30
0.0
 10
402.7099609375
 20
-340.75927734375
 30
0.0
 10
402.7099609375
 20
-364.95068359375
 30
0.0
 10
402.7099609375
 20
-364.95068359375
 30
0.0
 10
411.8066406249999
 20
-364.9671325683594
 30
0.0
 10
420.9033203125
 20
-364.9835510253906
 30
0.0
 10
430.0
 20
-365.0
 30
0.0
 10
430.0
 20
-368.3333435058594
 30
0.0
 10
430.0
 20
-371.6666564941406
 30
0.0
 10
430.0
 20
-375.0
 30
0.0
 10
420.9033203125
 20
-375.03857421875
 30
0.0
 10
411.8066406249999
 20
-375.0771484375
 30
0.0
 10
402.7099609375
 20
-375.11572265625
 30
0.0
 10
402.7099609375
 20
-375.11572265625
 30
0.0
 10
402.7099609375
 20
-399.76171875
 30
0.0
 10
402.7099609375
 20
-399.76171875
 30
0.0
 10
402.7099609375
 20
-399.76171875
 30
0.0
 10
437.4072265625
 20
-399.76171875
 30
0.0
 10
437.4072265625
 20
-399.76171875
 30
0.0
 10
437.4072265625
 20
-399.76171875
 30
0.0
 10
437.4072265625
 20
-409.8701171874999
 30
0.0
 10
437.4072265625
 20
-409.8701171874999
 30
0.0
 10
437.4072265625
 20
-409.8701171874999
 30
0.0
 10
391.3525390625
 20
-409.8701171874999
 30
0.0
 10
391.3525390625
 20
-409.8701171874999
 30
0.0
 10
391.3525390625
 20
-409.8701171874999
 30
0.0
 10
391.3525390625
 20
-330.65087890625
 30
0.0
 10
391.3525390625
 20
-330.65087890625
 30
0.0
  0
HATCH
  5
A6
330
70
100
AcDbEntity
  8
TEXT
 62
    18
420
        0
440
 33554687
100
AcDbHatch
 10
0.0
 20
0.0
 30
0.0
210
0.0
220
0.0
230
1.0
  2
SOLID
 70
     1
 71
     1
 91
        1
 92
        1
 93
        1
 72
     4
 94
        3
 73
     0
 74
     0
 95
       41
 96
       37
 40
0.0
 40
0.0
 40
0.0
 40
0.0
 40
1.0
 40
1.0
 40
1.0
 40
2.0
 40
2.0
 40
2.0
 40
3.0
 40
3.0
 40
3.0
 40
4.0
 40
4.0
 40
4.0
 40
5.0
 40
5.0
 40
5.0
 40
6.0
 40
6.0
 40
6.0
 40
7.0
 40
7.0
 40
7.0
 40
8.0
 40
8.0
 40
8.0
 40
9.0
 40
9.0
 40
9.0
 40
10.0
 40
10.0
 40
10.0
 40
11.0
 40
11.0
 40
11.0
 40
12.0
 40
12.0
 40
12.0
 40
12.0
 10
391.3525390625
 20
-330.65087890625
 10
391.3525390625
 20
-330.65087890625
 10
436.328125
 20
-330.65087890625
 10
436.328125
 20
-330.65087890625
 10
436.328125
 20
-330.65087890625
 10
436.328125
 20
-340.75927734375
 10
436.328125
 20
-340.75927734375
 10
436.328125
 20
-340.75927734375
 10
402.7099609375
 20
-340.75927734375
 10
402.7099609375
 20
-340.75927734375
 10
402.7099609375
 20
-340.75927734375
 10
402.7099609375
 20
-364.95068359375
 10
402.7099609375
 20
-364.95068359375
 10
411.8066406249999
 20
-364.9671325683594
 10
420.9033203125
 20
-364.9835510253906
 10
430.0
 20
-365.0
 10
430.0
 20
-368.3333435058594
 10
430.0
 20
-371.6666564941406
 10
430.0
 20
-375.0
 10
420.9033203125
 20
-375.03857421875
 10
411.8066406249999
 20
-375.0771484375
 10
402.7099609375
 20
-375.11572265625
 10
402.7099609375
 20
-375.11572265625
 10
402.7099609375
 20
-399.76171875
 10
402.7099609375
 20
-399.76171875
 10
402.7099609375
 20
-399.76171875
 10
437.4072265625
 20
-399.76171875
 10
437.4072265625
 20
-399.76171875
 10
437.4072265625
 20
-399.76171875
 10
437.4072265625
 20
-409.8701171874999
 10
437.4072265625
 20
-409.8701171874999
 10
437.4072265625
 20
-409.8701171874999
 10
391.3525390625
 20
-409.8701171874999
 10
391.3525390625
 20
-409.8701171874999
 10
391.3525390625
 20
-409.8701171874999
 10
391.3525390625
 20
-330.65087890625
 10
391.3525390625
 20
-330.65087890625
 97
        0
 97
        1
330
A5
 75
     2
 76
     1
 98
        1
 10
0.0
 20
0.0
450
        0
451
        0
460
0.0
461
0.0
452
        0
462
0.0
453
        0
470

  0
SPLINE
  5
A7
330
70
100
AcDbEntity
  8
TEXT
100
AcDbSpline
210
0.0
220
0.0
230
1.0
 70
    11
 71
     3
 72
    41
 73
    37
 74
     0
 42
0.0000000001
 43
0.0000000001
 40
0.0
 40
0.0
 40
0.0
 40
0.0
 40
1.0
 40
1.0
 40
1.0
 40
2.0
 40
2.0
 40
2.0
 40
3.0
 40
3.0
 40
3.0
 40
4.0
 40
4.0
 40
4.0
 40
5.0
 40
5.0
 40
5.0
 40
6.0
 40
6.0
 40
6.0
 40
7.0
 40
7.0
 40
7.0
 40
8.0
 40
8.0
 40
8.0
 40
9.0
 40
9.0
 40
9.0
 40
10.0
 40
10.0
 40
10.0
 40
11.0
 40
11.0
 40
11.0
 40
12.0
 40
12.0
 40
12.0
 40
12.0
 10
458.5684009308525
 20
-330.4329340508657
 30
0.0
 10
458.5684009308525
 20
-330.4329340508657
 30
0.0
 10
503.5439868683524
 20
-330.4329340508657
 30
0.0
 10
503.5439868683524
 20
-330.4329340508657
 30
0.0
 10
503.5439868683524
 20
-330.4329340508657
 30
0.0
 10
503.5439868683524
 20
-340.5413324883657
 30
0.0
 10
503.5439868683524
 20
-340.5413324883657
 30
0.0
 10
503.5439868683524
 20
-340.5413324883657
 30
0.0
 10
469.9258228058524
 20
-340.5413324883657
 30
0.0
 10
469.9258228058524
 20
-340.5413324883657
 30
0.0
 10
469.9258228058524
 20
-340.5413324883657
 30
0.0
 10
469.9258228058524
 20
-364.7327387383657
 30
0.0
 10
469.9258228058524
 20
-364.7327387383657
 30
0.0
 10
479.0225024933524
 20
-364.7491877129751
 30
0.0
 10
488.1191821808524
 20
-364.7656061700063
 30
0.0
 10
497.2158618683525
 20
-364.7820551446157
 30
0.0
 10
497.2158618683525
 20
-368.1153986504751
 30
0.0
 10
497.2158618683525
 20
-371.4487116387563
 30
0.0
 10
497.2158618683525
 20
-374.7820551446157
 30
0.0
 10
488.1191821808524
 20
-374.8206293633657
 30
0.0
 10
479.0225024933524
 20
-374.8592035821157
 30
0.0
 10
469.9258228058524
 20
-374.8977778008657
 30
0.0
 10
469.9258228058524
 20
-374.8977778008657
 30
0.0
 10
469.9258228058524
 20
-399.5437738946166
 30
0.0
 10
469.9258228058524
 20
-399.5437738946166
 30
0.0
 10
469.9258228058524
 20
-399.5437738946166
 30
0.0
 10
504.6230884308524
 20
-399.5437738946166
 30
0.0
 10
504.6230884308524
 20
-399.5437738946166
 30
0.0
 10
504.6230884308524
 20
-399.5437738946166
 30
0.0
 10
504.6230884308524
 20
-409.6521723321165
 30
0.0
 10
504.6230884308524
 20
-409.6521723321165
 30
0.0
 10
504.6230884308524
 20
-409.6521723321165
 30
0.0
 10
458.5684009308525
 20
-409.6521723321165
 30
0.0
 10
458.5684009308525
 20
-409.6521723321165
 30
0.0
 10
458.5684009308525
 20
-409.6521723321165
 30
0.0
 10
458.5684009308525
 20
-330.4329340508657
 30
0.0
 10
458.5684009308525
 20
-330.4329340508657
 30
0.0
  0
HATCH
  5
A8
330
70
100
AcDbEntity
  8
TEXT
 62
    18
420
        0
440
 33554687
100
AcDbHatch
 10
0.0
 20
0.0
 30
0.0
210
0.0
220
0.0
230
1.0
  2
SOLID
 70
     1
 71
     1
 91
        1
 92
        1
 93
        1
 72
     4
 94
        3
 73
     0
 74
     0
 95
       41
 96
       37
 40
0.0
 40
0.0
 40
0.0
 40
0.0
 40
1.0
 40
1.0
 40
1.0
 40
2.0
 40
2.0
 40
2.0
 40
3.0
 40
3.0
 40
3.0
 40
4.0
 40
4.0
 40
4.0
 40
5.0
 40
5.0
 40
5.0
 40
6.0
 40
6.0
 40
6.0
 40
7.0
 40
7.0
 40
7.0
 40
8.0
 40
8.0
 40
8.0
 40
9.0
 40
9.0
 40
9.0
 40
10.0
 40
10.0
 40
10.0
 40
11.0
 40
11.0
 40
11.0
 40
12.0
 40
12.0
 40
12.0
 40
12.0
 10
458.5684009308525
 20
-330.4329340508657
 10
458.5684009308525
 20
-330.4329340508657
 10
503.5439868683524
 20
-330.4329340508657
 10
503.5439868683524
 20
-330.4329340508657
 10
503.5439868683524
 20
-330.4329340508657
 10
503.5439868683524
 20
-340.5413324883657
 10
503.5439868683524
 20
-340.5413324883657
 10
503.5439868683524
 20
-340.5413324883657
 10
469.9258228058524
 20
-340.5413324883657
 10
469.9258228058524
 20
-340.5413324883657
 10
469.9258228058524
 20
-340.5413324883657
 10
469.9258228058524
 20
-364.7327387383657
 10
469.9258228058524
 20
-364.7327387383657
 10
479.0225024933524
 20
-364.7491877129751
 10
488.1191821808524
 20
-364.7656061700063
 10
497.2158618683525
 20
-364.7820551446157
 10
497.2158618683525
 20
-368.1153986504751
 10
497.2158618683525
 20
-371.4487116387563
 10
497.2158618683525
 20
-374.7820551446157
 10
488.1191821808524
 20
-374.8206293633657
 10
479.0225024933524
 20
-374.8592035821157
 10
469.9258228058524
 20
-374.8977778008657
 10
469.9258228058524
 20
-374.8977778008657
 10
469.9258228058524
 20
-399.5437738946166
 10
469.9258228058524
 20
-399.5437738946166
 10
469.9258228058524
 20
-399.5437738946166
 10
504.6230884308524
 20
-399.5437738946166
 10
504.6230884308524
 20
-399.5437738946166
 10
504.6230884308524
 20
-399.5437738946166
 10
504.6230884308524
 20
-409.6521723321165
 10
504.6230884308524
 20
-409.6521723321165
 10
504.6230884308524
 20
-409.6521723321165
 10
458.5684009308525
 20
-409.6521723321165
 10
458.5684009308525
 20
-409.6521723321165
 10
458.5684009308525
 20
-409.6521723321165
 10
458.5684009308525
 20
-330.4329340508657
 10
458.5684009308525
 20
-330.4329340508657
 97
        0
 97
        1
330
A7
 75
     2
 76
     1
 98
        1
 10
0.0
 20
0.0
450
        0
451
        0
460
0.0
461
0.0
452
        0
462
0.0
453
        0
470

  0
SPLINE
  5
A9
330
70
100
AcDbEntity
  8
TEXT
100
AcDbSpline
210
0.0
220
0.0
230
1.0
 70
     9
 71
     3
 72
    32
 73
    28
 74
     0
 42
0.0000000001
 43
0.0000000001
 40
0.0
 40
0.0
 40
0.0
 40
0.0
 40
1.0
 40
1.0
 40
1.0
 40
2.0
 40
2.0
 40
2.0
 40
3.0
 40
3.0
 40
3.0
 40
4.0
 40
4.0
 40
4.0
 40
5.0
 40
5.0
 40
5.0
 40
6.0
 40
6.0
 40
6.0
 40
7.0
 40
7.0
 40
7.0
 40
8.0
 40
8.0
 40
8.0
 40
9.0
 40
9.0
 40
9.0
 40
9.0
 10
572.0
 20
-328.0
 30
0.0
 10
575.6666870117187
 20
-328.0
 30
0.0
 10
579.3333129882812
 20
-328.0
 30
0.0
 10
583.0
 20
-328.0
 30
0.0
 10
583.0
 20
-355.0
 30
0.0
 10
583.0
 20
-382.0
 30
0.0
 10
583.0
 20
-409.0
 30
0.0
 10
566.6666564941406
 20
-390.6666564941406
 30
0.0
 10
550.3333435058594
 20
-372.3333435058594
 30
0.0
 10
534.0
 20
-354.0
 30
0.0
 10
534.0
 20
-372.6666564941406
 30
0.0
 10
534.0
 20
-391.3333435058594
 30
0.0
 10
534.0
 20
-410.0
 30
0.0
 10
530.3333435058593
 20
-410.0
 30
0.0
 10
526.6666564941406
 20
-410.0
 30
0.0
 10
523.0
 20
-410.0
 30
0.0
 10
523.0
 20
-381.6666564941406
 30
0.0
 10
523.0
 20
-353.3333435058594
 30
0.0
 10
523.0
 20
-325.0
 30
0.0
 10
525.3340759277343
 20
-327.6597595214844
 30
0.0
 10
527.6674194335937
 20
-330.3264465332031
 30
0.0
 10
530.0
 20
-333.0
 30
0.0
 10
544.2553405761718
 20
-349.33935546875
 30
0.0
 10
558.2536621093749
 20
-365.6753540039062
 30
0.0
 10
572.0
 20
-382.0
 30
0.0
 10
572.0
 20
-364.0
 30
0.0
 10
572.0
 20
-346.0
 30
0.0
 10
572.0
 20
-328.0
 30
0.0
  0
HATCH
  5
AA
330
70
100
AcDbEntity
  8
TEXT
 62
    18
420
        0
440
 33554687
100
AcDbHatch
 10
0.0
 20
0.0
 30
0.0
210
0.0
220
0.0
230
1.0
  2
SOLID
 70
     1
 71
     1
 91
        1
 92
        1
 93
        1
 72
     4
 94
        3
 73
     0
 74
     0
 95
       32
 96
       28
 40
0.0
 40
0.0
 40
0.0
 40
0.0
 40
1.0
 40
1.0
 40
1.0
 40
2.0
 40
2.0
 40
2.0
 40
3.0
 40
3.0
 40
3.0
 40
4.0
 40
4.0
 40
4.0
 40
5.0
 40
5.0
 40
5.0
 40
6.0
 40
6.0
 40
6.0
 40
7.0
 40
7.0
 40
7.0
 40
8.0
 40
8.0
 40
8.0
 40
9.0
 40
9.0
 40
9.0
 40
9.0
 10
572.0
 20
-328.0
 10
575.6666870117187
 20
-328.0
 10
579.3333129882812
 20
-328.0
 10
583.0
 20
-328.0
 10
583.0
 20
-355.0
 10
583.0
 20
-382.0
 10
583.0
 20
-409.0
 10
566.6666564941406
 20
-390.6666564941406
 10
550.3333435058594
 20
-372.3333435058594
 10
534.0
 20
-354.0
 10
534.0
 20
-372.6666564941406
 10
534.0
 20
-391.3333435058594
 10
534.0
 20
-410.0
 10
530.3333435058593
 20
-410.0
 10
526.6666564941406
 20
-410.0
 10
523.0
 20
-410.0
 10
523.0
 20
-381.6666564941406
 10
523.0
 20
-353.3333435058594
 10
523.0
 20
-325.0
 10
525.3340759277343
 20
-327.6597595214844
 10
527.6674194335937
 20
-330.3264465332031
 10
530.0
 20
-333.0
 10
544.2553405761718
 20
-349.33935546875
 10
558.2536621093749
 20
-365.6753540039062
 10
572.0
 20
-382.0
 10
572.0
 20
-364.0
 10
572.0
 20
-346.0
 10
572.0
 20
-328.0
 97
        0
 97
        1
330
A9
 75
     2
 76
     1
 98
        1
 10
0.0
 20
0.0
450
        0
451
        0
460
0.0
461
0.0
452
        0
462
0.0
453
        0
470

  0
MTEXT
  5
AB
330
70
100
AcDbEntity
  8
TEXT
100
AcDbMText
 10
728.1982421875
 20
-409.828125
 30
0.0
 40
0.2
 41
0.0
 46
0.0
 71
     7
 72
     1
  1
\C18;\c0;\FGill Sans MT|b0|i0|c1;\H85.725722;\W0.841130;T
 73
     1
 44
1.0
  0
SPLINE
  5
AC
330
70
100
AcDbEntity
  8
TEXT
100
AcDbSpline
210
0.0
220
0.0
230
1.0
 70
    11
 71
     3
 72
    41
 73
    37
 74
     0
 42
0.0000000001
 43
0.0000000001
 40
0.0
 40
0.0
 40
0.0
 40
0.0
 40
1.0
 40
1.0
 40
1.0
 40
2.0
 40
2.0
 40
2.0
 40
3.0
 40
3.0
 40
3.0
 40
4.0
 40
4.0
 40
4.0
 40
5.0
 40
5.0
 40
5.0
 40
6.0
 40
6.0
 40
6.0
 40
7.0
 40
7.0
 40
7.0
 40
8.0
 40
8.0
 40
8.0
 40
9.0
 40
9.0
 40
9.0
 40
10.0
 40
10.0
 40
10.0
 40
11.0
 40
11.0
 40
11.0
 40
12.0
 40
12.0
 40
12.0
 40
12.0
 10
801.3769115691502
 20
-327.3521294642069
 30
0.0
 10
801.3769115691502
 20
-327.3521294642069
 30
0.0
 10
847.8841494335011
 20
-327.3521294642069
 30
0.0
 10
847.8841494335011
 20
-327.3521294642069
 30
0.0
 10
847.8841494335011
 20
-327.3521294642069
 30
0.0
 10
847.8841494335011
 20
-337.8047712866774
 30
0.0
 10
847.8841494335011
 20
-337.8047712866774
 30
0.0
 10
847.8841494335011
 20
-337.8047712866774
 30
0.0
 10
813.1211125541122
 20
-337.8047712866774
 30
0.0
 10
813.1211125541122
 20
-337.8047712866774
 30
0.0
 10
813.1211125541122
 20
-337.8047712866774
 30
0.0
 10
813.1211125541122
 20
-362.8200203665974
 30
0.0
 10
813.1211125541122
 20
-362.8200203665974
 30
0.0
 10
822.5275813567696
 20
-362.8370295140903
 30
0.0
 10
831.9340501594288
 20
-362.8540071047228
 30
0.0
 10
841.3405189620862
 20
-362.8710162522157
 30
0.0
 10
841.3405189620862
 20
-366.3178773898562
 30
0.0
 10
841.3405189620862
 20
-369.7647069706373
 30
0.0
 10
841.3405189620862
 20
-373.2115681082778
 30
0.0
 10
831.9340501594288
 20
-373.2514559792071
 30
0.0
 10
822.5275813567696
 20
-373.2913438501364
 30
0.0
 10
813.1211125541122
 20
-373.3312317210657
 30
0.0
 10
813.1211125541122
 20
-373.3312317210657
 30
0.0
 10
813.1211125541122
 20
-398.8165517862399
 30
0.0
 10
813.1211125541122
 20
-398.8165517862399
 30
0.0
 10
813.1211125541122
 20
-398.8165517862399
 30
0.0
 10
849.0
 20
-398.8165517862399
 30
0.0
 10
849.0
 20
-398.8165517862399
 30
0.0
 10
849.0
 20
-398.8165517862399
 30
0.0
 10
849.0
 20
-409.2691936087103
 30
0.0
 10
849.0
 20
-409.2691936087103
 30
0.0
 10
849.0
 20
-409.2691936087103
 30
0.0
 10
801.3769115691502
 20
-409.2691936087103
 30
0.0
 10
801.3769115691502
 20
-409.2691936087103
 30
0.0
 10
801.3769115691502
 20
-409.2691936087103
 30
0.0
 10
801.3769115691502
 20
-327.3521294642069
 30
0.0
 10
801.3769115691502
 20
-327.3521294642069
 30
0.0
  0
HATCH
  5
AD
330
70
100
AcDbEntity
  8
TEXT
 62
    18
420
        0
440
 33554687
100
AcDbHatch
 10
0.0
 20
0.0
 30
0.0
210
0.0
220
0.0
230
1.0
  2
SOLID
 70
     1
 71
     1
 91
        1
 92
        1
 93
        1
 72
     4
 94
        3
 73
     0
 74
     0
 95
       41
 96
       37
 40
0.0
 40
0.0
 40
0.0
 40
0.0
 40
1.0
 40
1.0
 40
1.0
 40
2.0
 40
2.0
 40
2.0
 40
3.0
 40
3.0
 40
3.0
 40
4.0
 40
4.0
 40
4.0
 40
5.0
 40
5.0
 40
5.0
 40
6.0
 40
6.0
 40
6.0
 40
7.0
 40
7.0
 40
7.0
 40
8.0
 40
8.0
 40
8.0
 40
9.0
 40
9.0
 40
9.0
 40
10.0
 40
10.0
 40
10.0
 40
11.0
 40
11.0
 40
11.0
 40
12.0
 40
12.0
 40
12.0
 40
12.0
 10
801.3769115691502
 20
-327.3521294642069
 10
801.3769115691502
 20
-327.3521294642069
 10
847.8841494335011
 20
-327.3521294642069
 10
847.8841494335011
 20
-327.3521294642069
 10
847.8841494335011
 20
-327.3521294642069
 10
847.8841494335011
 20
-337.8047712866774
 10
847.8841494335011
 20
-337.8047712866774
 10
847.8841494335011
 20
-337.8047712866774
 10
813.1211125541122
 20
-337.8047712866774
 10
813.1211125541122
 20
-337.8047712866774
 10
813.1211125541122
 20
-337.8047712866774
 10
813.1211125541122
 20
-362.8200203665974
 10
813.1211125541122
 20
-362.8200203665974
 10
822.5275813567696
 20
-362.8370295140903
 10
831.9340501594288
 20
-362.8540071047228
 10
841.3405189620862
 20
-362.8710162522157
 10
841.3405189620862
 20
-366.3178773898562
 10
841.3405189620862
 20
-369.7647069706373
 10
841.3405189620862
 20
-373.2115681082778
 10
831.9340501594288
 20
-373.2514559792071
 10
822.5275813567696
 20
-373.2913438501364
 10
813.1211125541122
 20
-373.3312317210657
 10
813.1211125541122
 20
-373.3312317210657
 10
813.1211125541122
 20
-398.8165517862399
 10
813.1211125541122
 20
-398.8165517862399
 10
813.1211125541122
 20
-398.8165517862399
 10
849.0
 20
-398.8165517862399
 10
849.0
 20
-398.8165517862399
 10
849.0
 20
-398.8165517862399
 10
849.0
 20
-409.2691936087103
 10
849.0
 20
-409.2691936087103
 10
849.0
 20
-409.2691936087103
 10
801.3769115691502
 20
-409.2691936087103
 10
801.3769115691502
 20
-409.2691936087103
 10
801.3769115691502
 20
-409.2691936087103
 10
801.3769115691502
 20
-327.3521294642069
 10
801.3769115691502
 20
-327.3521294642069
 97
        0
 97
        1
330
AC
 75
     2
 76
     1
 98
        1
 10
0.0
 20
0.0
450
        0
451
        0
460
0.0
461
0.0
452
        0
462
0.0
453
        0
470

  0
SPLINE
  5
AE
330
70
100
AcDbEntity
  8
TEXT
100
AcDbSpline
210
0.0
220
0.0
230
1.0
 70
     9
 71
     3
 72
    32
 73
    28
 74
     0
 42
0.0000000001
 43
0.0000000001
 40
0.0
 40
0.0
 40
0.0
 40
0.0
 40
1.0
 40
1.0
 40
1.0
 40
2.0
 40
2.0
 40
2.0
 40
3.0
 40
3.0
 40
3.0
 40
4.0
 40
4.0
 40
4.0
 40
5.0
 40
5.0
 40
5.0
 40
6.0
 40
6.0
 40
6.0
 40
7.0
 40
7.0
 40
7.0
 40
8.0
 40
8.0
 40
8.0
 40
9.0
 40
9.0
 40
9.0
 40
9.0
 10
885.3963737590184
 20
-339.7442613914754
 30
0.0
 10
885.3963737590184
 20
-339.7442613914754
 30
0.0
 10
880.8514579942002
 20
-339.7442613914754
 30
0.0
 10
880.8514579942002
 20
-339.7442613914754
 30
0.0
 10
880.8514579942002
 20
-339.7442613914754
 30
0.0
 10
880.8514579942002
 20
-373.148480036265
 30
0.0
 10
880.8514579942002
 20
-373.148480036265
 30
0.0
 10
880.8514579942002
 20
-373.148480036265
 30
0.0
 10
886.6086215856739
 20
-373.148480036265
 30
0.0
 10
886.6086215856739
 20
-373.148480036265
 30
0.0
 10
894.2834882607858
 20
-373.148480036265
 30
0.0
 10
899.5480494745388
 20
-372.4926904511094
 30
0.0
 10
902.4012916417923
 20
-371.1790841105194
 30
0.0
 10
905.2535202239051
 20
-369.8664913550692
 30
0.0
 10
907.4763124344864
 20
-367.883918822512
 30
0.0
 10
909.0666275181174
 20
-365.2328868905579
 30
0.0
 10
910.6569426017486
 20
-362.5818549586038
 30
0.0
 10
911.4526069361344
 20
-359.5649187913468
 30
0.0
 10
911.4526069361344
 20
-356.1810648036471
 30
0.0
 10
911.4526069361344
 20
-352.8483968654837
 30
0.0
 10
910.5687606946249
 20
-349.8314606982267
 30
0.0
 10
908.80208179675
 20
-347.1297495093058
 30
0.0
 10
907.0333757285935
 20
-344.429051905523
 30
0.0
 10
904.5470513817836
 20
-342.5219914658474
 30
0.0
 10
901.3410815860389
 20
-341.4105953605567
 30
0.0
 10
898.1330846200144
 20
-340.3007196329754
 30
0.0
 10
892.8188577344336
 20
-339.7442613914754
 30
0.0
 10
885.3963737590184
 20
-339.7442613914754
 30
0.0
  0
SPLINE
  5
AF
330
70
100
AcDbEntity
  8
TEXT
100
AcDbSpline
210
0.0
220
0.0
230
1.0
 70
     8
 71
     3
 72
    47
 73
    43
 74
     0
 42
0.0000000001
 43
0.0000000001
 40
0.0
 40
0.0
 40
0.0
 40
0.0
 40
1.0
 40
1.0
 40
1.0
 40
2.0
 40
2.0
 40
2.0
 40
3.0
 40
3.0
 40
3.0
 40
4.0
 40
4.0
 40
4.0
 40
5.0
 40
5.0
 40
5.0
 40
6.0
 40
6.0
 40
6.0
 40
7.0
 40
7.0
 40
7.0
 40
8.0
 40
8.0
 40
8.0
 40
9.0
 40
9.0
 40
9.0
 40
10.0
 40
10.0
 40
10.0
 40
11.0
 40
11.0
 40
11.0
 40
12.0
 40
12.0
 40
12.0
 40
13.0
 40
13.0
 40
13.0
 40
14.0
 40
14.0
 40
14.0
 40
14.0
 10
909.0
 20
-410.0
 30
0.0
 10
902.6365966796875
 20
-402.4012756347656
 30
0.0
 10
896.2732543945312
 20
-394.8025817871094
 30
0.0
 10
889.9098510742188
 20
-387.203857421875
 30
0.0
 10
888.1799926757812
 20
-387.203857421875
 30
0.0
 10
886.4501953125
 20
-387.203857421875
 30
0.0
 10
884.7203369140625
 20
-387.203857421875
 30
0.0
 10
883.3364257812499
 20
-387.203857421875
 30
0.0
 10
881.9525146484375
 20
-387.203857421875
 30
0.0
 10
880.5686645507812
 20
-387.203857421875
 30
0.0
 10
880.7124633789062
 20
-394.8025817871094
 30
0.0
 10
880.856201171875
 20
-402.4012756347656
 30
0.0
 10
881.0
 20
-410.0
 30
0.0
 10
876.0
 20
-410.0
 30
0.0
 10
871.0
 20
-410.0
 30
0.0
 10
866.0
 20
-410.0
 30
0.0
 10
865.9008178710937
 20
-382.2892150878906
 30
0.0
 10
865.8015747070312
 20
-354.5784606933594
 30
0.0
 10
865.7023925781249
 20
-326.86767578125
 30
0.0
 10
865.7023925781249
 20
-326.86767578125
 30
0.0
 10
892.2137451171876
 20
-326.86767578125
 30
0.0
 10
892.2137451171876
 20
-326.86767578125
 30
0.0
 10
902.9182128906249
 20
-326.86767578125
 30
0.0
 10
911.4151000976562
 20
-329.5187072753906
 30
0.0
 10
917.7013549804687
 20
-334.8207702636719
 30
0.0
 10
923.9886474609376
 20
-340.1233520507812
 30
0.0
 10
927.1317749023436
 20
-347.2939453125
 30
0.0
 10
927.1317749023436
 20
-356.3325805664062
 30
0.0
 10
927.1317749023436
 20
-358.443359375
 30
0.0
 10
926.8394775390625
 20
-365.2063903808594
 30
0.0
 10
922.5118408203124
 20
-372.3153076171875
 30
0.0
 10
920.7174072265624
 20
-375.2629699707031
 30
0.0
 10
917.3540649414062
 20
-379.7129211425781
 30
0.0
 10
911.7059936523437
 20
-383.0522155761719
 30
0.0
 10
908.9122314453124
 20
-384.7039489746094
 30
0.0
 10
906.329833984375
 20
-385.6290893554687
 30
0.0
 10
904.4406127929688
 20
-386.1659545898437
 30
0.0
 10
907.8955078125
 20
-389.9488525390625
 30
0.0
 10
911.3553466796874
 20
-393.7545166015625
 30
0.0
 10
914.8197631835937
 20
-397.5829772949219
 30
0.0
 10
918.5725708007812
 20
-401.7301330566406
 30
0.0
 10
922.2992553710938
 20
-405.8692626953124
 30
0.0
 10
926.0
 20
-410.0
 30
0.0
  0
HATCH
  5
B0
330
70
100
AcDbEntity
  8
TEXT
 62
    18
420
        0
440
 33554687
100
AcDbHatch
 10
0.0
 20
0.0
 30
0.0
210
0.0
220
0.0
230
1.0
  2
SOLID
 70
     1
 71
     1
 91
        2
 92
        1
 93
        1
 72
     4
 94
        3
 73
     0
 74
     0
 95
       32
 96
       28
 40
0.0
 40
0.0
 40
0.0
 40
0.0
 40
1.0
 40
1.0
 40
1.0
 40
2.0
 40
2.0
 40
2.0
 40
3.0
 40
3.0
 40
3.0
 40
4.0
 40
4.0
 40
4.0
 40
5.0
 40
5.0
 40
5.0
 40
6.0
 40
6.0
 40
6.0
 40
7.0
 40
7.0
 40
7.0
 40
8.0
 40
8.0
 40
8.0
 40
9.0
 40
9.0
 40
9.0
 40
9.0
 10
885.3963737590184
 20
-339.7442613914754
 10
885.3963737590184
 20
-339.7442613914754
 10
880.8514579942002
 20
-339.7442613914754
 10
880.8514579942002
 20
-339.7442613914754
 10
880.8514579942002
 20
-339.7442613914754
 10
880.8514579942002
 20
-373.148480036265
 10
880.8514579942002
 20
-373.148480036265
 10
880.8514579942002
 20
-373.148480036265
 10
886.6086215856739
 20
-373.148480036265
 10
886.6086215856739
 20
-373.148480036265
 10
894.2834882607858
 20
-373.148480036265
 10
899.5480494745388
 20
-372.4926904511094
 10
902.4012916417923
 20
-371.1790841105194
 10
905.2535202239051
 20
-369.8664913550692
 10
907.4763124344864
 20
-367.883918822512
 10
909.0666275181174
 20
-365.2328868905579
 10
910.6569426017486
 20
-362.5818549586038
 10
911.4526069361344
 20
-359.5649187913468
 10
911.4526069361344
 20
-356.1810648036471
 10
911.4526069361344
 20
-352.8483968654837
 10
910.5687606946249
 20
-349.8314606982267
 10
908.80208179675
 20
-347.1297495093058
 10
907.0333757285935
 20
-344.429051905523
 10
904.5470513817836
 20
-342.5219914658474
 10
901.3410815860389
 20
-341.4105953605567
 10
898.1330846200144
 20
-340.3007196329754
 10
892.8188577344336
 20
-339.7442613914754
 10
885.3963737590184
 20
-339.7442613914754
 97
        0
 97
        1
330
AE
 92
        1
 93
        2
 72
     4
 94
        3
 73
     0
 74
     0
 95
       47
 96
       43
 40
0.0
 40
0.0
 40
0.0
 40
0.0
 40
1.0
 40
1.0
 40
1.0
 40
2.0
 40
2.0
 40
2.0
 40
3.0
 40
3.0
 40
3.0
 40
4.0
 40
4.0
 40
4.0
 40
5.0
 40
5.0
 40
5.0
 40
6.0
 40
6.0
 40
6.0
 40
7.0
 40
7.0
 40
7.0
 40
8.0
 40
8.0
 40
8.0
 40
9.0
 40
9.0
 40
9.0
 40
10.0
 40
10.0
 40
10.0
 40
11.0
 40
11.0
 40
11.0
 40
12.0
 40
12.0
 40
12.0
 40
13.0
 40
13.0
 40
13.0
 40
14.0
 40
14.0
 40
14.0
 40
14.0
 10
909.0
 20
-410.0
 10
902.6365966796875
 20
-402.4012756347656
 10
896.2732543945312
 20
-394.8025817871094
 10
889.9098510742188
 20
-387.203857421875
 10
888.1799926757812
 20
-387.203857421875
 10
886.4501953125
 20
-387.203857421875
 10
884.7203369140625
 20
-387.203857421875
 10
883.3364257812499
 20
-387.203857421875
 10
881.9525146484375
 20
-387.203857421875
 10
880.5686645507812
 20
-387.203857421875
 10
880.7124633789062
 20
-394.8025817871094
 10
880.856201171875
 20
-402.4012756347656
 10
881.0
 20
-410.0
 10
876.0
 20
-410.0
 10
871.0
 20
-410.0
 10
866.0
 20
-410.0
 10
865.9008178710937
 20
-382.2892150878906
 10
865.8015747070312
 20
-354.5784606933594
 10
865.7023925781249
 20
-326.86767578125
 10
865.7023925781249
 20
-326.86767578125
 10
892.2137451171876
 20
-326.86767578125
 10
892.2137451171876
 20
-326.86767578125
 10
902.9182128906249
 20
-326.86767578125
 10
911.4151000976562
 20
-329.5187072753906
 10
917.7013549804687
 20
-334.8207702636719
 10
923.9886474609376
 20
-340.1233520507812
 10
927.1317749023436
 20
-347.2939453125
 10
927.1317749023436
 20
-356.3325805664062
 10
927.1317749023436
 20
-358.443359375
 10
926.8394775390625
 20
-365.2063903808594
 10
922.5118408203124
 20
-372.3153076171875
 10
920.7174072265624
 20
-375.2629699707031
 10
917.3540649414062
 20
-379.7129211425781
 10
911.7059936523437
 20
-383.0522155761719
 10
908.9122314453124
 20
-384.7039489746094
 10
906.329833984375
 20
-385.6290893554687
 10
904.4406127929688
 20
-386.1659545898437
 10
907.8955078125
 20
-389.9488525390625
 10
911.3553466796874
 20
-393.7545166015625
 10
914.8197631835937
 20
-397.5829772949219
 10
918.5725708007812
 20
-401.7301330566406
 10
922.2992553710938
 20
-405.8692626953124
 10
926.0
 20
-410.0
 97
        0
 72
     1
 10
926.0
 20
-410.0
 11
909.0
 21
-410.0
 97
        0
 75
     2
 76
     1
 98
        1
 10
0.0
 20
0.0
450
        0
451
        0
460
0.0
461
0.0
452
        0
462
0.0
453
        0
470

  0
SPLINE
  5
B1
330
70
100
AcDbEntity
  8
TEXT
100
AcDbSpline
210
0.0
220
0.0
230
1.0
 70
     9
 71
     3
 72
    32
 73
    28
 74
     0
 42
0.0000000001
 43
0.0000000001
 40
0.0
 40
0.0
 40
0.0
 40
0.0
 40
1.0
 40
1.0
 40
1.0
 40
2.0
 40
2.0
 40
2.0
 40
3.0
 40
3.0
 40
3.0
 40
4.0
 40
4.0
 40
4.0
 40
5.0
 40
5.0
 40
5.0
 40
6.0
 40
6.0
 40
6.0
 40
7.0
 40
7.0
 40
7.0
 40
8.0
 40
8.0
 40
8.0
 40
9.0
 40
9.0
 40
9.0
 40
9.0
 10
707.0
 20
-328.0
 30
0.0
 10
710.6666870117187
 20
-328.0
 30
0.0
 10
714.3333129882812
 20
-328.0
 30
0.0
 10
718.0
 20
-328.0
 30
0.0
 10
718.0
 20
-355.0
 30
0.0
 10
718.0
 20
-382.0
 30
0.0
 10
718.0
 20
-409.0
 30
0.0
 10
701.6666564941406
 20
-390.6666564941406
 30
0.0
 10
685.3333435058593
 20
-372.3333435058594
 30
0.0
 10
669.0
 20
-354.0
 30
0.0
 10
669.0
 20
-372.6666564941406
 30
0.0
 10
669.0
 20
-391.3333435058594
 30
0.0
 10
669.0
 20
-410.0
 30
0.0
 10
665.3333435058593
 20
-410.0
 30
0.0
 10
661.6666564941406
 20
-410.0
 30
0.0
 10
658.0
 20
-410.0
 30
0.0
 10
658.0
 20
-381.6666564941406
 30
0.0
 10
658.0
 20
-353.3333435058594
 30
0.0
 10
658.0
 20
-325.0
 30
0.0
 10
660.3340759277344
 20
-327.6597595214844
 30
0.0
 10
662.6674194335937
 20
-330.3264465332031
 30
0.0
 10
665.0
 20
-333.0
 30
0.0
 10
679.2553405761719
 20
-349.33935546875
 30
0.0
 10
693.253662109375
 20
-365.6753540039062
 30
0.0
 10
707.0
 20
-382.0
 30
0.0
 10
707.0
 20
-364.0
 30
0.0
 10
707.0
 20
-346.0
 30
0.0
 10
707.0
 20
-328.0
 30
0.0
  0
HATCH
  5
B2
330
70
100
AcDbEntity
  8
TEXT
 62
    18
420
        0
440
 33554687
100
AcDbHatch
 10
0.0
 20
0.0
 30
0.0
210
0.0
220
0.0
230
1.0
  2
SOLID
 70
     1
 71
     1
 91
        1
 92
        1
 93
        1
 72
     4
 94
        3
 73
     0
 74
     0
 95
       32
 96
       28
 40
0.0
 40
0.0
 40
0.0
 40
0.0
 40
1.0
 40
1.0
 40
1.0
 40
2.0
 40
2.0
 40
2.0
 40
3.0
 40
3.0
 40
3.0
 40
4.0
 40
4.0
 40
4.0
 40
5.0
 40
5.0
 40
5.0
 40
6.0
 40
6.0
 40
6.0
 40
7.0
 40
7.0
 40
7.0
 40
8.0
 40
8.0
 40
8.0
 40
9.0
 40
9.0
 40
9.0
 40
9.0
 10
707.0
 20
-328.0
 10
710.6666870117187
 20
-328.0
 10
714.3333129882812
 20
-328.0
 10
718.0
 20
-328.0
 10
718.0
 20
-355.0
 10
718.0
 20
-382.0
 10
718.0
 20
-409.0
 10
701.6666564941406
 20
-390.6666564941406
 10
685.3333435058593
 20
-372.3333435058594
 10
669.0
 20
-354.0
 10
669.0
 20
-372.6666564941406
 10
669.0
 20
-391.3333435058594
 10
669.0
 20
-410.0
 10
665.3333435058593
 20
-410.0
 10
661.6666564941406
 20
-410.0
 10
658.0
 20
-410.0
 10
658.0
 20
-381.6666564941406
 10
658.0
 20
-353.3333435058594
 10
658.0
 20
-325.0
 10
660.3340759277344
 20
-327.6597595214844
 10
662.6674194335937
 20
-330.3264465332031
 10
665.0
 20
-333.0
 10
679.2553405761719
 20
-349.33935546875
 10
693.253662109375
 20
-365.6753540039062
 10
707.0
 20
-382.0
 10
707.0
 20
-364.0
 10
707.0
 20
-346.0
 10
707.0
 20
-328.0
 97
        0
 97
        1
330
B1
 75
     2
 76
     1
 98
        1
 10
0.0
 20
0.0
450
        0
451
        0
460
0.0
461
0.0
452
        0
462
0.0
453
        0
470

  0
LWPOLYLINE
  5
B3
330
70
100
AcDbEntity
  8
TEXT
100
AcDbPolyline
 90
        1
 70
     0
 43
0.0
 10
827.0
 20
-595.0
  0
HATCH
  5
B4
330
70
100
AcDbEntity
  8
TEXT
 62
    18
420
        0
440
 33554687
100
AcDbHatch
 10
0.0
 20
0.0
 30
0.0
210
0.0
220
0.0
230
1.0
  2
SOLID
 70
     1
 71
     1
 91
        1
 92
        3
 72
     0
 73
     1
 93
        1
 10
827.0
 20
-595.0
 97
        0
 75
     2
 76
     1
 98
        1
 10
0.0
 20
0.0
450
        0
451
        0
460
0.0
461
0.0
452
        0
462
0.0
453
        0
470

  0
SPLINE
  5
B5
330
70
100
AcDbEntity
  8
TEXT
100
AcDbSpline
210
0.0
220
0.0
230
1.0
 70
     9
 71
     3
 72
    32
 73
    28
 74
     0
 42
0.0000000001
 43
0.0000000001
 40
0.0
 40
0.0
 40
0.0
 40
0.0
 40
1.0
 40
1.0
 40
1.0
 40
2.0
 40
2.0
 40
2.0
 40
3.0
 40
3.0
 40
3.0
 40
4.0
 40
4.0
 40
4.0
 40
5.0
 40
5.0
 40
5.0
 40
6.0
 40
6.0
 40
6.0
 40
7.0
 40
7.0
 40
7.0
 40
8.0
 40
8.0
 40
8.0
 40
9.0
 40
9.0
 40
9.0
 40
9.0
 10
992.0
 20
-328.0
 30
0.0
 10
995.6666870117187
 20
-328.0
 30
0.0
 10
999.3333129882811
 20
-328.0
 30
0.0
 10
1003.0
 20
-328.0
 30
0.0
 10
1003.0
 20
-355.0
 30
0.0
 10
1003.0
 20
-382.0
 30
0.0
 10
1003.0
 20
-409.0
 30
0.0
 10
986.6666564941406
 20
-390.6666564941406
 30
0.0
 10
970.3333435058594
 20
-372.3333435058594
 30
0.0
 10
954.0
 20
-354.0
 30
0.0
 10
954.0
 20
-372.6666564941406
 30
0.0
 10
954.0
 20
-391.3333435058594
 30
0.0
 10
954.0
 20
-410.0
 30
0.0
 10
950.3333435058593
 20
-410.0
 30
0.0
 10
946.6666564941405
 20
-410.0
 30
0.0
 10
943.0
 20
-410.0
 30
0.0
 10
943.0
 20
-381.6666564941406
 30
0.0
 10
943.0
 20
-353.3333435058594
 30
0.0
 10
943.0
 20
-325.0
 30
0.0
 10
945.3340759277343
 20
-327.6597595214844
 30
0.0
 10
947.6674194335938
 20
-330.3264465332031
 30
0.0
 10
950.0
 20
-333.0
 30
0.0
 10
964.2553405761718
 20
-349.33935546875
 30
0.0
 10
978.253662109375
 20
-365.6753540039062
 30
0.0
 10
992.0
 20
-382.0
 30
0.0
 10
992.0
 20
-364.0
 30
0.0
 10
992.0
 20
-346.0
 30
0.0
 10
992.0
 20
-328.0
 30
0.0
  0
HATCH
  5
B6
330
70
100
AcDbEntity
  8
TEXT
 62
    18
420
        0
440
 33554687
100
AcDbHatch
 10
0.0
 20
0.0
 30
0.0
210
0.0
220
0.0
230
1.0
  2
SOLID
 70
     1
 71
     1
 91
        1
 92
        1
 93
        1
 72
     4
 94
        3
 73
     0
 74
     0
 95
       32
 96
       28
 40
0.0
 40
0.0
 40
0.0
 40
0.0
 40
1.0
 40
1.0
 40
1.0
 40
2.0
 40
2.0
 40
2.0
 40
3.0
 40
3.0
 40
3.0
 40
4.0
 40
4.0
 40
4.0
 40
5.0
 40
5.0
 40
5.0
 40
6.0
 40
6.0
 40
6.0
 40
7.0
 40
7.0
 40
7.0
 40
8.0
 40
8.0
 40
8.0
 40
9.0
 40
9.0
 40
9.0
 40
9.0
 10
992.0
 20
-328.0
 10
995.6666870117187
 20
-328.0
 10
999.3333129882811
 20
-328.0
 10
1003.0
 20
-328.0
 10
1003.0
 20
-355.0
 10
1003.0
 20
-382.0
 10
1003.0
 20
-409.0
 10
986.6666564941406
 20
-390.6666564941406
 10
970.3333435058594
 20
-372.3333435058594
 10
954.0
 20
-354.0
 10
954.0
 20
-372.6666564941406
 10
954.0
 20
-391.3333435058594
 10
954.0
 20
-410.0
 10
950.3333435058593
 20
-410.0
 10
946.6666564941405
 20
-410.0
 10
943.0
 20
-410.0
 10
943.0
 20
-381.6666564941406
 10
943.0
 20
-353.3333435058594
 10
943.0
 20
-325.0
 10
945.3340759277343
 20
-327.6597595214844
 10
947.6674194335938
 20
-330.3264465332031
 10
950.0
 20
-333.0
 10
964.2553405761718
 20
-349.33935546875
 10
978.253662109375
 20
-365.6753540039062
 10
992.0
 20
-382.0
 10
992.0
 20
-364.0
 10
992.0
 20
-346.0
 10
992.0
 20
-328.0
 97
        0
 97
        1
330
B5
 75
     2
 76
     1
 98
        1
 10
0.0
 20
0.0
450
        0
451
        0
460
0.0
461
0.0
452
        0
462
0.0
453
        0
470

  0
SPLINE
  5
B7
330
70
100
AcDbEntity
  8
TEXT
100
AcDbSpline
210
0.0
220
0.0
230
1.0
 70
     9
 71
     3
 72
    74
 73
    70
 74
     0
 42
0.0000000001
 43
0.0000000001
 40
0.0
 40
0.0
 40
0.0
 40
0.0
 40
1.0
 40
1.0
 40
1.0
 40
2.0
 40
2.0
 40
2.0
 40
3.0
 40
3.0
 40
3.0
 40
4.0
 40
4.0
 40
4.0
 40
5.0
 40
5.0
 40
5.0
 40
6.0
 40
6.0
 40
6.0
 40
7.0
 40
7.0
 40
7.0
 40
8.0
 40
8.0
 40
8.0
 40
9.0
 40
9.0
 40
9.0
 40
10.0
 40
10.0
 40
10.0
 40
11.0
 40
11.0
 40
11.0
 40
12.0
 40
12.0
 40
12.0
 40
13.0
 40
13.0
 40
13.0
 40
14.0
 40
14.0
 40
14.0
 40
15.0
 40
15.0
 40
15.0
 40
16.0
 40
16.0
 40
16.0
 40
17.0
 40
17.0
 40
17.0
 40
18.0
 40
18.0
 40
18.0
 40
19.0
 40
19.0
 40
19.0
 40
20.0
 40
20.0
 40
20.0
 40
21.0
 40
21.0
 40
21.0
 40
22.0
 40
22.0
 40
22.0
 40
23.0
 40
23.0
 40
23.0
 40
23.0
 10
1045.463877576463
 20
-373.9939068733383
 30
0.0
 10
1045.463877576463
 20
-373.9939068733383
 30
0.0
 10
1036.351572888963
 20
-368.4577740608383
 30
0.0
 10
1036.351572888963
 20
-368.4577740608383
 30
0.0
 10
1030.635752576463
 20
-364.9675396858384
 30
0.0
 10
1026.569346326463
 20
-361.5344342170883
 30
0.0
 10
1024.151377576463
 20
-358.1565045295883
 30
0.0
 10
1021.732432263963
 20
-354.7795514045883
 30
0.0
 10
1020.524424451463
 20
-350.8928326545884
 30
0.0
 10
1020.524424451463
 20
-346.4958599983384
 30
0.0
 10
1020.524424451463
 20
-339.9011334358383
 30
0.0
 10
1022.811533826463
 20
-334.5461529670883
 30
0.0
 10
1027.388682263963
 20
-330.4289654670883
 30
0.0
 10
1031.964854138963
 20
-326.3127545295883
 30
0.0
 10
1037.910166638963
 20
-324.2541607795883
 30
0.0
 10
1045.223643201463
 20
-324.2541607795883
 30
0.0
 10
1052.217783826463
 20
-324.2541607795883
 30
0.0
 10
1058.632822888963
 20
-326.2175396858383
 30
0.0
 10
1064.468760388963
 20
-330.1442974983384
 30
0.0
 10
1062.823252576463
 20
-333.7058209358383
 30
0.0
 10
1061.177744763963
 20
-337.2673443733384
 30
0.0
 10
1059.532236951463
 20
-340.8288678108383
 30
0.0
 10
1057.609324353807
 20
-339.1839398323227
 30
0.0
 10
1052.284251111619
 20
-335.0871685920883
 30
0.0
 10
1044.984385388963
 20
-335.0451764045883
 30
0.0
 10
1043.486704724901
 20
-335.0365704475571
 30
0.0
 10
1038.998118299119
 20
-335.1238202034165
 30
0.0
 10
1035.332041638963
 20
-337.7624615608383
 30
0.0
 10
1032.814463513963
 20
-339.5744732795884
 30
0.0
 10
1031.554697888963
 20
-341.8928326545883
 30
0.0
 10
1031.554697888963
 20
-344.7190045295883
 30
0.0
 10
1031.554697888963
 20
-347.2273053108383
 30
0.0
 10
1032.482432263963
 20
-349.5769146858383
 30
0.0
 10
1034.336924451463
 20
-351.7658795295883
 30
0.0
 10
1036.192393201463
 20
-353.9558209358383
 30
0.0
 10
1039.174815076463
 20
-356.2546490608383
 30
0.0
 10
1043.285166638963
 20
-358.6633404670883
 30
0.0
 10
1043.285166638963
 20
-358.6633404670883
 30
0.0
 10
1052.442393201463
 20
-364.0822857795884
 30
0.0
 10
1052.442393201463
 20
-364.0822857795884
 30
0.0
 10
1062.657236951463
 20
-370.1838482795884
 30
0.0
 10
1067.765635388963
 20
-377.9504498420883
 30
0.0
 10
1067.765635388963
 20
-387.3825787483383
 30
0.0
 10
1067.765635388963
 20
-394.0969342170884
 30
0.0
 10
1065.517588513963
 20
-399.5525006233383
 30
0.0
 10
1061.021494763963
 20
-403.7487896858383
 30
0.0
 10
1056.524424451463
 20
-407.9460553108383
 30
0.0
 10
1050.679697888963
 20
-410.0437115608383
 30
0.0
 10
1043.485361951463
 20
-410.0437115608383
 30
0.0
 10
1038.568552869432
 20
-410.0437115608383
 30
0.0
 10
1034.772532361619
 20
-409.1352948127914
 30
0.0
 10
1033.059092420213
 20
-408.5861615120101
 30
0.0
 10
1025.327036756151
 20
-406.1081646858383
 30
0.0
 10
1020.586375135057
 20
-401.2356366096664
 30
0.0
 10
1018.532236951463
 20
-398.8288678108384
 30
0.0
 10
1021.532236951463
 20
-396.495524304979
 30
0.0
 10
1024.532236951463
 20
-394.1622113166977
 30
0.0
 10
1027.532236951463
 20
-391.8288678108384
 30
0.0
 10
1028.613108533494
 20
-393.0441693245102
 30
0.0
 10
1034.741831678026
 20
-399.7179974495102
 30
0.0
 10
1043.365244763963
 20
-399.4924420295884
 30
0.0
 10
1044.744700330369
 20
-399.4563702522446
 30
0.0
 10
1049.215708631151
 20
-399.3138531624008
 30
0.0
 10
1052.748057263963
 20
-396.3562115608383
 30
0.0
 10
1055.245127576463
 20
-394.2653912483383
 30
0.0
 10
1056.495127576463
 20
-391.6472271858383
 30
0.0
 10
1056.495127576463
 20
-388.5007428108384
 30
0.0
 10
1056.495127576463
 20
-383.4030865608383
 30
0.0
 10
1052.817393201463
 20
-378.5676373420884
 30
0.0
 10
1045.463877576463
 20
-373.9939068733383
 30
0.0
  0
HATCH
  5
B8
330
70
100
AcDbEntity
  8
TEXT
 62
    18
420
        0
440
 33554687
100
AcDbHatch
 10
0.0
 20
0.0
 30
0.0
210
0.0
220
0.0
230
1.0
  2
SOLID
 70
     1
 71
     1
 91
        1
 92
        1
 93
        1
 72
     4
 94
        3
 73
     0
 74
     0
 95
       74
 96
       70
 40
0.0
 40
0.0
 40
0.0
 40
0.0
 40
1.0
 40
1.0
 40
1.0
 40
2.0
 40
2.0
 40
2.0
 40
3.0
 40
3.0
 40
3.0
 40
4.0
 40
4.0
 40
4.0
 40
5.0
 40
5.0
 40
5.0
 40
6.0
 40
6.0
 40
6.0
 40
7.0
 40
7.0
 40
7.0
 40
8.0
 40
8.0
 40
8.0
 40
9.0
 40
9.0
 40
9.0
 40
10.0
 40
10.0
 40
10.0
 40
11.0
 40
11.0
 40
11.0
 40
12.0
 40
12.0
 40
12.0
 40
13.0
 40
13.0
 40
13.0
 40
14.0
 40
14.0
 40
14.0
 40
15.0
 40
15.0
 40
15.0
 40
16.0
 40
16.0
 40
16.0
 40
17.0
 40
17.0
 40
17.0
 40
18.0
 40
18.0
 40
18.0
 40
19.0
 40
19.0
 40
19.0
 40
20.0
 40
20.0
 40
20.0
 40
21.0
 40
21.0
 40
21.0
 40
22.0
 40
22.0
 40
22.0
 40
23.0
 40
23.0
 40
23.0
 40
23.0
 10
1045.463877576463
 20
-373.9939068733383
 10
1045.463877576463
 20
-373.9939068733383
 10
1036.351572888963
 20
-368.4577740608383
 10
1036.351572888963
 20
-368.4577740608383
 10
1030.635752576463
 20
-364.9675396858384
 10
1026.569346326463
 20
-361.5344342170883
 10
1024.151377576463
 20
-358.1565045295883
 10
1021.732432263963
 20
-354.7795514045883
 10
1020.524424451463
 20
-350.8928326545884
 10
1020.524424451463
 20
-346.4958599983384
 10
1020.524424451463
 20
-339.9011334358383
 10
1022.811533826463
 20
-334.5461529670883
 10
1027.388682263963
 20
-330.4289654670883
 10
1031.964854138963
 20
-326.3127545295883
 10
1037.910166638963
 20
-324.2541607795883
 10
1045.223643201463
 20
-324.2541607795883
 10
1052.217783826463
 20
-324.2541607795883
 10
1058.632822888963
 20
-326.2175396858383
 10
1064.468760388963
 20
-330.1442974983384
 10
1062.823252576463
 20
-333.7058209358383
 10
1061.177744763963
 20
-337.2673443733384
 10
1059.532236951463
 20
-340.8288678108383
 10
1057.609324353807
 20
-339.1839398323227
 10
1052.284251111619
 20
-335.0871685920883
 10
1044.984385388963
 20
-335.0451764045883
 10
1043.486704724901
 20
-335.0365704475571
 10
1038.998118299119
 20
-335.1238202034165
 10
1035.332041638963
 20
-337.7624615608383
 10
1032.814463513963
 20
-339.5744732795884
 10
1031.554697888963
 20
-341.8928326545883
 10
1031.554697888963
 20
-344.7190045295883
 10
1031.554697888963
 20
-347.2273053108383
 10
1032.482432263963
 20
-349.5769146858383
 10
1034.336924451463
 20
-351.7658795295883
 10
1036.192393201463
 20
-353.9558209358383
 10
1039.174815076463
 20
-356.2546490608383
 10
1043.285166638963
 20
-358.6633404670883
 10
1043.285166638963
 20
-358.6633404670883
 10
1052.442393201463
 20
-364.0822857795884
 10
1052.442393201463
 20
-364.0822857795884
 10
1062.657236951463
 20
-370.1838482795884
 10
1067.765635388963
 20
-377.9504498420883
 10
1067.765635388963
 20
-387.3825787483383
 10
1067.765635388963
 20
-394.0969342170884
 10
1065.517588513963
 20
-399.5525006233383
 10
1061.021494763963
 20
-403.7487896858383
 10
1056.524424451463
 20
-407.9460553108383
 10
1050.679697888963
 20
-410.0437115608383
 10
1043.485361951463
 20
-410.0437115608383
 10
1038.568552869432
 20
-410.0437115608383
 10
1034.772532361619
 20
-409.1352948127914
 10
1033.059092420213
 20
-408.5861615120101
 10
1025.327036756151
 20
-406.1081646858383
 10
1020.586375135057
 20
-401.2356366096664
 10
1018.532236951463
 20
-398.8288678108384
 10
1021.532236951463
 20
-396.495524304979
 10
1024.532236951463
 20
-394.1622113166977
 10
1027.532236951463
 20
-391.8288678108384
 10
1028.613108533494
 20
-393.0441693245102
 10
1034.741831678026
 20
-399.7179974495102
 10
1043.365244763963
 20
-399.4924420295884
 10
1044.744700330369
 20
-399.4563702522446
 10
1049.215708631151
 20
-399.3138531624008
 10
1052.748057263963
 20
-396.3562115608383
 10
1055.245127576463
 20
-394.2653912483383
 10
1056.495127576463
 20
-391.6472271858383
 10
1056.495127576463
 20
-388.5007428108384
 10
1056.495127576463
 20
-383.4030865608383
 10
1052.817393201463
 20
-378.5676373420884
 10
1045.463877576463
 20
-373.9939068733383
 97
        0
 97
        1
330
B7
 75
     2
 76
     1
 98
        1
 10
0.0
 20
0.0
450
        0
451
        0
460
0.0
461
0.0
452
        0
462
0.0
453
        0
470

  0
LWPOLYLINE
  5
B9
330
70
100
AcDbEntity
  8
TEXT
100
AcDbPolyline
 90
        1
 70
     0
 43
0.0
 10
628.0
 20
-310.0
  0
HATCH
  5
BA
330
70
100
AcDbEntity
  8
TEXT
 62
     2
420
 16769838
440
 33554687
100
AcDbHatch
 10
0.0
 20
0.0
 30
0.0
210
0.0
220
0.0
230
1.0
  2
SOLID
 70
     1
 71
     1
 91
        1
 92
        3
 72
     0
 73
     1
 93
        1
 10
628.0
 20
-310.0
 97
        0
 75
     2
 76
     1
 98
        1
 10
0.0
 20
0.0
450
        0
451
        0
460
0.0
461
0.0
452
        0
462
0.0
453
        0
470

  0
LWPOLYLINE
  5
BB
330
70
100
AcDbEntity
  8
TEXT
100
AcDbPolyline
 90
        1
 70
     0
 43
0.0
 10
626.0
 20
-304.0
  0
HATCH
  5
BC
330
70
100
AcDbEntity
  8
TEXT
 62
     2
420
 16769838
440
 33554687
100
AcDbHatch
 10
0.0
 20
0.0
 30
0.0
210
0.0
220
0.0
230
1.0
  2
SOLID
 70
     1
 71
     1
 91
        1
 92
        3
 72
     0
 73
     1
 93
        1
 10
626.0
 20
-304.0
 97
        0
 75
     2
 76
     1
 98
        1
 10
0.0
 20
0.0
450
        0
451
        0
460
0.0
461
0.0
452
        0
462
0.0
453
        0
470

  0
LWPOLYLINE
  5
BD
330
70
100
AcDbEntity
  8
TEXT
100
AcDbPolyline
 90
        1
 70
     0
 43
0.0
 10
600.0
 20
-390.0
  0
HATCH
  5
BE
330
70
100
AcDbEntity
  8
TEXT
 62
     2
420
 16769838
440
 33554687
100
AcDbHatch
 10
0.0
 20
0.0
 30
0.0
210
0.0
220
0.0
230
1.0
  2
SOLID
 70
     1
 71
     1
 91
        1
 92
        3
 72
     0
 73
     1
 93
        1
 10
600.0
 20
-390.0
 97
        0
 75
     2
 76
     1
 98
        1
 10
0.0
 20
0.0
450
        0
451
        0
460
0.0
461
0.0
452
        0
462
0.0
453
        0
470

  0
MTEXT
  5
BF
330
70
100
AcDbEntity
  8
TEXT
100
AcDbMText
 10
656.869140625
 20
-465.6376953125
 30
0.0
 40
0.2
 41
0.0
 46
0.0
 71
     7
 72
     1
  1
\C18;\c0;\FChillax Light|b0|i0|c1;\H21.791348;\W0.959040;powered by
 73
     1
 44
1.0
  0
MTEXT
  5
C0
330
70
100
AcDbEntity
  8
TEXT
100
AcDbMText
 10
831.0
 20
-464.6269531249999
 30
0.0
 40
0.2
 41
0.0
 46
0.0
 71
     7
 72
     1
  1
\C18;\c0;\FGill Sans MT|b0|i0|c1;\H24.101134;\W0.853850;I LOVE MONDAYS
 73
     1
 44
1.0
  0
LWPOLYLINE
  5
C1
330
70
100
AcDbEntity
  8
TEXT
 62
    18
420
        0
370
   106
100
AcDbPolyline
 90
        1
 70
     0
 43
0.0
 10
667.4999999999999
 20
-291.5
  0
MTEXT
  5
C2
330
70
100
AcDbEntity
  8
TEXT
100
AcDbMText
 10
305.0356597900391
 20
-1198.027648925781
 30
0.0
 40
0.2
 41
0.0
 46
0.0
 71
     7
 72
     1
  1
\C7;\c16777215;\FGill Sans MT Bold|b1|i0|c1;\H138.136249;\W0.685790;T
 73
     1
 44
1.0
  0
SPLINE
  5
C3
330
70
100
AcDbEntity
  8
TEXT
100
AcDbSpline
210
0.0
220
0.0
230
1.0
 70
    11
 71
     3
 72
    41
 73
    37
 74
     0
 42
0.0000000001
 43
0.0000000001
 40
0.0
 40
0.0
 40
0.0
 40
0.0
 40
1.0
 40
1.0
 40
1.0
 40
2.0
 40
2.0
 40
2.0
 40
3.0
 40
3.0
 40
3.0
 40
4.0
 40
4.0
 40
4.0
 40
5.0
 40
5.0
 40
5.0
 40
6.0
 40
6.0
 40
6.0
 40
7.0
 40
7.0
 40
7.0
 40
8.0
 40
8.0
 40
8.0
 40
9.0
 40
9.0
 40
9.0
 40
10.0
 40
10.0
 40
10.0
 40
11.0
 40
11.0
 40
11.0
 40
12.0
 40
12.0
 40
12.0
 40
12.0
 10
397.6245221077143
 20
-1118.983237408576
 30
0.0
 10
397.6245221077143
 20
-1118.983237408576
 30
0.0
 10
442.6001080452143
 20
-1118.983237408576
 30
0.0
 10
442.6001080452143
 20
-1118.983237408576
 30
0.0
 10
442.6001080452143
 20
-1118.983237408576
 30
0.0
 10
442.6001080452143
 20
-1129.091635846076
 30
0.0
 10
442.6001080452143
 20
-1129.091635846076
 30
0.0
 10
442.6001080452143
 20
-1129.091635846076
 30
0.0
 10
408.9819439827143
 20
-1129.091635846076
 30
0.0
 10
408.9819439827143
 20
-1129.091635846076
 30
0.0
 10
408.9819439827143
 20
-1129.091635846076
 30
0.0
 10
408.9819439827143
 20
-1153.283042096076
 30
0.0
 10
408.9819439827143
 20
-1153.283042096076
 30
0.0
 10
418.0786236702142
 20
-1153.299491070685
 30
0.0
 10
427.1753033577142
 20
-1153.315909527717
 30
0.0
 10
436.2719830452142
 20
-1153.332358502326
 30
0.0
 10
436.2719830452142
 20
-1156.665702008186
 30
0.0
 10
436.2719830452142
 20
-1159.999014996467
 30
0.0
 10
436.2719830452142
 20
-1163.332358502326
 30
0.0
 10
427.1753033577142
 20
-1163.370932721076
 30
0.0
 10
418.0786236702142
 20
-1163.409506939826
 30
0.0
 10
408.9819439827143
 20
-1163.448081158576
 30
0.0
 10
408.9819439827143
 20
-1163.448081158576
 30
0.0
 10
408.9819439827143
 20
-1188.094077252326
 30
0.0
 10
408.9819439827143
 20
-1188.094077252326
 30
0.0
 10
408.9819439827143
 20
-1188.094077252326
 30
0.0
 10
443.6792096077142
 20
-1188.094077252326
 30
0.0
 10
443.6792096077142
 20
-1188.094077252326
 30
0.0
 10
443.6792096077142
 20
-1188.094077252326
 30
0.0
 10
443.6792096077142
 20
-1198.202475689826
 30
0.0
 10
443.6792096077142
 20
-1198.202475689826
 30
0.0
 10
443.6792096077142
 20
-1198.202475689826
 30
0.0
 10
397.6245221077143
 20
-1198.202475689826
 30
0.0
 10
397.6245221077143
 20
-1198.202475689826
 30
0.0
 10
397.6245221077143
 20
-1198.202475689826
 30
0.0
 10
397.6245221077143
 20
-1118.983237408576
 30
0.0
 10
397.6245221077143
 20
-1118.983237408576
 30
0.0
  0
SPLINE
  5
C4
330
70
100
AcDbEntity
  8
TEXT
100
AcDbSpline
210
0.0
220
0.0
230
1.0
 70
    11
 71
     3
 72
    41
 73
    37
 74
     0
 42
0.0000000001
 43
0.0000000001
 40
0.0
 40
0.0
 40
0.0
 40
0.0
 40
1.0
 40
1.0
 40
1.0
 40
2.0
 40
2.0
 40
2.0
 40
3.0
 40
3.0
 40
3.0
 40
4.0
 40
4.0
 40
4.0
 40
5.0
 40
5.0
 40
5.0
 40
6.0
 40
6.0
 40
6.0
 40
7.0
 40
7.0
 40
7.0
 40
8.0
 40
8.0
 40
8.0
 40
9.0
 40
9.0
 40
9.0
 40
10.0
 40
10.0
 40
10.0
 40
11.0
 40
11.0
 40
11.0
 40
12.0
 40
12.0
 40
12.0
 40
12.0
 10
464.8403839760667
 20
-1118.765292553193
 30
0.0
 10
464.8403839760667
 20
-1118.765292553193
 30
0.0
 10
509.8159699135667
 20
-1118.765292553193
 30
0.0
 10
509.8159699135667
 20
-1118.765292553193
 30
0.0
 10
509.8159699135667
 20
-1118.765292553193
 30
0.0
 10
509.8159699135667
 20
-1128.873690990693
 30
0.0
 10
509.8159699135667
 20
-1128.873690990693
 30
0.0
 10
509.8159699135667
 20
-1128.873690990693
 30
0.0
 10
476.1978058510667
 20
-1128.873690990693
 30
0.0
 10
476.1978058510667
 20
-1128.873690990693
 30
0.0
 10
476.1978058510667
 20
-1128.873690990693
 30
0.0
 10
476.1978058510667
 20
-1153.065097240693
 30
0.0
 10
476.1978058510667
 20
-1153.065097240693
 30
0.0
 10
485.2944855385667
 20
-1153.081546215302
 30
0.0
 10
494.3911652260667
 20
-1153.097964672333
 30
0.0
 10
503.4878449135667
 20
-1153.114413646943
 30
0.0
 10
503.4878449135667
 20
-1156.447757152802
 30
0.0
 10
503.4878449135667
 20
-1159.781070141083
 30
0.0
 10
503.4878449135667
 20
-1163.114413646943
 30
0.0
 10
494.3911652260667
 20
-1163.152987865693
 30
0.0
 10
485.2944855385667
 20
-1163.191562084443
 30
0.0
 10
476.1978058510667
 20
-1163.230136303193
 30
0.0
 10
476.1978058510667
 20
-1163.230136303193
 30
0.0
 10
476.1978058510667
 20
-1187.876132396943
 30
0.0
 10
476.1978058510667
 20
-1187.876132396943
 30
0.0
 10
476.1978058510667
 20
-1187.876132396943
 30
0.0
 10
510.8950714760667
 20
-1187.876132396943
 30
0.0
 10
510.8950714760667
 20
-1187.876132396943
 30
0.0
 10
510.8950714760667
 20
-1187.876132396943
 30
0.0
 10
510.8950714760667
 20
-1197.984530834443
 30
0.0
 10
510.8950714760667
 20
-1197.984530834443
 30
0.0
 10
510.8950714760667
 20
-1197.984530834443
 30
0.0
 10
464.8403839760667
 20
-1197.984530834443
 30
0.0
 10
464.8403839760667
 20
-1197.984530834443
 30
0.0
 10
464.8403839760667
 20
-1197.984530834443
 30
0.0
 10
464.8403839760667
 20
-1118.765292553193
 30
0.0
 10
464.8403839760667
 20
-1118.765292553193
 30
0.0
  0
SPLINE
  5
C5
330
70
100
AcDbEntity
  8
TEXT
100
AcDbSpline
210
0.0
220
0.0
230
1.0
 70
     9
 71
     3
 72
    32
 73
    28
 74
     0
 42
0.0000000001
 43
0.0000000001
 40
0.0
 40
0.0
 40
0.0
 40
0.0
 40
1.0
 40
1.0
 40
1.0
 40
2.0
 40
2.0
 40
2.0
 40
3.0
 40
3.0
 40
3.0
 40
4.0
 40
4.0
 40
4.0
 40
5.0
 40
5.0
 40
5.0
 40
6.0
 40
6.0
 40
6.0
 40
7.0
 40
7.0
 40
7.0
 40
8.0
 40
8.0
 40
8.0
 40
9.0
 40
9.0
 40
9.0
 40
9.0
 10
578.2719830452142
 20
-1116.332358502326
 30
0.0
 10
581.938670056933
 20
-1116.332358502326
 30
0.0
 10
585.6052960334955
 20
-1116.332358502326
 30
0.0
 10
589.2719830452143
 20
-1116.332358502326
 30
0.0
 10
589.2719830452143
 20
-1143.332358502326
 30
0.0
 10
589.2719830452143
 20
-1170.332358502326
 30
0.0
 10
589.2719830452143
 20
-1197.332358502326
 30
0.0
 10
572.9386395393548
 20
-1178.999014996467
 30
0.0
 10
556.6053265510736
 20
-1160.665702008185
 30
0.0
 10
540.2719830452142
 20
-1142.332358502326
 30
0.0
 10
540.2719830452142
 20
-1160.999014996467
 30
0.0
 10
540.2719830452142
 20
-1179.665702008185
 30
0.0
 10
540.2719830452142
 20
-1198.332358502326
 30
0.0
 10
536.6053265510736
 20
-1198.332358502326
 30
0.0
 10
532.9386395393548
 20
-1198.332358502326
 30
0.0
 10
529.2719830452142
 20
-1198.332358502326
 30
0.0
 10
529.2719830452142
 20
-1169.999014996467
 30
0.0
 10
529.2719830452142
 20
-1141.665702008185
 30
0.0
 10
529.2719830452142
 20
-1113.332358502326
 30
0.0
 10
531.6060589729486
 20
-1115.992118023811
 30
0.0
 10
533.939402478808
 20
-1118.658805035529
 30
0.0
 10
536.2719830452142
 20
-1121.332358502326
 30
0.0
 10
550.5273236213861
 20
-1137.671713971076
 30
0.0
 10
564.5256451545892
 20
-1154.007712506232
 30
0.0
 10
578.2719830452142
 20
-1170.332358502326
 30
0.0
 10
578.2719830452142
 20
-1152.332358502326
 30
0.0
 10
578.2719830452142
 20
-1134.332358502326
 30
0.0
 10
578.2719830452142
 20
-1116.332358502326
 30
0.0
  0
MTEXT
  5
C6
330
70
100
AcDbEntity
  8
TEXT
100
AcDbMText
 10
734.4702301025391
 20
-1198.160461425781
 30
0.0
 40
0.2
 41
0.0
 46
0.0
 71
     7
 72
     1
  1
\C7;\c16777215;\FGill Sans MT|b0|i0|c1;\H85.725722;\W0.841130;T
 73
     1
 44
1.0
  0
SPLINE
  5
C7
330
70
100
AcDbEntity
  8
TEXT
100
AcDbSpline
210
0.0
220
0.0
230
1.0
 70
    11
 71
     3
 72
    41
 73
    37
 74
     0
 42
0.0000000001
 43
0.0000000001
 40
0.0
 40
0.0
 40
0.0
 40
0.0
 40
1.0
 40
1.0
 40
1.0
 40
2.0
 40
2.0
 40
2.0
 40
3.0
 40
3.0
 40
3.0
 40
4.0
 40
4.0
 40
4.0
 40
5.0
 40
5.0
 40
5.0
 40
6.0
 40
6.0
 40
6.0
 40
7.0
 40
7.0
 40
7.0
 40
8.0
 40
8.0
 40
8.0
 40
9.0
 40
9.0
 40
9.0
 40
10.0
 40
10.0
 40
10.0
 40
11.0
 40
11.0
 40
11.0
 40
12.0
 40
12.0
 40
12.0
 40
12.0
 10
807.6488946143635
 20
-1115.684487966533
 30
0.0
 10
807.6488946143635
 20
-1115.684487966533
 30
0.0
 10
854.1561324787162
 20
-1115.684487966533
 30
0.0
 10
854.1561324787162
 20
-1115.684487966533
 30
0.0
 10
854.1561324787162
 20
-1115.684487966533
 30
0.0
 10
854.1561324787162
 20
-1126.137129789003
 30
0.0
 10
854.1561324787162
 20
-1126.137129789003
 30
0.0
 10
854.1561324787162
 20
-1126.137129789003
 30
0.0
 10
819.3930955993256
 20
-1126.137129789003
 30
0.0
 10
819.3930955993256
 20
-1126.137129789003
 30
0.0
 10
819.3930955993256
 20
-1126.137129789003
 30
0.0
 10
819.3930955993256
 20
-1151.152378868924
 30
0.0
 10
819.3930955993256
 20
-1151.152378868924
 30
0.0
 10
828.7995644019847
 20
-1151.169388016416
 30
0.0
 10
838.2060332046439
 20
-1151.186365607049
 30
0.0
 10
847.6125020072995
 20
-1151.203374754541
 30
0.0
 10
847.6125020072995
 20
-1154.650235892182
 30
0.0
 10
847.6125020072995
 20
-1158.097065472962
 30
0.0
 10
847.6125020072995
 20
-1161.543926610604
 30
0.0
 10
838.2060332046439
 20
-1161.583814481533
 30
0.0
 10
828.7995644019847
 20
-1161.623702352462
 30
0.0
 10
819.3930955993256
 20
-1161.663590223392
 30
0.0
 10
819.3930955993256
 20
-1161.663590223392
 30
0.0
 10
819.3930955993256
 20
-1187.148910288566
 30
0.0
 10
819.3930955993256
 20
-1187.148910288566
 30
0.0
 10
819.3930955993256
 20
-1187.148910288566
 30
0.0
 10
855.2719830452133
 20
-1187.148910288566
 30
0.0
 10
855.2719830452133
 20
-1187.148910288566
 30
0.0
 10
855.2719830452133
 20
-1187.148910288566
 30
0.0
 10
855.2719830452133
 20
-1197.601552111037
 30
0.0
 10
855.2719830452133
 20
-1197.601552111037
 30
0.0
 10
855.2719830452133
 20
-1197.601552111037
 30
0.0
 10
807.6488946143635
 20
-1197.601552111037
 30
0.0
 10
807.6488946143635
 20
-1197.601552111037
 30
0.0
 10
807.6488946143635
 20
-1197.601552111037
 30
0.0
 10
807.6488946143635
 20
-1115.684487966533
 30
0.0
 10
807.6488946143635
 20
-1115.684487966533
 30
0.0
  0
SPLINE
  5
C8
330
70
100
AcDbEntity
  8
TEXT
100
AcDbSpline
210
0.0
220
0.0
230
1.0
 70
     9
 71
     3
 72
    32
 73
    28
 74
     0
 42
0.0000000001
 43
0.0000000001
 40
0.0
 40
0.0
 40
0.0
 40
0.0
 40
1.0
 40
1.0
 40
1.0
 40
2.0
 40
2.0
 40
2.0
 40
3.0
 40
3.0
 40
3.0
 40
4.0
 40
4.0
 40
4.0
 40
5.0
 40
5.0
 40
5.0
 40
6.0
 40
6.0
 40
6.0
 40
7.0
 40
7.0
 40
7.0
 40
8.0
 40
8.0
 40
8.0
 40
9.0
 40
9.0
 40
9.0
 40
9.0
 10
891.6683568042335
 20
-1128.076619893802
 30
0.0
 10
891.6683568042335
 20
-1128.076619893802
 30
0.0
 10
887.1234410394153
 20
-1128.076619893802
 30
0.0
 10
887.1234410394153
 20
-1128.076619893802
 30
0.0
 10
887.1234410394153
 20
-1128.076619893802
 30
0.0
 10
887.1234410394153
 20
-1161.480838538591
 30
0.0
 10
887.1234410394153
 20
-1161.480838538591
 30
0.0
 10
887.1234410394153
 20
-1161.480838538591
 30
0.0
 10
892.8806046308872
 20
-1161.480838538591
 30
0.0
 10
892.8806046308872
 20
-1161.480838538591
 30
0.0
 10
900.5554713059991
 20
-1161.480838538591
 30
0.0
 10
905.8200325197521
 20
-1160.825048953435
 30
0.0
 10
908.6732746870056
 20
-1159.511442612846
 30
0.0
 10
911.5255032691184
 20
-1158.198849857395
 30
0.0
 10
913.7482954796997
 20
-1156.216277324838
 30
0.0
 10
915.3386105633307
 20
-1153.565245392883
 30
0.0
 10
916.9289256469619
 20
-1150.91421346093
 30
0.0
 10
917.7245899813479
 20
-1147.897277293674
 30
0.0
 10
917.7245899813479
 20
-1144.513423305974
 30
0.0
 10
917.7245899813479
 20
-1141.18075536781
 30
0.0
 10
916.84074373984
 20
-1138.163819200554
 30
0.0
 10
915.0740648419651
 20
-1135.462108011632
 30
0.0
 10
913.3053587738086
 20
-1132.761410407849
 30
0.0
 10
910.8190344269987
 20
-1130.854349968174
 30
0.0
 10
907.613064631254
 20
-1129.742953862884
 30
0.0
 10
904.4050676652277
 20
-1128.633078135301
 30
0.0
 10
899.0908407796469
 20
-1128.076619893802
 30
0.0
 10
891.6683568042335
 20
-1128.076619893802
 30
0.0
  0
SPLINE
  5
C9
330
70
100
AcDbEntity
  8
TEXT
100
AcDbSpline
210
0.0
220
0.0
230
1.0
 70
     8
 71
     3
 72
    47
 73
    43
 74
     0
 42
0.0000000001
 43
0.0000000001
 40
0.0
 40
0.0
 40
0.0
 40
0.0
 40
1.0
 40
1.0
 40
1.0
 40
2.0
 40
2.0
 40
2.0
 40
3.0
 40
3.0
 40
3.0
 40
4.0
 40
4.0
 40
4.0
 40
5.0
 40
5.0
 40
5.0
 40
6.0
 40
6.0
 40
6.0
 40
7.0
 40
7.0
 40
7.0
 40
8.0
 40
8.0
 40
8.0
 40
9.0
 40
9.0
 40
9.0
 40
10.0
 40
10.0
 40
10.0
 40
11.0
 40
11.0
 40
11.0
 40
12.0
 40
12.0
 40
12.0
 40
13.0
 40
13.0
 40
13.0
 40
14.0
 40
14.0
 40
14.0
 40
14.0
 10
915.2719830452133
 20
-1198.332358502326
 30
0.0
 10
908.9085797249008
 20
-1190.733634137092
 30
0.0
 10
902.5452374397445
 20
-1183.134940289435
 30
0.0
 10
896.1818341194321
 20
-1175.536215924201
 30
0.0
 10
894.4519757209945
 20
-1175.536215924201
 30
0.0
 10
892.7221783577133
 20
-1175.536215924201
 30
0.0
 10
890.9923199592759
 20
-1175.536215924201
 30
0.0
 10
889.6084088264633
 20
-1175.536215924201
 30
0.0
 10
888.2244976936508
 20
-1175.536215924201
 30
0.0
 10
886.8406475959945
 20
-1175.536215924201
 30
0.0
 10
886.9844464241195
 20
-1183.134940289435
 30
0.0
 10
887.1281842170883
 20
-1190.733634137092
 30
0.0
 10
887.2719830452133
 20
-1198.332358502326
 30
0.0
 10
882.2719830452133
 20
-1198.332358502326
 30
0.0
 10
877.2719830452134
 20
-1198.332358502326
 30
0.0
 10
872.2719830452133
 20
-1198.332358502326
 30
0.0
 10
872.172800916307
 20
-1170.621573590217
 30
0.0
 10
872.0735577522445
 20
-1142.910819195686
 30
0.0
 10
871.9743756233382
 20
-1115.200034283576
 30
0.0
 10
871.9743756233382
 20
-1115.200034283576
 30
0.0
 10
898.4857281624009
 20
-1115.200034283576
 30
0.0
 10
898.4857281624009
 20
-1115.200034283576
 30
0.0
 10
909.1901959358382
 20
-1115.200034283576
 30
0.0
 10
917.6870831428695
 20
-1117.851065777717
 30
0.0
 10
923.973338025682
 20
-1123.153128765998
 30
0.0
 10
930.2606305061509
 20
-1128.455710553107
 30
0.0
 10
933.4037579475571
 20
-1135.626303814826
 30
0.0
 10
933.4037579475571
 20
-1144.664939068732
 30
0.0
 10
933.4037579475571
 20
-1146.775717877326
 30
0.0
 10
933.1114605842758
 20
-1153.538748883185
 30
0.0
 10
928.7838238655258
 20
-1160.647666119514
 30
0.0
 10
926.9893902717758
 20
-1163.595328473029
 30
0.0
 10
923.6260479866196
 20
-1168.045279644904
 30
0.0
 10
917.977976697557
 20
-1171.384574078498
 30
0.0
 10
915.1842144905257
 20
-1173.036307476936
 30
0.0
 10
912.6018170295884
 20
-1173.961447857795
 30
0.0
 10
910.7125958381821
 20
-1174.49831309217
 30
0.0
 10
914.1674908577133
 20
-1178.281211041388
 30
0.0
 10
917.6273297249009
 20
-1182.086875103889
 30
0.0
 10
921.0917462288071
 20
-1185.915335797248
 30
0.0
 10
924.8445538459945
 20
-1190.062491558967
 30
0.0
 10
928.5712384163071
 20
-1194.201621197639
 30
0.0
 10
932.2719830452133
 20
-1198.332358502326
 30
0.0
  0
SPLINE
  5
CA
330
70
100
AcDbEntity
  8
TEXT
100
AcDbSpline
210
0.0
220
0.0
230
1.0
 70
     9
 71
     3
 72
    32
 73
    28
 74
     0
 42
0.0000000001
 43
0.0000000001
 40
0.0
 40
0.0
 40
0.0
 40
0.0
 40
1.0
 40
1.0
 40
1.0
 40
2.0
 40
2.0
 40
2.0
 40
3.0
 40
3.0
 40
3.0
 40
4.0
 40
4.0
 40
4.0
 40
5.0
 40
5.0
 40
5.0
 40
6.0
 40
6.0
 40
6.0
 40
7.0
 40
7.0
 40
7.0
 40
8.0
 40
8.0
 40
8.0
 40
9.0
 40
9.0
 40
9.0
 40
9.0
 10
713.2719830452133
 20
-1116.332358502326
 30
0.0
 10
716.9386700569321
 20
-1116.332358502326
 30
0.0
 10
720.6052960334946
 20
-1116.332358502326
 30
0.0
 10
724.2719830452133
 20
-1116.332358502326
 30
0.0
 10
724.2719830452133
 20
-1143.332358502326
 30
0.0
 10
724.2719830452133
 20
-1170.332358502326
 30
0.0
 10
724.2719830452133
 20
-1197.332358502326
 30
0.0
 10
707.9386395393539
 20
-1178.999014996467
 30
0.0
 10
691.6053265510726
 20
-1160.665702008185
 30
0.0
 10
675.2719830452133
 20
-1142.332358502326
 30
0.0
 10
675.2719830452133
 20
-1160.999014996467
 30
0.0
 10
675.2719830452133
 20
-1179.665702008185
 30
0.0
 10
675.2719830452133
 20
-1198.332358502326
 30
0.0
 10
671.6053265510727
 20
-1198.332358502326
 30
0.0
 10
667.9386395393549
 20
-1198.332358502326
 30
0.0
 10
664.2719830452143
 20
-1198.332358502326
 30
0.0
 10
664.2719830452143
 20
-1169.999014996467
 30
0.0
 10
664.2719830452143
 20
-1141.665702008185
 30
0.0
 10
664.2719830452143
 20
-1113.332358502326
 30
0.0
 10
666.6060589729486
 20
-1115.992118023811
 30
0.0
 10
668.939402478808
 20
-1118.658805035529
 30
0.0
 10
671.2719830452133
 20
-1121.332358502326
 30
0.0
 10
685.5273236213852
 20
-1137.671713971076
 30
0.0
 10
699.5256451545883
 20
-1154.007712506232
 30
0.0
 10
713.2719830452133
 20
-1170.332358502326
 30
0.0
 10
713.2719830452133
 20
-1152.332358502326
 30
0.0
 10
713.2719830452133
 20
-1134.332358502326
 30
0.0
 10
713.2719830452133
 20
-1116.332358502326
 30
0.0
  0
SPLINE
  5
CB
330
70
100
AcDbEntity
  8
TEXT
100
AcDbSpline
210
0.0
220
0.0
230
1.0
 70
     9
 71
     3
 72
    32
 73
    28
 74
     0
 42
0.0000000001
 43
0.0000000001
 40
0.0
 40
0.0
 40
0.0
 40
0.0
 40
1.0
 40
1.0
 40
1.0
 40
2.0
 40
2.0
 40
2.0
 40
3.0
 40
3.0
 40
3.0
 40
4.0
 40
4.0
 40
4.0
 40
5.0
 40
5.0
 40
5.0
 40
6.0
 40
6.0
 40
6.0
 40
7.0
 40
7.0
 40
7.0
 40
8.0
 40
8.0
 40
8.0
 40
9.0
 40
9.0
 40
9.0
 40
9.0
 10
998.2719830452133
 20
-1116.332358502326
 30
0.0
 10
1001.938670056932
 20
-1116.332358502326
 30
0.0
 10
1005.605296033494
 20
-1116.332358502326
 30
0.0
 10
1009.271983045213
 20
-1116.332358502326
 30
0.0
 10
1009.271983045213
 20
-1143.332358502326
 30
0.0
 10
1009.271983045213
 20
-1170.332358502326
 30
0.0
 10
1009.271983045213
 20
-1197.332358502326
 30
0.0
 10
992.9386395393539
 20
-1178.999014996467
 30
0.0
 10
976.6053265510727
 20
-1160.665702008185
 30
0.0
 10
960.2719830452134
 20
-1142.332358502326
 30
0.0
 10
960.2719830452134
 20
-1160.999014996467
 30
0.0
 10
960.2719830452134
 20
-1179.665702008185
 30
0.0
 10
960.2719830452134
 20
-1198.332358502326
 30
0.0
 10
956.6053265510728
 20
-1198.332358502326
 30
0.0
 10
952.938639539354
 20
-1198.332358502326
 30
0.0
 10
949.2719830452132
 20
-1198.332358502326
 30
0.0
 10
949.2719830452132
 20
-1169.999014996467
 30
0.0
 10
949.2719830452132
 20
-1141.665702008185
 30
0.0
 10
949.2719830452132
 20
-1113.332358502326
 30
0.0
 10
951.6060589729477
 20
-1115.992118023811
 30
0.0
 10
953.9394024788071
 20
-1118.658805035529
 30
0.0
 10
956.2719830452133
 20
-1121.332358502326
 30
0.0
 10
970.5273236213852
 20
-1137.671713971076
 30
0.0
 10
984.5256451545884
 20
-1154.007712506232
 30
0.0
 10
998.2719830452133
 20
-1170.332358502326
 30
0.0
 10
998.2719830452133
 20
-1152.332358502326
 30
0.0
 10
998.2719830452133
 20
-1134.332358502326
 30
0.0
 10
998.2719830452133
 20
-1116.332358502326
 30
0.0
  0
SPLINE
  5
CC
330
70
100
AcDbEntity
  8
TEXT
100
AcDbSpline
210
0.0
220
0.0
230
1.0
 70
     9
 71
     3
 72
    74
 73
    70
 74
     0
 42
0.0000000001
 43
0.0000000001
 40
0.0
 40
0.0
 40
0.0
 40
0.0
 40
1.0
 40
1.0
 40
1.0
 40
2.0
 40
2.0
 40
2.0
 40
3.0
 40
3.0
 40
3.0
 40
4.0
 40
4.0
 40
4.0
 40
5.0
 40
5.0
 40
5.0
 40
6.0
 40
6.0
 40
6.0
 40
7.0
 40
7.0
 40
7.0
 40
8.0
 40
8.0
 40
8.0
 40
9.0
 40
9.0
 40
9.0
 40
10.0
 40
10.0
 40
10.0
 40
11.0
 40
11.0
 40
11.0
 40
12.0
 40
12.0
 40
12.0
 40
13.0
 40
13.0
 40
13.0
 40
14.0
 40
14.0
 40
14.0
 40
15.0
 40
15.0
 40
15.0
 40
16.0
 40
16.0
 40
16.0
 40
17.0
 40
17.0
 40
17.0
 40
18.0
 40
18.0
 40
18.0
 40
19.0
 40
19.0
 40
19.0
 40
20.0
 40
20.0
 40
20.0
 40
21.0
 40
21.0
 40
21.0
 40
22.0
 40
22.0
 40
22.0
 40
23.0
 40
23.0
 40
23.0
 40
23.0
 10
1051.735860621678
 20
-1162.326265375664
 30
0.0
 10
1051.735860621678
 20
-1162.326265375664
 30
0.0
 10
1042.623555934178
 20
-1156.790132563164
 30
0.0
 10
1042.623555934178
 20
-1156.790132563164
 30
0.0
 10
1036.907735621678
 20
-1153.299898188165
 30
0.0
 10
1032.841329371678
 20
-1149.866792719414
 30
0.0
 10
1030.423360621678
 20
-1146.488863031914
 30
0.0
 10
1028.004415309178
 20
-1143.111909906914
 30
0.0
 10
1026.796407496678
 20
-1139.225191156914
 30
0.0
 10
1026.796407496678
 20
-1134.828218500665
 30
0.0
 10
1026.796407496678
 20
-1128.233491938164
 30
0.0
 10
1029.083516871678
 20
-1122.878511469414
 30
0.0
 10
1033.660665309178
 20
-1118.761323969414
 30
0.0
 10
1038.236837184178
 20
-1114.645113031914
 30
0.0
 10
1044.182149684178
 20
-1112.586519281914
 30
0.0
 10
1051.495626246678
 20
-1112.586519281914
 30
0.0
 10
1058.489766871678
 20
-1112.586519281914
 30
0.0
 10
1064.904805934178
 20
-1114.549898188164
 30
0.0
 10
1070.740743434178
 20
-1118.476656000664
 30
0.0
 10
1069.095235621678
 20
-1122.038179438164
 30
0.0
 10
1067.449727809178
 20
-1125.599702875665
 30
0.0
 10
1065.804219996678
 20
-1129.161226313164
 30
0.0
 10
1063.881307399022
 20
-1127.516298334649
 30
0.0
 10
1058.556234156835
 20
-1123.419527094414
 30
0.0
 10
1051.256368434178
 20
-1123.377534906914
 30
0.0
 10
1049.758687770116
 20
-1123.368928949883
 30
0.0
 10
1045.270101344335
 20
-1123.456178705743
 30
0.0
 10
1041.604024684178
 20
-1126.094820063165
 30
0.0
 10
1039.086446559178
 20
-1127.906831781914
 30
0.0
 10
1037.826680934178
 20
-1130.225191156914
 30
0.0
 10
1037.826680934178
 20
-1133.051363031914
 30
0.0
 10
1037.826680934178
 20
-1135.559663813165
 30
0.0
 10
1038.754415309178
 20
-1137.909273188165
 30
0.0
 10
1040.608907496678
 20
-1140.098238031915
 30
0.0
 10
1042.464376246678
 20
-1142.288179438164
 30
0.0
 10
1045.446798121678
 20
-1144.587007563164
 30
0.0
 10
1049.557149684178
 20
-1146.995698969415
 30
0.0
 10
1049.557149684178
 20
-1146.995698969415
 30
0.0
 10
1058.714376246678
 20
-1152.414644281914
 30
0.0
 10
1058.714376246678
 20
-1152.414644281914
 30
0.0
 10
1068.929219996678
 20
-1158.516206781914
 30
0.0
 10
1074.037618434178
 20
-1166.282808344415
 30
0.0
 10
1074.037618434178
 20
-1175.714937250664
 30
0.0
 10
1074.037618434178
 20
-1182.429292719414
 30
0.0
 10
1071.789571559178
 20
-1187.884859125665
 30
0.0
 10
1067.293477809178
 20
-1192.081148188164
 30
0.0
 10
1062.796407496678
 20
-1196.278413813165
 30
0.0
 10
1056.951680934178
 20
-1198.376070063164
 30
0.0
 10
1049.757344996678
 20
-1198.376070063164
 30
0.0
 10
1044.840535914647
 20
-1198.376070063164
 30
0.0
 10
1041.044515406835
 20
-1197.467653315118
 30
0.0
 10
1039.331075465428
 20
-1196.918520014336
 30
0.0
 10
1031.599019801366
 20
-1194.440523188164
 30
0.0
 10
1026.858358180272
 20
-1189.567995111993
 30
0.0
 10
1024.804219996678
 20
-1187.161226313165
 30
0.0
 10
1027.804219996678
 20
-1184.827882807305
 30
0.0
 10
1030.804219996678
 20
-1182.494569819024
 30
0.0
 10
1033.804219996678
 20
-1180.161226313164
 30
0.0
 10
1034.88509157871
 20
-1181.376527826836
 30
0.0
 10
1041.013814723241
 20
-1188.050355951836
 30
0.0
 10
1049.637227809178
 20
-1187.824800531914
 30
0.0
 10
1051.016683375585
 20
-1187.788728754571
 30
0.0
 10
1055.487691676366
 20
-1187.646211664727
 30
0.0
 10
1059.020040309178
 20
-1184.688570063165
 30
0.0
 10
1061.517110621678
 20
-1182.597749750665
 30
0.0
 10
1062.767110621678
 20
-1179.979585688164
 30
0.0
 10
1062.767110621678
 20
-1176.833101313164
 30
0.0
 10
1062.767110621678
 20
-1171.735445063164
 30
0.0
 10
1059.089376246678
 20
-1166.899995844414
 30
0.0
 10
1051.735860621678
 20
-1162.326265375664
 30
0.0
  0
MTEXT
  5
CD
330
70
100
AcDbEntity
  8
TEXT
100
AcDbMText
 10
663.141128540039
 20
-1242.970031738281
 30
0.0
 40
0.2
 41
0.0
 46
0.0
 71
     7
 72
     1
  1
\C7;\c16777215;\FChillax Light|b0|i0|c1;\H21.791348;\W0.959040;powered by
 73
     1
 44
1.0
  0
MTEXT
  5
CE
330
70
100
AcDbEntity
  8
TEXT
100
AcDbMText
 10
837.2719841003418
 20
-1241.959289550781
 30
0.0
 40
0.2
 41
0.0
 46
0.0
 71
     7
 72
     1
  1
\C7;\c16777215;\FGill Sans MT|b0|i0|c1;\H24.101134;\W0.853850;I LOVE MONDAYS
 73
     1
 44
1.0
  0
ENDSEC
  0
SECTION
  2
OBJECTS
  0
DICTIONARY
  5
C
330
0
100
AcDbDictionary
281
     1
  3
ACAD_COLOR
350
63
  3
ACAD_DETAILVIEWSTYLE
350
6A
  3
ACAD_GROUP
350
D
  3
ACAD_LAYOUT
350
62
  3
ACAD_MATERIAL
350
10
  3
ACAD_MLEADERSTYLE
350
66
  3
ACAD_MLINESTYLE
350
5F
  3
ACAD_PLOTSETTINGS
350
61
  3
ACAD_PLOTSTYLENAME
350
E
  3
ACAD_SCALELIST
350
42
  3
ACAD_SECTIONVIEWSTYLE
350
68
  3
ACAD_TABLESTYLE
350
64
  3
ACAD_VISUALSTYLE
350
29
  3
ACDB_RECOMPOSE_DATA
350
D7
  3
AcDbVariableDictionary
350
CF
  0
DICTIONARY
  5
63
102
{ACAD_REACTORS
330
C
102
}
330
C
100
AcDbDictionary
281
     1
  0
DICTIONARY
  5
6A
102
{ACAD_REACTORS
330
C
102
}
330
C
100
AcDbDictionary
281
     1
  3
Imperial24
350
6B
  0
DICTIONARY
  5
D
102
{ACAD_REACTORS
330
C
102
}
330
C
100
AcDbDictionary
281
     1
  0
DICTIONARY
  5
62
102
{ACAD_REACTORS
330
C
102
}
330
C
100
AcDbDictionary
281
     1
  3
Layout1
350
6F
  3
Layout2
350
77
  3
Model
350
73
  0
DICTIONARY
  5
10
102
{ACAD_REACTORS
330
C
102
}
330
C
100
AcDbDictionary
281
     1
  3
ByBlock
350
19
  3
ByLayer
350
11
  3
Global
350
21
  0
DICTIONARY
  5
66
102
{ACAD_REACTORS
330
C
102
}
330
C
100
AcDbDictionary
281
     1
  3
Standard
350
67
  0
DICTIONARY
  5
5F
102
{ACAD_REACTORS
330
C
102
}
330
C
100
AcDbDictionary
281
     1
  3
Standard
350
60
  0
DICTIONARY
  5
61
102
{ACAD_REACTORS
330
C
102
}
330
C
100
AcDbDictionary
281
     1
  0
ACDBDICTIONARYWDFLT
  5
E
102
{ACAD_REACTORS
330
C
102
}
330
C
100
AcDbDictionary
281
     1
  3
Normal
350
F
100
AcDbDictionaryWithDefault
340
F
  0
DICTIONARY
  5
42
102
{ACAD_REACTORS
330
C
102
}
330
C
100
AcDbDictionary
281
     1
  3
A0
350
43
  3
A1
350
44
  3
A2
350
45
  3
A3
350
46
  3
A4
350
47
  3
A5
350
48
  3
A6
350
49
  3
A7
350
4A
  3
A8
350
4B
  3
A9
350
4C
  3
B0
350
4D
  3
B1
350
4E
  3
B2
350
4F
  3
B3
350
50
  3
B4
350
51
  3
B5
350
52
  3
B6
350
53
  0
DICTIONARY
  5
68
102
{ACAD_REACTORS
330
C
102
}
330
C
100
AcDbDictionary
281
     1
  3
Imperial24
350
69
  0
DICTIONARY
  5
64
102
{ACAD_REACTORS
330
C
102
}
330
C
100
AcDbDictionary
281
     1
  3
Standard
350
65
  0
DICTIONARY
  5
29
102
{ACAD_REACTORS
330
C
102
}
330
C
100
AcDbDictionary
281
     1
  3
2dWireframe
350
2F
  3
Basic
350
2E
  3
Brighten
350
35
  3
ColorChange
350
39
  3
Conceptual
350
32
  3
Dim
350
34
  3
EdgeColorOff
350
41
  3
Facepattern
350
38
  3
Flat
350
2A
  3
FlatWithEdges
350
2B
  3
Gouraud
350
2C
  3
GouraudWithEdges
350
2D
  3
Hidden
350
31
  3
JitterOff
350
3F
  3
Linepattern
350
37
  3
OverhangOff
350
40
  3
Realistic
350
33
  3
Shaded
350
3E
  3
Shaded with edges
350
3D
  3
Shades of Gray
350
3A
  3
Sketchy
350
3B
  3
Thicken
350
36
  3
Wireframe
350
30
  3
X-Ray
350
3C
  0
XRECORD
  5
D7
102
{ACAD_REACTORS
330
C
102
}
330
C
100
AcDbXrecord
280
     1
 90
        1
330
65
  0
DICTIONARY
  5
CF
102
{ACAD_REACTORS
330
C
102
}
330
C
100
AcDbDictionary
281
     1
  3
CANNOSCALE
350
D4
  3
CMLEADERSTYLE
350
D1
  3
CTABLESTYLE
350
D0
  3
CVIEWDETAILSTYLE
350
D2
  3
CVIEWSECTIONSTYLE
350
D3
  0
ACDBDETAILVIEWSTYLE
  5
6B
102
{ACAD_REACTORS
330
6A
102
}
330
6A
100
AcDbModelDocViewStyle
 70
     0
  3
Imperial24
290
     1
300
Imperial24
 90
        0
100
AcDbDetailViewStyle
 70
     0
 71
     0
 90
        3
 71
     1
340
55
 62
   256
 40
0.24
340
0
 62
   256
 40
0.24
300

 40
0.36
280
     3
 71
     2
340
5D
 90
       25
 62
   256
 71
     3
340
55
 62
   256
 40
0.24
 90
        1
 40
0.75
 90
        1
300
%<\AcVar ViewType \f "%tc1">% %<\AcVar ViewDetailId>%\PSCALE %<\AcVar ViewScale \f "%sn">%
 71
     4
340
5D
 90
       25
 62
   256
340
5D
 90
       25
 62
   256
280
     0
  0
LAYOUT
  5
6F
102
{ACAD_REACTORS
330
62
102
}
330
62
100
AcDbPlotSettings
  1

  2

  4

  6

 40
0.0
 41
0.0
 42
0.0
 43
0.0
 44
0.0
 45
0.0
 46
0.0
 47
0.0
 48
0.0
 49
0.0
140
0.0
141
0.0
142
1.0
143
1.0
 70
   688
 72
     0
 73
     0
 74
     5
  7

 75
    16
147
1.0
 76
     0
 77
     2
 78
   300
148
0.0
149
0.0
100
AcDbLayout
  1
Layout1
 70
     1
 71
     1
 10
0.0
 20
0.0
 11
12.0
 21
9.0
 12
0.0
 22
0.0
 32
0.0
 14
0.0
 24
0.0
 34
0.0
 15
0.0
 25
0.0
 35
0.0
146
0.0
 13
0.0
 23
0.0
 33
0.0
 16
1.0
 26
0.0
 36
0.0
 17
0.0
 27
1.0
 37
0.0
 76
     0
330
6C
  0
LAYOUT
  5
77
102
{ACAD_REACTORS
330
62
102
}
330
62
100
AcDbPlotSettings
  1

  2

  4

  6

 40
0.0
 41
0.0
 42
0.0
 43
0.0
 44
0.0
 45
0.0
 46
0.0
 47
0.0
 48
0.0
 49
0.0
140
0.0
141
0.0
142
1.0
143
1.0
 70
   688
 72
     0
 73
     0
 74
     5
  7

 75
    16
147
1.0
 76
     0
 77
     2
 78
   300
148
0.0
149
0.0
100
AcDbLayout
  1
Layout2
 70
     1
 71
     2
 10
0.0
 20
0.0
 11
12.0
 21
9.0
 12
0.0
 22
0.0
 32
0.0
 14
0.0
 24
0.0
 34
0.0
 15
0.0
 25
0.0
 35
0.0
146
0.0
 13
0.0
 23
0.0
 33
0.0
 16
1.0
 26
0.0
 36
0.0
 17
0.0
 27
1.0
 37
0.0
 76
     0
330
74
  0
LAYOUT
  5
73
102
{ACAD_REACTORS
330
62
102
}
330
62
100
AcDbPlotSettings
  1

  2

  4

  6

 40
0.0
 41
0.0
 42
0.0
 43
0.0
 44
0.0
 45
0.0
 46
0.0
 47
0.0
 48
0.0
 49
0.0
140
0.0
141
0.0
142
1.0
143
1.0
 70
  1712
 72
     0
 73
     0
 74
     0
  7

 75
     0
147
1.0
 76
     0
 77
     2
 78
   300
148
0.0
149
0.0
100
AcDbLayout
  1
Model
 70
     1
 71
     0
 10
0.0
 20
0.0
 11
12.0
 21
9.0
 12
0.0
 22
0.0
 32
0.0
 14
0.0
 24
0.0
 34
0.0
 15
0.0
 25
0.0
 35
0.0
146
0.0
 13
0.0
 23
0.0
 33
0.0
 16
1.0
 26
0.0
 36
0.0
 17
0.0
 27
1.0
 37
0.0
 76
     0
330
70
  0
MATERIAL
  5
19
102
{ACAD_XDICTIONARY
360
1A
102
}
102
{ACAD_REACTORS
330
10
102
}
330
10
100
AcDbMaterial
  1
ByBlock
 72
     0
 43
0.0208333333333333
 43
0.0
 43
0.0
 43
0.0
 43
0.0
 43
0.0208333333333333
 43
0.0
 43
0.0
 43
0.0
 43
0.0
 43
1.0
 43
0.0
 43
0.0
 43
0.0
 43
0.0
 43
1.0
 77
     0
 47
0.0208333333333333
 47
0.0
 47
0.0
 47
0.0
 47
0.0
 47
0.0208333333333333
 47
0.0
 47
0.0
 47
0.0
 47
0.0
 47
1.0
 47
0.0
 47
0.0
 47
0.0
 47
0.0
 47
1.0
171
     0
 49
0.0208333333333333
 49
0.0
 49
0.0
 49
0.0
 49
0.0
 49
0.0208333333333333
 49
0.0
 49
0.0
 49
0.0
 49
0.0
 49
1.0
 49
0.0
 49
0.0
 49
0.0
 49
0.0
 49
1.0
175
     0
142
0.0208333333333333
142
0.0
142
0.0
142
0.0
142
0.0
142
0.0208333333333333
142
0.0
142
0.0
142
0.0
142
0.0
142
1.0
142
0.0
142
0.0
142
0.0
142
0.0
142
1.0
179
     0
144
0.0208333333333333
144
0.0
144
0.0
144
0.0
144
0.0
144
0.0208333333333333
144
0.0
144
0.0
144
0.0
144
0.0
144
1.0
144
0.0
144
0.0
144
0.0
144
0.0
144
1.0
147
0.0208333333333333
147
0.0
147
0.0
147
0.0
147
0.0
147
0.0208333333333333
147
0.0
147
0.0
147
0.0
147
0.0
147
1.0
147
0.0
147
0.0
147
0.0
147
0.0
147
1.0
  0
MATERIAL
  5
11
102
{ACAD_XDICTIONARY
360
12
102
}
102
{ACAD_REACTORS
330
10
102
}
330
10
100
AcDbMaterial
  1
ByLayer
 72
     0
 43
0.0208333333333333
 43
0.0
 43
0.0
 43
0.0
 43
0.0
 43
0.0208333333333333
 43
0.0
 43
0.0
 43
0.0
 43
0.0
 43
1.0
 43
0.0
 43
0.0
 43
0.0
 43
0.0
 43
1.0
 77
     0
 47
0.0208333333333333
 47
0.0
 47
0.0
 47
0.0
 47
0.0
 47
0.0208333333333333
 47
0.0
 47
0.0
 47
0.0
 47
0.0
 47
1.0
 47
0.0
 47
0.0
 47
0.0
 47
0.0
 47
1.0
171
     0
 49
0.0208333333333333
 49
0.0
 49
0.0
 49
0.0
 49
0.0
 49
0.0208333333333333
 49
0.0
 49
0.0
 49
0.0
 49
0.0
 49
1.0
 49
0.0
 49
0.0
 49
0.0
 49
0.0
 49
1.0
175
     0
142
0.0208333333333333
142
0.0
142
0.0
142
0.0
142
0.0
142
0.0208333333333333
142
0.0
142
0.0
142
0.0
142
0.0
142
1.0
142
0.0
142
0.0
142
0.0
142
0.0
142
1.0
179
     0
144
0.0208333333333333
144
0.0
144
0.0
144
0.0
144
0.0
144
0.0208333333333333
144
0.0
144
0.0
144
0.0
144
0.0
144
1.0
144
0.0
144
0.0
144
0.0
144
0.0
144
1.0
147
0.0208333333333333
147
0.0
147
0.0
147
0.0
147
0.0
147
0.0208333333333333
147
0.0
147
0.0
147
0.0
147
0.0
147
1.0
147
0.0
147
0.0
147
0.0
147
0.0
147
1.0
  0
MATERIAL
  5
21
102
{ACAD_XDICTIONARY
360
22
102
}
102
{ACAD_REACTORS
330
10
102
}
330
10
100
AcDbMaterial
  1
Global
 72
     0
 43
0.0208333333333333
 43
0.0
 43
0.0
 43
0.0
 43
0.0
 43
0.0208333333333333
 43
0.0
 43
0.0
 43
0.0
 43
0.0
 43
1.0
 43
0.0
 43
0.0
 43
0.0
 43
0.0
 43
1.0
 77
     0
 47
0.0208333333333333
 47
0.0
 47
0.0
 47
0.0
 47
0.0
 47
0.0208333333333333
 47
0.0
 47
0.0
 47
0.0
 47
0.0
 47
1.0
 47
0.0
 47
0.0
 47
0.0
 47
0.0
 47
1.0
171
     0
 49
0.0208333333333333
 49
0.0
 49
0.0
 49
0.0
 49
0.0
 49
0.0208333333333333
 49
0.0
 49
0.0
 49
0.0
 49
0.0
 49
1.0
 49
0.0
 49
0.0
 49
0.0
 49
0.0
 49
1.0
175
     0
142
0.0208333333333333
142
0.0
142
0.0
142
0.0
142
0.0
142
0.0208333333333333
142
0.0
142
0.0
142
0.0
142
0.0
142
1.0
142
0.0
142
0.0
142
0.0
142
0.0
142
1.0
179
     0
144
0.0208333333333333
144
0.0
144
0.0
144
0.0
144
0.0
144
0.0208333333333333
144
0.0
144
0.0
144
0.0
144
0.0
144
1.0
144
0.0
144
0.0
144
0.0
144
0.0
144
1.0
147
0.0208333333333333
147
0.0
147
0.0
147
0.0
147
0.0
147
0.0208333333333333
147
0.0
147
0.0
147
0.0
147
0.0
147
1.0
147
0.0
147
0.0
147
0.0
147
0.0
147
1.0
  0
MLEADERSTYLE
  5
67
102
{ACAD_REACTORS
330
66
102
}
330
66
100
AcDbMLeaderStyle
179
     2
170
     2
171
     1
172
     0
 90
        2
 40
0.0
 41
0.0
173
     1
 91
-1056964608
340
5B
 92
       -2
290
     1
 42
0.09
291
     1
 43
0.36
  3
Standard
 44
0.18
300

342
55
174
     1
178
     6
175
     1
176
     0
 93
-1056964608
 45
0.18
292
     0
297
     0
 46
0.18
 94
-1056964608
 47
1.0
 49
1.0
140
1.0
293
     1
141
0.0
294
     1
177
     0
142
1.0
295
     1
296
     0
143
0.125
271
     0
272
     9
273
     9
298
     1
  0
MLINESTYLE
  5
60
102
{ACAD_REACTORS
330
5F
102
}
330
5F
100
AcDbMlineStyle
  2
STANDARD
 70
     0
  3

 62
   256
 51
90.0
 52
90.0
 71
     2
 49
0.5
 62
   256
  6
BYLAYER
 49
-0.5
 62
   256
  6
BYLAYER
  0
ACDBPLACEHOLDER
  5
F
102
{ACAD_REACTORS
330
E
102
}
330
E
  0
SCALE
  5
43
102
{ACAD_REACTORS
330
42
102
}
330
42
100
AcDbScale
 70
     0
300
1:1
140
1.0
141
1.0
290
     1
  0
SCALE
  5
44
102
{ACAD_REACTORS
330
42
102
}
330
42
100
AcDbScale
 70
     0
300
1/128" = 1'-0"
140
0.0078125
141
12.0
290
     0
  0
SCALE
  5
45
102
{ACAD_REACTORS
330
42
102
}
330
42
100
AcDbScale
 70
     0
300
1/64" = 1'-0"
140
0.015625
141
12.0
290
     0
  0
SCALE
  5
46
102
{ACAD_REACTORS
330
42
102
}
330
42
100
AcDbScale
 70
     0
300
1/32" = 1'-0"
140
0.03125
141
12.0
290
     0
  0
SCALE
  5
47
102
{ACAD_REACTORS
330
42
102
}
330
42
100
AcDbScale
 70
     0
300
1/16" = 1'-0"
140
0.0625
141
12.0
290
     0
  0
SCALE
  5
48
102
{ACAD_REACTORS
330
42
102
}
330
42
100
AcDbScale
 70
     0
300
3/32" = 1'-0"
140
0.09375
141
12.0
290
     0
  0
SCALE
  5
49
102
{ACAD_REACTORS
330
42
102
}
330
42
100
AcDbScale
 70
     0
300
1/8" = 1'-0"
140
0.125
141
12.0
290
     0
  0
SCALE
  5
4A
102
{ACAD_REACTORS
330
42
102
}
330
42
100
AcDbScale
 70
     0
300
3/16" = 1'-0"
140
0.1875
141
12.0
290
     0
  0
SCALE
  5
4B
102
{ACAD_REACTORS
330
42
102
}
330
42
100
AcDbScale
 70
     0
300
1/4" = 1'-0"
140
0.25
141
12.0
290
     0
  0
SCALE
  5
4C
102
{ACAD_REACTORS
330
42
102
}
330
42
100
AcDbScale
 70
     0
300
3/8" = 1'-0"
140
0.375
141
12.0
290
     0
  0
SCALE
  5
4D
102
{ACAD_REACTORS
330
42
102
}
330
42
100
AcDbScale
 70
     0
300
1/2" = 1'-0"
140
0.5
141
12.0
290
     0
  0
SCALE
  5
4E
102
{ACAD_REACTORS
330
42
102
}
330
42
100
AcDbScale
 70
     0
300
3/4" = 1'-0"
140
0.75
141
12.0
290
     0
  0
SCALE
  5
4F
102
{ACAD_REACTORS
330
42
102
}
330
42
100
AcDbScale
 70
     0
300
1" = 1'-0"
140
1.0
141
12.0
290
     0
  0
SCALE
  5
50
102
{ACAD_REACTORS
330
42
102
}
330
42
100
AcDbScale
 70
     0
300
1-1/2" = 1'-0"
140
1.5
141
12.0
290
     0
  0
SCALE
  5
51
102
{ACAD_REACTORS
330
42
102
}
330
42
100
AcDbScale
 70
     0
300
3" = 1'-0"
140
3.0
141
12.0
290
     0
  0
SCALE
  5
52
102
{ACAD_REACTORS
330
42
102
}
330
42
100
AcDbScale
 70
     0
300
6" = 1'-0"
140
6.0
141
12.0
290
     0
  0
SCALE
  5
53
102
{ACAD_REACTORS
330
42
102
}
330
42
100
AcDbScale
 70
     0
300
1'-0" = 1'-0"
140
12.0
141
12.0
290
     0
  0
ACDBSECTIONVIEWSTYLE
  5
69
102
{ACAD_REACTORS
330
68
102
}
330
68
100
AcDbModelDocViewStyle
 70
     0
  3
Imperial24
290
     1
300
Imperial24
 90
        0
100
AcDbSectionViewStyle
 70
     0
 71
     0
 90
       78
 71
     1
340
55
 62
   256
 40
0.24
340
0
340
0
 62
   256
 40
0.24
300
I, O, Q, S, X, Z
 40
0.48
 90
        3
 40
0.18
 90
        1
 71
     2
340
5D
 90
       25
 62
   256
340
5D
 90
       50
 62
   256
 40
0.24
 40
0.0
 40
0.24
 71
     3
340
55
 62
   256
 40
0.24
 90
        1
 40
0.75
 90
        1
300
%<\AcVar ViewType \f "%tc1">% %<\AcVar ViewSectionStartId>%-%<\AcVar ViewSectionEndId>%\PSCALE %<\AcVar ViewScale \f "%sn">%
 71
     4
 62
   256
 62
   257
300
ANSI31
 40
1.0
 90
        0
290
     0
290
     0
 90
        6
 40
0.0
 40
1.570796326794896
 40
0.2617993877991494
 40
1.308996938995747
 40
-0.2617993877991494
 40
1.832595714594046
  0
TABLESTYLE
  5
65
102
{ACAD_XDICTIONARY
360
D5
102
}
102
{ACAD_REACTORS
330
64
102
}
330
64
100
AcDbTableStyle
280
     0
  3
Standard
 70
     0
 71
     0
 40
0.06
 41
0.06
280
     0
281
     0
  7
Standard
140
0.18
170
     2
 62
     0
 63
     7
283
     0
 90
      512
 91
        0
  1

274
    -2
284
     1
 64
     0
275
    -2
285
     1
 65
     0
276
    -2
286
     1
 66
     0
277
    -2
287
     1
 67
     0
278
    -2
288
     1
 68
     0
279
    -2
289
     1
 69
     0
  7
Standard
140
0.25
170
     5
 62
     0
 63
     7
283
     0
 90
      512
 91
        0
  1

274
    -2
284
     1
 64
     0
275
    -2
285
     1
 65
     0
276
    -2
286
     1
 66
     0
277
    -2
287
     1
 67
     0
278
    -2
288
     1
 68
     0
279
    -2
289
     1
 69
     0
  7
Standard
140
0.18
170
     5
 62
     0
 63
     7
283
     0
 90
      512
 91
        0
  1

274
    -2
284
     1
 64
     0
275
    -2
285
     1
 65
     0
276
    -2
286
     1
 66
     0
277
    -2
287
     1
 67
     0
278
    -2
288
     1
 68
     0
279
    -2
289
     1
 69
     0
  0
VISUALSTYLE
  5
2F
102
{ACAD_REACTORS
330
29
102
}
330
29
100
AcDbVisualStyle
  2
2dWireframe
 70
     4
177
     3
291
     0
 70
    58
 90
        0
176
     1
 90
        2
176
     1
 90
        0
176
     1
 90
        0
176
     1
 40
0.6
176
     1
 40
30.0
176
     1
 62
     7
420
 16777215
176
     1
 90
        1
176
     1
 90
        4
176
     1
 62
     7
176
     1
 62
   257
176
     1
 90
        1
176
     1
 90
        1
176
     1
 40
1.0
176
     1
 90
        0
176
     1
 62
   257
176
     1
 40
1.0
176
     1
 90
        1
176
     1
 90
        6
176
     1
 90
        2
176
     1
 62
     7
176
     1
 90
        5
176
     1
 90
        0
176
     1
 90
        0
176
     1
290
     0
176
     1
 90
        1
176
     1
 40
0.0
176
     1
 90
        0
176
     1
290
     1
176
     1
290
     1
176
     1
290
     0
176
     1
290
     0
176
     1
290
     0
176
     1
290
     0
176
     1
290
     0
176
     1
290
     0
176
     1
290
     0
176
     1
 90
       50
176
     1
 40
0.0
176
     1
 40
1.0
176
     1
 90
        0
176
     1
 62
    18
420
        0
176
     1
 90
       50
176
     1
 90
        3
176
     1
 62
     5
420
      255
176
     1
290
     0
176
     1
 90
       50
176
     1
 90
       50
176
     1
 90
       50
176
     1
290
     0
176
     1
 90
       50
176
     1
 62
   256
176
     0
 40
1.0
176
     0
 90
        2
176
     1
  1
strokes_ogs.tif
176
     1
290
     0
176
     1
 40
1.0
176
     1
 40
1.0
176
     1
  0
VISUALSTYLE
  5
2E
102
{ACAD_REACTORS
330
29
102
}
330
29
100
AcDbVisualStyle
  2
Basic
 70
     7
177
     3
291
     1
 70
    58
 90
        1
176
     1
 90
        0
176
     1
 90
        1
176
     1
 90
        0
176
     1
 40
0.6
176
     1
 40
30.0
176
     1
 62
     7
420
 16777215
176
     1
 90
        0
176
     1
 90
        4
176
     1
 62
     7
176
     1
 62
   257
176
     1
 90
        1
176
     1
 90
        1
176
     1
 40
1.0
176
     1
 90
        8
176
     1
 62
     7
176
     1
 40
1.0
176
     1
 90
        1
176
     1
 90
        6
176
     1
 90
        2
176
     1
 62
     7
176
     1
 90
        5
176
     1
 90
        0
176
     1
 90
        0
176
     1
290
     0
176
     1
 90
        1
176
     1
 40
0.0
176
     1
 90
        0
176
     1
290
     0
176
     1
290
     1
176
     1
290
     1
176
     1
290
     0
176
     1
290
     0
176
     1
290
     0
176
     1
290
     0
176
     1
290
     0
176
     1
290
     0
176
     1
 90
       50
176
     1
 40
0.0
176
     1
 40
1.0
176
     1
 90
        0
176
     1
 62
    18
420
        0
176
     1
 90
       50
176
     1
 90
        3
176
     1
 62
     5
420
      255
176
     1
290
     0
176
     1
 90
       50
176
     1
 90
       50
176
     1
 90
       50
176
     1
290
     0
176
     1
 90
       50
176
     1
 62
   256
176
     0
 40
1.0
176
     0
 90
        2
176
     1
  1
strokes_ogs.tif
176
     1
290
     0
176
     1
 40
1.0
176
     1
 40
1.0
176
     1
  0
VISUALSTYLE
  5
35
102
{ACAD_REACTORS
330
29
102
}
330
29
100
AcDbVisualStyle
  2
Brighten
 70
    12
177
     3
291
     1
 70
    58
 90
        2
176
     1
 90
        2
176
     1
 90
        0
176
     1
 90
        0
176
     1
 40
0.6
176
     1
 40
30.0
176
     1
 62
     7
420
 16777215
176
     1
 90
        1
176
     1
 90
        4
176
     1
 62
     7
176
     1
 62
   257
176
     1
 90
        1
176
     1
 90
        1
176
     1
 40
1.0
176
     1
 90
        8
176
     1
 62
     7
176
     1
 40
1.0
176
     1
 90
        1
176
     1
 90
        6
176
     1
 90
        2
176
     1
 62
     7
176
     1
 90
        5
176
     1
 90
        0
176
     1
 90
        0
176
     1
290
     0
176
     1
 90
        1
176
     1
 40
50.0
176
     1
 90
        0
176
     1
290
     0
176
     1
290
     1
176
     1
290
     1
176
     1
290
     0
176
     1
290
     0
176
     1
290
     0
176
     1
290
     0
176
     1
290
     0
176
     1
290
     0
176
     1
 90
       50
176
     1
 40
0.0
176
     1
 40
1.0
176
     1
 90
        0
176
     1
 62
    18
420
        0
176
     1
 90
       50
176
     1
 90
        3
176
     1
 62
     5
420
      255
176
     1
290
     0
176
     1
 90
       50
176
     1
 90
       50
176
     1
 90
       50
176
     1
290
     0
176
     1
 90
       50
176
     1
 62
   256
176
     0
 40
1.0
176
     0
 90
        2
176
     1
  1
strokes_ogs.tif
176
     1
290
     0
176
     1
 40
1.0
176
     1
 40
1.0
176
     1
  0
VISUALSTYLE
  5
39
102
{ACAD_REACTORS
330
29
102
}
330
29
100
AcDbVisualStyle
  2
ColorChange
 70
    16
177
     3
291
     1
 70
    58
 90
        2
176
     1
 90
        2
176
     1
 90
        3
176
     1
 90
        0
176
     1
 40
0.6
176
     1
 40
30.0
176
     1
 62
     8
420
  8421504
176
     1
 90
        1
176
     1
 90
        4
176
     1
 62
     7
176
     1
 62
   257
176
     1
 90
        1
176
     1
 90
        1
176
     1
 40
1.0
176
     1
 90
        8
176
     1
 62
     8
420
  8421504
176
     1
 40
1.0
176
     1
 90
        1
176
     1
 90
        6
176
     1
 90
        2
176
     1
 62
     7
176
     1
 90
        5
176
     1
 90
        0
176
     1
 90
        0
176
     1
290
     0
176
     1
 90
        1
176
     1
 40
0.0
176
     1
 90
        0
176
     1
290
     0
176
     1
290
     1
176
     1
290
     1
176
     1
290
     0
176
     1
290
     0
176
     1
290
     0
176
     1
290
     0
176
     1
290
     0
176
     1
290
     0
176
     1
 90
       50
176
     1
 40
0.0
176
     1
 40
1.0
176
     1
 90
        0
176
     1
 62
    18
420
        0
176
     1
 90
       50
176
     1
 90
        3
176
     1
 62
     5
420
      255
176
     1
290
     0
176
     1
 90
       50
176
     1
 90
       50
176
     1
 90
       50
176
     1
290
     0
176
     1
 90
       50
176
     1
 62
   256
176
     0
 40
1.0
176
     0
 90
        2
176
     1
  1
strokes_ogs.tif
176
     1
290
     0
176
     1
 40
1.0
176
     1
 40
1.0
176
     1
  0
VISUALSTYLE
  5
32
102
{ACAD_REACTORS
330
29
102
}
330
29
100
AcDbVisualStyle
  2
Conceptual
 70
     9
177
     3
291
     0
 70
    58
 90
        3
176
     1
 90
        2
176
     1
 90
        0
176
     1
 90
        0
176
     1
 40
0.6
176
     1
 40
30.0
176
     1
 62
     7
420
 16777215
176
     1
 90
        2
176
     1
 90
        2
176
     1
 62
     7
176
     1
 62
   257
176
     1
 90
        1
176
     1
 90
        1
176
     1
 40
179.0
176
     1
 90
        8
176
     1
 62
     7
176
     1
 40
1.0
176
     1
 90
        1
176
     1
 90
        6
176
     1
 90
        2
176
     1
 62
     7
176
     1
 90
        3
176
     1
 90
        0
176
     1
 90
        0
176
     1
290
     0
176
     1
 90
        1
176
     1
 40
0.0
176
     1
 90
        0
176
     1
290
     0
176
     1
290
     1
176
     1
290
     1
176
     1
290
     0
176
     1
290
     0
176
     1
290
     0
176
     1
290
     0
176
     1
290
     0
176
     1
290
     0
176
     1
 90
       50
176
     1
 40
0.0
176
     1
 40
1.0
176
     1
 90
        0
176
     1
 62
    18
420
        0
176
     1
 90
       50
176
     1
 90
        3
176
     1
 62
     5
420
      255
176
     1
290
     0
176
     1
 90
       50
176
     1
 90
       50
176
     1
 90
       50
176
     1
290
     0
176
     1
 90
       50
176
     1
 62
   256
176
     0
 40
1.0
176
     0
 90
        2
176
     1
  1
strokes_ogs.tif
176
     1
290
     0
176
     1
 40
1.0
176
     1
 40
1.0
176
     1
  0
VISUALSTYLE
  5
34
102
{ACAD_REACTORS
330
29
102
}
330
29
100
AcDbVisualStyle
  2
Dim
 70
    11
177
     3
291
     1
 70
    58
 90
        2
176
     1
 90
        2
176
     1
 90
        0
176
     1
 90
        0
176
     1
 40
0.6
176
     1
 40
30.0
176
     1
 62
     7
420
 16777215
176
     1
 90
        1
176
     1
 90
        4
176
     1
 62
     7
176
     1
 62
   257
176
     1
 90
        1
176
     1
 90
        1
176
     1
 40
1.0
176
     1
 90
        8
176
     1
 62
     7
176
     1
 40
1.0
176
     1
 90
        1
176
     1
 90
        6
176
     1
 90
        2
176
     1
 62
     7
176
     1
 90
        5
176
     1
 90
        0
176
     1
 90
        0
176
     1
290
     0
176
     1
 90
        1
176
     1
 40
-50.0
176
     1
 90
        0
176
     1
290
     0
176
     1
290
     1
176
     1
290
     1
176
     1
290
     0
176
     1
290
     0
176
     1
290
     0
176
     1
290
     0
176
     1
290
     0
176
     1
290
     0
176
     1
 90
       50
176
     1
 40
0.0
176
     1
 40
1.0
176
     1
 90
        0
176
     1
 62
    18
420
        0
176
     1
 90
       50
176
     1
 90
        3
176
     1
 62
     5
420
      255
176
     1
290
     0
176
     1
 90
       50
176
     1
 90
       50
176
     1
 90
       50
176
     1
290
     0
176
     1
 90
       50
176
     1
 62
   256
176
     0
 40
1.0
176
     0
 90
        2
176
     1
  1
strokes_ogs.tif
176
     1
290
     0
176
     1
 40
1.0
176
     1
 40
1.0
176
     1
  0
VISUALSTYLE
  5
41
102
{ACAD_REACTORS
330
29
102
}
330
29
100
AcDbVisualStyle
  2
EdgeColorOff
 70
    22
177
     3
291
     1
 70
    58
 90
        2
176
     0
 90
        2
176
     0
 90
        0
176
     0
 90
        0
176
     0
 40
0.6
176
     0
 40
30.0
176
     0
 62
     7
420
 16777215
176
     0
 90
        1
176
     0
 90
        4
176
     0
 62
     7
176
     0
 62
   257
176
     0
 90
        1
176
     0
 90
        1
176
     0
 40
1.0
176
     0
 90
        8
176
     2
 62
     7
176
     0
 40
1.0
176
     0
 90
        1
176
     0
 90
        6
176
     0
 90
        2
176
     0
 62
     7
176
     0
 90
        5
176
     0
 90
        0
176
     0
 90
        0
176
     0
290
     0
176
     0
 90
        1
176
     0
 40
0.0
176
     0
 90
        0
176
     0
290
     0
176
     0
290
     1
176
     0
290
     1
176
     0
290
     0
176
     0
290
     0
176
     0
290
     0
176
     0
290
     0
176
     0
290
     0
176
     0
290
     0
176
     0
 90
       50
176
     0
 40
0.0
176
     0
 40
1.0
176
     0
 90
        0
176
     0
 62
    18
420
        0
176
     0
 90
       50
176
     0
 90
        3
176
     0
 62
     5
420
      255
176
     0
290
     0
176
     0
 90
       50
176
     0
 90
       50
176
     0
 90
       50
176
     0
290
     0
176
     0
 90
       50
176
     0
 62
   256
176
     0
 40
1.0
176
     0
 90
        2
176
     0
  1
strokes_ogs.tif
176
     0
290
     0
176
     0
 40
1.0
176
     0
 40
1.0
176
     0
  0
VISUALSTYLE
  5
38
102
{ACAD_REACTORS
330
29
102
}
330
29
100
AcDbVisualStyle
  2
Facepattern
 70
    15
177
     3
291
     1
 70
    58
 90
        2
176
     1
 90
        2
176
     1
 90
        0
176
     1
 90
        0
176
     1
 40
0.6
176
     1
 40
30.0
176
     1
 62
     7
420
 16777215
176
     1
 90
        1
176
     1
 90
        4
176
     1
 62
     7
176
     1
 62
   257
176
     1
 90
        1
176
     1
 90
        1
176
     1
 40
1.0
176
     1
 90
        8
176
     1
 62
     7
176
     1
 40
1.0
176
     1
 90
        1
176
     1
 90
        6
176
     1
 90
        2
176
     1
 62
     7
176
     1
 90
        5
176
     1
 90
        0
176
     1
 90
        0
176
     1
290
     0
176
     1
 90
        1
176
     1
 40
0.0
176
     1
 90
        0
176
     1
290
     0
176
     1
290
     1
176
     1
290
     1
176
     1
290
     0
176
     1
290
     0
176
     1
290
     0
176
     1
290
     0
176
     1
290
     0
176
     1
290
     0
176
     1
 90
       50
176
     1
 40
0.0
176
     1
 40
1.0
176
     1
 90
        0
176
     1
 62
    18
420
        0
176
     1
 90
       50
176
     1
 90
        3
176
     1
 62
     5
420
      255
176
     1
290
     0
176
     1
 90
       50
176
     1
 90
       50
176
     1
 90
       50
176
     1
290
     0
176
     1
 90
       50
176
     1
 62
   256
176
     0
 40
1.0
176
     0
 90
        2
176
     1
  1
strokes_ogs.tif
176
     1
290
     0
176
     1
 40
1.0
176
     1
 40
1.0
176
     1
  0
VISUALSTYLE
  5
2A
102
{ACAD_REACTORS
330
29
102
}
330
29
100
AcDbVisualStyle
  2
Flat
 70
     0
177
     3
291
     1
 70
    58
 90
        2
176
     1
 90
        1
176
     1
 90
        1
176
     1
 90
        2
176
     1
 40
0.6
176
     1
 40
30.0
176
     1
 62
     7
420
 16777215
176
     1
 90
        0
176
     1
 90
        0
176
     1
 62
     7
176
     1
 62
   257
176
     1
 90
        1
176
     1
 90
        1
176
     1
 40
1.0
176
     1
 90
        8
176
     1
 62
     7
176
     1
 40
1.0
176
     1
 90
        1
176
     1
 90
        6
176
     1
 90
        2
176
     1
 62
     7
176
     1
 90
        5
176
     1
 90
        0
176
     1
 90
        0
176
     1
290
     0
176
     1
 90
       13
176
     1
 40
0.0
176
     1
 90
        0
176
     1
290
     0
176
     1
290
     1
176
     1
290
     1
176
     1
290
     0
176
     1
290
     0
176
     1
290
     0
176
     1
290
     0
176
     1
290
     0
176
     1
290
     0
176
     1
 90
       50
176
     1
 40
0.0
176
     1
 40
1.0
176
     1
 90
        0
176
     1
 62
    18
420
        0
176
     1
 90
       50
176
     1
 90
        3
176
     1
 62
     5
420
      255
176
     1
290
     0
176
     1
 90
       50
176
     1
 90
       50
176
     1
 90
       50
176
     1
290
     0
176
     1
 90
       50
176
     1
 62
   256
176
     0
 40
1.0
176
     0
 90
        2
176
     1
  1
strokes_ogs.tif
176
     1
290
     0
176
     1
 40
1.0
176
     1
 40
1.0
176
     1
  0
VISUALSTYLE
  5
2B
102
{ACAD_REACTORS
330
29
102
}
330
29
100
AcDbVisualStyle
  2
FlatWithEdges
 70
     1
177
     3
291
     1
 70
    58
 90
        2
176
     1
 90
        1
176
     1
 90
        1
176
     1
 90
        2
176
     1
 40
0.6
176
     1
 40
30.0
176
     1
 62
     7
420
 16777215
176
     1
 90
        1
176
     1
 90
        0
176
     1
 62
     7
176
     1
 62
   257
176
     1
 90
        1
176
     1
 90
        1
176
     1
 40
1.0
176
     1
 90
        0
176
     1
 62
   257
176
     1
 40
1.0
176
     1
 90
        1
176
     1
 90
        6
176
     1
 90
        2
176
     1
 62
     7
176
     1
 90
        5
176
     1
 90
        0
176
     1
 90
        0
176
     1
290
     0
176
     1
 90
       13
176
     1
 40
0.0
176
     1
 90
        0
176
     1
290
     0
176
     1
290
     1
176
     1
290
     1
176
     1
290
     0
176
     1
290
     0
176
     1
290
     0
176
     1
290
     0
176
     1
290
     0
176
     1
290
     0
176
     1
 90
       50
176
     1
 40
0.0
176
     1
 40
1.0
176
     1
 90
        0
176
     1
 62
    18
420
        0
176
     1
 90
       50
176
     1
 90
        3
176
     1
 62
     5
420
      255
176
     1
290
     0
176
     1
 90
       50
176
     1
 90
       50
176
     1
 90
       50
176
     1
290
     0
176
     1
 90
       50
176
     1
 62
   256
176
     0
 40
1.0
176
     0
 90
        2
176
     1
  1
strokes_ogs.tif
176
     1
290
     0
176
     1
 40
1.0
176
     1
 40
1.0
176
     1
  0
VISUALSTYLE
  5
2C
102
{ACAD_REACTORS
330
29
102
}
330
29
100
AcDbVisualStyle
  2
Gouraud
 70
     2
177
     3
291
     1
 70
    58
 90
        2
176
     1
 90
        2
176
     1
 90
        1
176
     1
 90
        2
176
     1
 40
0.6
176
     1
 40
30.0
176
     1
 62
     7
420
 16777215
176
     1
 90
        0
176
     1
 90
        0
176
     1
 62
     7
176
     1
 62
   257
176
     1
 90
        1
176
     1
 90
        1
176
     1
 40
1.0
176
     1
 90
        0
176
     1
 62
     7
176
     1
 40
1.0
176
     1
 90
        1
176
     1
 90
        6
176
     1
 90
        2
176
     1
 62
     7
176
     1
 90
        5
176
     1
 90
        0
176
     1
 90
        0
176
     1
290
     0
176
     1
 90
       13
176
     1
 40
0.0
176
     1
 90
        0
176
     1
290
     0
176
     1
290
     1
176
     1
290
     1
176
     1
290
     0
176
     1
290
     0
176
     1
290
     0
176
     1
290
     0
176
     1
290
     0
176
     1
290
     0
176
     1
 90
       50
176
     1
 40
0.0
176
     1
 40
1.0
176
     1
 90
        0
176
     1
 62
    18
420
        0
176
     1
 90
       50
176
     1
 90
        3
176
     1
 62
     5
420
      255
176
     1
290
     0
176
     1
 90
       50
176
     1
 90
       50
176
     1
 90
       50
176
     1
290
     0
176
     1
 90
       50
176
     1
 62
   256
176
     0
 40
1.0
176
     0
 90
        2
176
     1
  1
strokes_ogs.tif
176
     1
290
     0
176
     1
 40
1.0
176
     1
 40
1.0
176
     1
  0
VISUALSTYLE
  5
2D
102
{ACAD_REACTORS
330
29
102
}
330
29
100
AcDbVisualStyle
  2
GouraudWithEdges
 70
     3
177
     3
291
     1
 70
    58
 90
        2
176
     1
 90
        2
176
     1
 90
        1
176
     1
 90
        2
176
     1
 40
0.6
176
     1
 40
30.0
176
     1
 62
     7
420
 16777215
176
     1
 90
        1
176
     1
 90
        0
176
     1
 62
     7
176
     1
 62
   257
176
     1
 90
        1
176
     1
 90
        1
176
     1
 40
1.0
176
     1
 90
        0
176
     1
 62
   257
176
     1
 40
1.0
176
     1
 90
        1
176
     1
 90
        6
176
     1
 90
        2
176
     1
 62
     7
176
     1
 90
        5
176
     1
 90
        0
176
     1
 90
        0
176
     1
290
     0
176
     1
 90
       13
176
     1
 40
0.0
176
     1
 90
        0
176
     1
290
     0
176
     1
290
     1
176
     1
290
     1
176
     1
290
     0
176
     1
290
     0
176
     1
290
     0
176
     1
290
     0
176
     1
290
     0
176
     1
290
     0
176
     1
 90
       50
176
     1
 40
0.0
176
     1
 40
1.0
176
     1
 90
        0
176
     1
 62
    18
420
        0
176
     1
 90
       50
176
     1
 90
        3
176
     1
 62
     5
420
      255
176
     1
290
     0
176
     1
 90
       50
176
     1
 90
       50
176
     1
 90
       50
176
     1
290
     0
176
     1
 90
       50
176
     1
 62
   256
176
     0
 40
1.0
176
     0
 90
        2
176
     1
  1
strokes_ogs.tif
176
     1
290
     0
176
     1
 40
1.0
176
     1
 40
1.0
176
     1
  0
VISUALSTYLE
  5
31
102
{ACAD_REACTORS
330
29
102
}
330
29
100
AcDbVisualStyle
  2
Hidden
 70
     6
177
     3
291
     0
 70
    58
 90
        1
176
     1
 90
        2
176
     1
 90
        2
176
     1
 90
        0
176
     1
 40
0.6
176
     1
 40
30.0
176
     1
 62
     7
420
 16777215
176
     1
 90
        2
176
     1
 90
        2
176
     1
 62
     7
176
     1
 62
   257
176
     1
 90
        2
176
     1
 90
        1
176
     1
 40
40.0
176
     1
 90
        0
176
     1
 62
   257
176
     1
 40
1.0
176
     1
 90
        1
176
     1
 90
        6
176
     1
 90
        2
176
     1
 62
     7
176
     1
 90
        3
176
     1
 90
        0
176
     1
 90
        0
176
     1
290
     0
176
     1
 90
        1
176
     1
 40
0.0
176
     1
 90
        0
176
     1
290
     0
176
     1
290
     1
176
     1
290
     1
176
     1
290
     0
176
     1
290
     0
176
     1
290
     0
176
     1
290
     0
176
     1
290
     0
176
     1
290
     0
176
     1
 90
       50
176
     1
 40
0.0
176
     1
 40
1.0
176
     1
 90
        0
176
     1
 62
    18
420
        0
176
     1
 90
       50
176
     1
 90
        3
176
     1
 62
     5
420
      255
176
     1
290
     0
176
     1
 90
       50
176
     1
 90
       50
176
     1
 90
       50
176
     1
290
     0
176
     1
 90
       50
176
     1
 62
   256
176
     0
 40
1.0
176
     0
 90
        2
176
     1
  1
strokes_ogs.tif
176
     1
290
     0
176
     1
 40
1.0
176
     1
 40
1.0
176
     1
  0
VISUALSTYLE
  5
3F
102
{ACAD_REACTORS
330
29
102
}
330
29
100
AcDbVisualStyle
  2
JitterOff
 70
    20
177
     3
291
     1
 70
    58
 90
        2
176
     0
 90
        2
176
     0
 90
        0
176
     0
 90
        0
176
     0
 40
0.6
176
     0
 40
30.0
176
     0
 62
     7
420
 16777215
176
     0
 90
        1
176
     0
 90
        4
176
     0
 62
     7
176
     0
 62
   257
176
     0
 90
        1
176
     0
 90
        1
176
     0
 40
1.0
176
     0
 90
       10
176
     2
 62
     7
176
     0
 40
1.0
176
     0
 90
        1
176
     0
 90
        6
176
     0
 90
        2
176
     0
 62
     7
176
     0
 90
        5
176
     0
 90
        0
176
     0
 90
        0
176
     0
290
     0
176
     0
 90
        1
176
     0
 40
0.0
176
     0
 90
        0
176
     0
290
     0
176
     0
290
     1
176
     0
290
     1
176
     0
290
     0
176
     0
290
     0
176
     0
290
     0
176
     0
290
     0
176
     0
290
     0
176
     0
290
     0
176
     0
 90
       50
176
     0
 40
0.0
176
     0
 40
1.0
176
     0
 90
        0
176
     0
 62
    18
420
        0
176
     0
 90
       50
176
     0
 90
        3
176
     0
 62
     5
420
      255
176
     0
290
     0
176
     0
 90
       50
176
     0
 90
       50
176
     0
 90
       50
176
     0
290
     0
176
     0
 90
       50
176
     0
 62
   256
176
     0
 40
1.0
176
     0
 90
        2
176
     0
  1
strokes_ogs.tif
176
     0
290
     0
176
     0
 40
1.0
176
     0
 40
1.0
176
     0
  0
VISUALSTYLE
  5
37
102
{ACAD_REACTORS
330
29
102
}
330
29
100
AcDbVisualStyle
  2
Linepattern
 70
    14
177
     3
291
     1
 70
    58
 90
        2
176
     1
 90
        2
176
     1
 90
        0
176
     1
 90
        0
176
     1
 40
0.6
176
     1
 40
30.0
176
     1
 62
     7
420
 16777215
176
     1
 90
        1
176
     1
 90
        4
176
     1
 62
     7
176
     1
 62
   257
176
     1
 90
        7
176
     1
 90
        7
176
     1
 40
1.0
176
     1
 90
        8
176
     1
 62
     7
176
     1
 40
1.0
176
     1
 90
        1
176
     1
 90
        6
176
     1
 90
        2
176
     1
 62
     7
176
     1
 90
        5
176
     1
 90
        0
176
     1
 90
        0
176
     1
290
     0
176
     1
 90
        1
176
     1
 40
0.0
176
     1
 90
        0
176
     1
290
     0
176
     1
290
     1
176
     1
290
     1
176
     1
290
     0
176
     1
290
     0
176
     1
290
     0
176
     1
290
     0
176
     1
290
     0
176
     1
290
     0
176
     1
 90
       50
176
     1
 40
0.0
176
     1
 40
1.0
176
     1
 90
        0
176
     1
 62
    18
420
        0
176
     1
 90
       50
176
     1
 90
        3
176
     1
 62
     5
420
      255
176
     1
290
     0
176
     1
 90
       50
176
     1
 90
       50
176
     1
 90
       50
176
     1
290
     0
176
     1
 90
       50
176
     1
 62
   256
176
     0
 40
1.0
176
     0
 90
        2
176
     1
  1
strokes_ogs.tif
176
     1
290
     0
176
     1
 40
1.0
176
     1
 40
1.0
176
     1
  0
VISUALSTYLE
  5
40
102
{ACAD_REACTORS
330
29
102
}
330
29
100
AcDbVisualStyle
  2
OverhangOff
 70
    21
177
     3
291
     1
 70
    58
 90
        2
176
     0
 90
        2
176
     0
 90
        0
176
     0
 90
        0
176
     0
 40
0.6
176
     0
 40
30.0
176
     0
 62
     7
420
 16777215
176
     0
 90
        1
176
     0
 90
        4
176
     0
 62
     7
176
     0
 62
   257
176
     0
 90
        1
176
     0
 90
        1
176
     0
 40
1.0
176
     0
 90
        9
176
     2
 62
     7
176
     0
 40
1.0
176
     0
 90
        1
176
     0
 90
        6
176
     0
 90
        2
176
     0
 62
     7
176
     0
 90
        5
176
     0
 90
        0
176
     0
 90
        0
176
     0
290
     0
176
     0
 90
        1
176
     0
 40
0.0
176
     0
 90
        0
176
     0
290
     0
176
     0
290
     1
176
     0
290
     1
176
     0
290
     0
176
     0
290
     0
176
     0
290
     0
176
     0
290
     0
176
     0
290
     0
176
     0
290
     0
176
     0
 90
       50
176
     0
 40
0.0
176
     0
 40
1.0
176
     0
 90
        0
176
     0
 62
    18
420
        0
176
     0
 90
       50
176
     0
 90
        3
176
     0
 62
     5
420
      255
176
     0
290
     0
176
     0
 90
       50
176
     0
 90
       50
176
     0
 90
       50
176
     0
290
     0
176
     0
 90
       50
176
     0
 62
   256
176
     0
 40
1.0
176
     0
 90
        2
176
     0
  1
strokes_ogs.tif
176
     0
290
     0
176
     0
 40
1.0
176
     0
 40
1.0
176
     0
  0
VISUALSTYLE
  5
33
102
{ACAD_REACTORS
330
29
102
}
330
29
100
AcDbVisualStyle
  2
Realistic
 70
     8
177
     3
291
     0
 70
    58
 90
        2
176
     1
 90
        3
176
     1
 90
        0
176
     1
 90
        2
176
     1
 40
0.6
176
     1
 40
30.0
176
     1
 62
     7
420
 16777215
176
     1
 90
        0
176
     1
 90
        0
176
     1
 62
     7
176
     1
 62
   257
176
     1
 90
        1
176
     1
 90
        1
176
     1
 40
1.0
176
     1
 90
        8
176
     1
 62
   257
176
     1
 40
1.0
176
     1
 90
        1
176
     1
 90
        6
176
     1
 90
        2
176
     1
 62
     7
176
     1
 90
        3
176
     1
 90
        0
176
     1
 90
        0
176
     1
290
     0
176
     1
 90
       13
176
     1
 40
0.0
176
     1
 90
        0
176
     1
290
     0
176
     1
290
     1
176
     1
290
     1
176
     1
290
     0
176
     1
290
     0
176
     1
290
     0
176
     1
290
     0
176
     1
290
     0
176
     1
290
     0
176
     1
 90
       50
176
     1
 40
0.0
176
     1
 40
1.0
176
     1
 90
        0
176
     1
 62
    18
420
        0
176
     1
 90
       50
176
     1
 90
        3
176
     1
 62
     5
420
      255
176
     1
290
     0
176
     1
 90
       50
176
     1
 90
       50
176
     1
 90
       50
176
     1
290
     0
176
     1
 90
       50
176
     1
 62
   256
176
     0
 40
1.0
176
     0
 90
        2
176
     1
  1
strokes_ogs.tif
176
     1
290
     0
176
     1
 40
1.0
176
     1
 40
1.0
176
     1
  0
VISUALSTYLE
  5
3E
102
{ACAD_REACTORS
330
29
102
}
330
29
100
AcDbVisualStyle
  2
Shaded
 70
    27
177
     3
291
     0
 70
    58
 90
        2
176
     1
 90
        2
176
     1
 90
        1
176
     1
 90
        2
176
     1
 40
0.6
176
     1
 40
30.0
176
     1
 62
     7
420
 16777215
176
     1
 90
        0
176
     1
 90
        4
176
     1
 62
     7
176
     1
 62
   257
176
     1
 90
        1
176
     1
 90
        1
176
     1
 40
1.0
176
     1
 90
        8
176
     1
 62
   257
176
     1
 40
1.0
176
     1
 90
        1
176
     1
 90
        6
176
     1
 90
        2
176
     1
 62
     8
420
  7895160
176
     1
 90
        3
176
     1
 90
        0
176
     1
 90
        0
176
     1
290
     0
176
     1
 90
        5
176
     1
 40
0.0
176
     1
 90
        0
176
     1
290
     0
176
     1
290
     1
176
     1
290
     1
176
     1
290
     0
176
     1
290
     0
176
     1
290
     0
176
     1
290
     0
176
     1
290
     0
176
     1
290
     0
176
     1
 90
       50
176
     1
 40
0.0
176
     1
 40
1.0
176
     1
 90
        0
176
     1
 62
    18
420
        0
176
     1
 90
       50
176
     1
 90
        3
176
     1
 62
     5
420
      255
176
     1
290
     0
176
     1
 90
       50
176
     1
 90
       50
176
     1
 90
       50
176
     1
290
     0
176
     1
 90
       50
176
     1
 62
   256
176
     0
 40
1.0
176
     0
 90
        2
176
     1
  1
strokes_ogs.tif
176
     1
290
     0
176
     1
 40
1.0
176
     1
 40
1.0
176
     1
  0
VISUALSTYLE
  5
3D
102
{ACAD_REACTORS
330
29
102
}
330
29
100
AcDbVisualStyle
  2
Shaded with edges
 70
    26
177
     3
291
     0
 70
    58
 90
        2
176
     1
 90
        2
176
     1
 90
        1
176
     1
 90
        2
176
     1
 40
0.6
176
     1
 40
30.0
176
     1
 62
     7
420
 16777215
176
     1
 90
        1
176
     1
 90
        2
176
     1
 62
     7
176
     1
 62
   257
176
     1
 90
        2
176
     1
 90
        1
176
     1
 40
1.0
176
     1
 90
        8
176
     1
 62
   257
176
     1
 40
1.0
176
     1
 90
        1
176
     1
 90
        6
176
     1
 90
        2
176
     1
 62
     7
176
     1
 90
        3
176
     1
 90
        0
176
     1
 90
        0
176
     1
290
     0
176
     1
 90
        5
176
     1
 40
0.0
176
     1
 90
        0
176
     1
290
     0
176
     1
290
     1
176
     1
290
     1
176
     1
290
     0
176
     1
290
     0
176
     1
290
     0
176
     1
290
     0
176
     1
290
     0
176
     1
290
     0
176
     1
 90
       50
176
     1
 40
0.0
176
     1
 40
1.0
176
     1
 90
        0
176
     1
 62
    18
420
        0
176
     1
 90
       50
176
     1
 90
        3
176
     1
 62
     5
420
      255
176
     1
290
     0
176
     1
 90
       50
176
     1
 90
       50
176
     1
 90
       50
176
     1
290
     0
176
     1
 90
       50
176
     1
 62
   256
176
     0
 40
1.0
176
     0
 90
        2
176
     1
  1
strokes_ogs.tif
176
     1
290
     0
176
     1
 40
1.0
176
     1
 40
1.0
176
     1
  0
VISUALSTYLE
  5
3A
102
{ACAD_REACTORS
330
29
102
}
330
29
100
AcDbVisualStyle
  2
Shades of Gray
 70
    23
177
     3
291
     0
 70
    58
 90
        2
176
     1
 90
        2
176
     1
 90
        3
176
     1
 90
        0
176
     1
 40
0.6
176
     1
 40
30.0
176
     1
 62
     7
420
 16777215
176
     1
 90
        2
176
     1
 90
        2
176
     1
 62
     7
176
     1
 62
     7
176
     1
 90
        1
176
     1
 90
        1
176
     1
 40
40.0
176
     1
 90
        8
176
     1
 62
     7
176
     1
 40
1.0
176
     1
 90
        1
176
     1
 90
        6
176
     1
 90
        2
176
     1
 62
     7
176
     1
 90
        3
176
     1
 90
        0
176
     1
 90
        0
176
     1
290
     0
176
     1
 90
        1
176
     1
 40
0.0
176
     1
 90
        0
176
     1
290
     0
176
     1
290
     1
176
     1
290
     1
176
     1
290
     0
176
     1
290
     0
176
     1
290
     0
176
     1
290
     0
176
     1
290
     0
176
     1
290
     0
176
     1
 90
       50
176
     1
 40
0.0
176
     1
 40
1.0
176
     1
 90
        0
176
     1
 62
    18
420
        0
176
     1
 90
       50
176
     1
 90
        3
176
     1
 62
     5
420
      255
176
     1
290
     0
176
     1
 90
       50
176
     1
 90
       50
176
     1
 90
       50
176
     1
290
     0
176
     1
 90
       50
176
     1
 62
   256
176
     0
 40
1.0
176
     0
 90
        2
176
     1
  1
strokes_ogs.tif
176
     1
290
     0
176
     1
 40
1.0
176
     1
 40
1.0
176
     1
  0
VISUALSTYLE
  5
3B
102
{ACAD_REACTORS
330
29
102
}
330
29
100
AcDbVisualStyle
  2
Sketchy
 70
    24
177
     3
291
     0
 70
    58
 90
        1
176
     1
 90
        2
176
     1
 90
        2
176
     1
 90
        0
176
     1
 40
0.6
176
     1
 40
30.0
176
     1
 62
     7
420
 16777215
176
     1
 90
        2
176
     1
 90
        2
176
     1
 62
     7
176
     1
 62
     7
176
     1
 90
        1
176
     1
 90
        1
176
     1
 40
40.0
176
     1
 90
       11
176
     1
 62
     7
176
     1
 40
1.0
176
     1
 90
        1
176
     1
 90
        6
176
     1
 90
        2
176
     1
 62
     7
176
     1
 90
        6
176
     1
 90
        0
176
     1
 90
        0
176
     1
290
     0
176
     1
 90
        1
176
     1
 40
0.0
176
     1
 90
        0
176
     1
290
     0
176
     1
290
     1
176
     1
290
     1
176
     1
290
     0
176
     1
290
     0
176
     1
290
     0
176
     1
290
     0
176
     1
290
     0
176
     1
290
     0
176
     1
 90
       50
176
     1
 40
0.0
176
     1
 40
1.0
176
     1
 90
        0
176
     1
 62
    18
420
        0
176
     1
 90
       50
176
     1
 90
        3
176
     1
 62
     5
420
      255
176
     1
290
     0
176
     1
 90
       50
176
     1
 90
       50
176
     1
 90
       50
176
     1
290
     0
176
     1
 90
       50
176
     1
 62
   256
176
     0
 40
1.0
176
     0
 90
        2
176
     1
  1
strokes_ogs.tif
176
     1
290
     0
176
     1
 40
1.0
176
     1
 40
1.0
176
     1
  0
VISUALSTYLE
  5
36
102
{ACAD_REACTORS
330
29
102
}
330
29
100
AcDbVisualStyle
  2
Thicken
 70
    13
177
     3
291
     1
 70
    58
 90
        2
176
     1
 90
        2
176
     1
 90
        0
176
     1
 90
        0
176
     1
 40
0.6
176
     1
 40
30.0
176
     1
 62
     7
420
 16777215
176
     1
 90
        1
176
     1
 90
        4
176
     1
 62
     7
176
     1
 62
   257
176
     1
 90
        1
176
     1
 90
        1
176
     1
 40
1.0
176
     1
 90
       12
176
     1
 62
     7
176
     1
 40
1.0
176
     1
 90
        1
176
     1
 90
        6
176
     1
 90
        2
176
     1
 62
     7
176
     1
 90
        5
176
     1
 90
        0
176
     1
 90
        0
176
     1
290
     0
176
     1
 90
        1
176
     1
 40
0.0
176
     1
 90
        0
176
     1
290
     0
176
     1
290
     1
176
     1
290
     1
176
     1
290
     0
176
     1
290
     0
176
     1
290
     0
176
     1
290
     0
176
     1
290
     0
176
     1
290
     0
176
     1
 90
       50
176
     1
 40
0.0
176
     1
 40
1.0
176
     1
 90
        0
176
     1
 62
    18
420
        0
176
     1
 90
       50
176
     1
 90
        3
176
     1
 62
     5
420
      255
176
     1
290
     0
176
     1
 90
       50
176
     1
 90
       50
176
     1
 90
       50
176
     1
290
     0
176
     1
 90
       50
176
     1
 62
   256
176
     0
 40
1.0
176
     0
 90
        2
176
     1
  1
strokes_ogs.tif
176
     1
290
     0
176
     1
 40
1.0
176
     1
 40
1.0
176
     1
  0
VISUALSTYLE
  5
30
102
{ACAD_REACTORS
330
29
102
}
330
29
100
AcDbVisualStyle
  2
Wireframe
 70
     5
177
     3
291
     0
 70
    58
 90
        0
176
     1
 90
        2
176
     1
 90
        0
176
     1
 90
        0
176
     1
 40
0.6
176
     1
 40
30.0
176
     1
 62
     7
420
 16777215
176
     1
 90
        1
176
     1
 90
        4
176
     1
 62
     7
176
     1
 62
   257
176
     1
 90
        1
176
     1
 90
        1
176
     1
 40
1.0
176
     1
 90
        0
176
     1
 62
   257
176
     1
 40
1.0
176
     1
 90
        1
176
     1
 90
        6
176
     1
 90
        2
176
     1
 62
     7
176
     1
 90
        3
176
     1
 90
        0
176
     1
 90
        0
176
     1
290
     0
176
     1
 90
        1
176
     1
 40
0.0
176
     1
 90
        0
176
     1
290
     0
176
     1
290
     1
176
     1
290
     1
176
     1
290
     0
176
     1
290
     0
176
     1
290
     0
176
     1
290
     0
176
     1
290
     0
176
     1
290
     0
176
     1
 90
       50
176
     1
 40
0.0
176
     1
 40
1.0
176
     1
 90
        0
176
     1
 62
    18
420
        0
176
     1
 90
       50
176
     1
 90
        3
176
     1
 62
     5
420
      255
176
     1
290
     0
176
     1
 90
       50
176
     1
 90
       50
176
     1
 90
       50
176
     1
290
     0
176
     1
 90
       50
176
     1
 62
   256
176
     0
 40
1.0
176
     0
 90
        2
176
     1
  1
strokes_ogs.tif
176
     1
290
     0
176
     1
 40
1.0
176
     1
 40
1.0
176
     1
  0
VISUALSTYLE
  5
3C
102
{ACAD_REACTORS
330
29
102
}
330
29
100
AcDbVisualStyle
  2
X-Ray
 70
    25
177
     3
291
     0
 70
    58
 90
        2
176
     1
 90
        2
176
     1
 90
        1
176
     1
 90
        1
176
     1
 40
0.5
176
     1
 40
30.0
176
     1
 62
     7
420
 16777215
176
     1
 90
        1
176
     1
 90
        0
176
     1
 62
     7
176
     1
 62
   257
176
     1
 90
        1
176
     1
 90
        1
176
     1
 40
1.0
176
     1
 90
        8
176
     1
 62
     7
176
     1
 40
1.0
176
     1
 90
        1
176
     1
 90
        6
176
     1
 90
        2
176
     1
 62
     7
176
     1
 90
        3
176
     1
 90
        0
176
     1
 90
        0
176
     1
290
     0
176
     1
 90
       13
176
     1
 40
0.0
176
     1
 90
        0
176
     1
290
     0
176
     1
290
     1
176
     1
290
     1
176
     1
290
     0
176
     1
290
     0
176
     1
290
     0
176
     1
290
     0
176
     1
290
     0
176
     1
290
     0
176
     1
 90
       50
176
     1
 40
0.0
176
     1
 40
1.0
176
     1
 90
        0
176
     1
 62
    18
420
        0
176
     1
 90
       50
176
     1
 90
        3
176
     1
 62
     5
420
      255
176
     1
290
     0
176
     1
 90
       50
176
     1
 90
       50
176
     1
 90
       50
176
     1
290
     0
176
     1
 90
       50
176
     1
 62
   256
176
     0
 40
1.0
176
     0
 90
        2
176
     1
  1
strokes_ogs.tif
176
     1
290
     0
176
     1
 40
1.0
176
     1
 40
1.0
176
     1
  0
DICTIONARYVAR
  5
D4
102
{ACAD_REACTORS
330
CF
102
}
330
CF
100
DictionaryVariables
280
     0
  1
1:1
  0
DICTIONARYVAR
  5
D1
102
{ACAD_REACTORS
330
CF
102
}
330
CF
100
DictionaryVariables
280
     0
  1
STANDARD
  0
DICTIONARYVAR
  5
D0
102
{ACAD_REACTORS
330
CF
102
}
330
CF
100
DictionaryVariables
280
     0
  1
STANDARD
  0
DICTIONARYVAR
  5
D2
102
{ACAD_REACTORS
330
CF
102
}
330
CF
100
DictionaryVariables
280
     0
  1
Imperial24
  0
DICTIONARYVAR
  5
D3
102
{ACAD_REACTORS
330
CF
102
}
330
CF
100
DictionaryVariables
280
     0
  1
Imperial24
  0
DICTIONARY
  5
1A
330
19
100
AcDbDictionary
280
     1
281
     1
  3
BUMPTILE
360
1C
  3
DIFFUSETILE
360
1B
  3
OPACITYTILE
360
1F
  3
REFLECTIONTILE
360
1E
  3
REFRACTIONTILE
360
20
  3
SPECULARTILE
360
1D
  0
DICTIONARY
  5
12
330
11
100
AcDbDictionary
280
     1
281
     1
  3
BUMPTILE
360
14
  3
DIFFUSETILE
360
13
  3
OPACITYTILE
360
17
  3
REFLECTIONTILE
360
16
  3
REFRACTIONTILE
360
18
  3
SPECULARTILE
360
15
  0
DICTIONARY
  5
22
330
21
100
AcDbDictionary
280
     1
281
     1
  3
BUMPTILE
360
24
  3
DIFFUSETILE
360
23
  3
OPACITYTILE
360
27
  3
REFLECTIONTILE
360
26
  3
REFRACTIONTILE
360
28
  3
SPECULARTILE
360
25
  0
DICTIONARY
  5
D5
330
65
100
AcDbDictionary
280
     1
281
     1
  3
ACAD_ROUNDTRIP_2008_TABLESTYLE_CELLSTYLEMAP
360
D6
  0
XRECORD
  5
1C
102
{ACAD_REACTORS
330
1A
102
}
330
1A
100
AcDbXrecord
280
     1
270
     1
271
     1
  0
XRECORD
  5
1B
102
{ACAD_REACTORS
330
1A
102
}
330
1A
100
AcDbXrecord
280
     1
270
     1
271
     1
  0
XRECORD
  5
1F
102
{ACAD_REACTORS
330
1A
102
}
330
1A
100
AcDbXrecord
280
     1
270
     1
271
     1
  0
XRECORD
  5
1E
102
{ACAD_REACTORS
330
1A
102
}
330
1A
100
AcDbXrecord
280
     1
270
     1
271
     1
  0
XRECORD
  5
20
102
{ACAD_REACTORS
330
1A
102
}
330
1A
100
AcDbXrecord
280
     1
270
     1
271
     1
  0
XRECORD
  5
1D
102
{ACAD_REACTORS
330
1A
102
}
330
1A
100
AcDbXrecord
280
     1
270
     1
271
     1
  0
XRECORD
  5
14
102
{ACAD_REACTORS
330
12
102
}
330
12
100
AcDbXrecord
280
     1
270
     1
271
     1
  0
XRECORD
  5
13
102
{ACAD_REACTORS
330
12
102
}
330
12
100
AcDbXrecord
280
     1
270
     1
271
     1
  0
XRECORD
  5
17
102
{ACAD_REACTORS
330
12
102
}
330
12
100
AcDbXrecord
280
     1
270
     1
271
     1
  0
XRECORD
  5
16
102
{ACAD_REACTORS
330
12
102
}
330
12
100
AcDbXrecord
280
     1
270
     1
271
     1
  0
XRECORD
  5
18
102
{ACAD_REACTORS
330
12
102
}
330
12
100
AcDbXrecord
280
     1
270
     1
271
     1
  0
XRECORD
  5
15
102
{ACAD_REACTORS
330
12
102
}
330
12
100
AcDbXrecord
280
     1
270
     1
271
     1
  0
XRECORD
  5
24
102
{ACAD_REACTORS
330
22
102
}
330
22
100
AcDbXrecord
280
     1
270
     1
271
     1
  0
XRECORD
  5
23
102
{ACAD_REACTORS
330
22
102
}
330
22
100
AcDbXrecord
280
     1
270
     1
271
     1
  0
XRECORD
  5
27
102
{ACAD_REACTORS
330
22
102
}
330
22
100
AcDbXrecord
280
     1
270
     1
271
     1
  0
XRECORD
  5
26
102
{ACAD_REACTORS
330
22
102
}
330
22
100
AcDbXrecord
280
     1
270
     1
271
     1
  0
XRECORD
  5
28
102
{ACAD_REACTORS
330
22
102
}
330
22
100
AcDbXrecord
280
     1
270
     1
271
     1
  0
XRECORD
  5
25
102
{ACAD_REACTORS
330
22
102
}
330
22
100
AcDbXrecord
280
     1
270
     1
271
     1
  0
CELLSTYLEMAP
  5
D6
102
{ACAD_REACTORS
330
D5
102
}
330
D5
100
AcDbCellStyleMap
 90
        3
300
CELLSTYLE
  1
TABLEFORMAT_BEGIN
 90
        5
170
     1
 91
        0
 92
    32768
 62
   257
 93
        1
300
CONTENTFORMAT
  1
CONTENTFORMAT_BEGIN
 90
        0
 91
        0
 92
      512
 93
        0
300

 40
0.0
140
1.0
 94
        5
 62
     0
340
55
144
0.25
309
CONTENTFORMAT_END
171
     0
 94
        0
309
TABLEFORMAT_END
  1
CELLSTYLE_BEGIN
 90
        1
 91
        1
300
_TITLE
309
CELLSTYLE_END
300
CELLSTYLE
  1
TABLEFORMAT_BEGIN
 90
        5
170
     1
 91
        0
 92
        0
 62
   257
 93
        1
300
CONTENTFORMAT
  1
CONTENTFORMAT_BEGIN
 90
        0
 91
        0
 92
      512
 93
        0
300

 40
0.0
140
1.0
 94
        5
 62
     0
340
55
144
0.18
309
CONTENTFORMAT_END
171
     0
 94
        0
309
TABLEFORMAT_END
  1
CELLSTYLE_BEGIN
 90
        2
 91
        1
300
_HEADER
309
CELLSTYLE_END
300
CELLSTYLE
  1
TABLEFORMAT_BEGIN
 90
        5
170
     1
 91
        0
 92
        0
 62
   257
 93
        1
300
CONTENTFORMAT
  1
CONTENTFORMAT_BEGIN
 90
        0
 91
        0
 92
      512
 93
        0
300

 40
0.0
140
1.0
 94
        2
 62
     0
340
55
144
0.18
309
CONTENTFORMAT_END
171
     0
 94
        0
309
TABLEFORMAT_END
  1
CELLSTYLE_BEGIN
 90
        3
 91
        2
300
_DATA
309
CELLSTYLE_END
  0
ENDSEC
  0
EOF
